<svg xmlns="http://www.w3.org/2000/svg" viewBox="0 0 1172 210.15"><defs><style>.cls-1{fill:#2c67f2;}.cls-2{fill:#ff6f29;}</style></defs><g id="Camada_2" data-name="Camada 2"><g id="Camada_7" data-name="Camada 7"><path class="cls-1" d="M610.75,66.59,701,192.94l-.15.14-90-72.68-90.1,72.7-.18-.1Z"/><path class="cls-2" d="M684.61,200c5.21,1.92,10.43,3.81,15.65,5.71l.11-.19L610.74,147l-89.89,58.76.14.17q7.08-2.62,14.16-5.23c24.61-9.05,51-18.28,75.59-27.37Z"/><path class="cls-2" d="M24.88,44.44q-10.93,0-17.91-6.5A20.92,20.92,0,0,1,0,22,20.17,20.17,0,0,1,7,6.15Q13.95,0,24.88,0,36,0,42.86,6.15A20.25,20.25,0,0,1,49.77,22a20.82,20.82,0,0,1-6.91,16.14Q36,44.44,24.88,44.44Z"/><path class="cls-1" d="M45.8,159.15q0,8.9,4.24,13.47t11.35,4.58a37.22,37.22,0,0,0,7.11-.68l7.11-1.37v30.36a155.57,155.57,0,0,1-16.47,3.34A121.88,121.88,0,0,1,41,210.15a41,41,0,0,1-15.66-2.87,33.24,33.24,0,0,1-12-8.27A37.63,37.63,0,0,1,5.6,186a51,51,0,0,1-2.73-17.23V66.59H45.8Z"/><path class="cls-1" d="M229,206.6H186V128.8q0-32.54-23.24-32.54a23.06,23.06,0,0,0-18.46,8.61Q137,113.5,137,126.75V206.6H93.8v-140H137V88.74h.55q15.45-25.57,45-25.57,46.49,0,46.49,57.7Z"/><path class="cls-1" d="M322.35,210q-35,0-55-19.62t-20-53.26q0-34.72,20.78-54.35t56.2-19.62q34.86,0,54.69,19.62t19.82,51.89q0,34.86-20.44,55.1T322.35,210Zm1.1-113.76q-15.31,0-23.8,10.53t-8.47,29.8q0,40.33,32.54,40.34,31,0,31-41.43Q354.76,96.26,323.45,96.26Z"/><path class="cls-1" d="M546.48,66.59l-52.09,140H445.16l-49.63-140h46.22l24.33,86.27a126,126,0,0,1,4.79,24.89h.55a141,141,0,0,1,5.05-24.07l24.89-87.09Z"/><path class="cls-1" d="M759.71,159.15q0,8.9,4.24,13.47t11.34,4.58a37.22,37.22,0,0,0,7.11-.68l7.11-1.37v30.36A155.06,155.06,0,0,1,773,208.85a121.88,121.88,0,0,1-18.12,1.3,41,41,0,0,1-15.65-2.87,33.2,33.2,0,0,1-12-8.27A37.46,37.46,0,0,1,719.51,186a50.77,50.77,0,0,1-2.74-17.23V66.56h42.94Z"/><path class="cls-1" d="M931.55,148.9H840.22q2.17,30.49,38.42,30.49,23.1,0,40.6-10.94v31.18Q899.83,210,868.79,210q-33.9,0-52.64-18.8t-18.73-52.44q0-34.86,20.23-55.24t49.77-20.37q30.63,0,47.38,18.18t16.75,49.36Zm-40.06-26.53q0-30.08-24.34-30.08-10.39,0-18,8.62t-9.23,21.46Z"/><path class="cls-1" d="M1172,206.6h-43.07V126.75q0-30.5-22.42-30.49-10.66,0-17.37,9.16t-6.7,22.83V206.6h-43.21V125.93q0-29.67-22-29.67A21.12,21.12,0,0,0,999.51,105q-6.63,8.74-6.63,23.79v77.8h-43.2v-140h43.2V88.46h.55a53.05,53.05,0,0,1,45.26-25.29q29.65,0,40.61,26.11,16-26.1,47-26.11,45.68,0,45.67,56.33Z"/></g></g></svg>