<svg width="484" height="635" viewBox="0 0 484 635" fill="none" xmlns="http://www.w3.org/2000/svg">
<path d="M193.854 62.6836C192.615 62.7226 191.398 63.0206 190.281 63.5584C189.164 64.0963 188.172 64.862 187.369 65.8064C186.566 66.7507 185.97 67.8527 185.618 69.0415C185.267 70.2303 185.168 71.4795 185.329 72.7086C185.83 78.2257 186.332 84.2441 186.332 89.7512C186.373 90.6819 186.603 91.5945 187.008 92.4333C187.414 93.272 187.986 94.0193 188.69 94.6295C189.394 95.2397 190.215 95.6999 191.103 95.9821C191.991 96.2643 192.927 96.3625 193.854 96.2708C208.891 95.2683 214.906 89.7512 214.418 78.2257C213.413 66.1924 206.392 62.6836 193.854 62.6836Z" fill="#FF6F29"/>
<path d="M195.862 110.326C194.046 110.573 192.383 111.473 191.183 112.857C189.983 114.242 189.329 116.016 189.342 117.848C189.843 124.865 190.345 130.88 190.846 137.407C190.95 138.472 191.293 139.5 191.848 140.414C198.903 130.854 207.351 122.406 216.911 115.352C213.412 111.328 206.391 109.323 195.862 110.326Z" fill="#FF6F29"/>
<path d="M155.237 34.0828C128.658 44.1078 107.595 61.1504 98.0647 84.2347C92.9416 103.331 94.1744 123.575 101.577 141.909C108.4 159.219 120.277 174.074 135.662 184.539C147.95 181.447 160.612 180.098 173.276 180.528C174.995 173.866 177.174 167.331 179.795 160.97L181.299 157.962L162.743 160.468C162.304 160.581 161.844 160.587 161.402 160.484C160.96 160.381 160.55 160.173 160.205 159.878C159.861 159.583 159.593 159.209 159.424 158.788C159.255 158.368 159.19 157.912 159.234 157.461C159.234 155.954 160.237 153.949 161.74 153.949C164.967 153.156 167.823 151.278 169.83 148.631C171.838 145.983 172.875 142.727 172.768 139.406C172.267 129.875 168.253 83.2355 167.251 73.2038C166.908 69.778 165.357 66.5859 162.876 64.1984C160.396 61.8108 157.147 60.3834 153.71 60.1713C151.705 60.1713 150.703 58.6675 150.198 56.6625C150.15 55.8023 150.436 54.9567 150.996 54.3023C151.557 53.6479 152.348 53.2352 153.206 53.1504L179.785 52.6492H182.793L182.292 43.1187C182.073 41.9601 182.098 40.7687 182.366 39.6203C182.633 38.472 183.136 37.3919 183.844 36.4488C184.552 35.5058 185.448 34.7204 186.476 34.1427C187.503 33.5651 188.64 33.2078 189.814 33.0937C194.325 33.0937 197.834 37.6083 198.338 43.1187L198.84 52.6492C216.394 53.6517 226.926 63.1821 227.912 76.7093C228.208 80.5919 227.484 84.4845 225.813 88.0013C224.141 91.5181 221.579 94.5372 218.382 96.7593C217.802 97.1943 217.351 97.777 217.073 98.4464C216.796 99.1159 216.704 99.8475 216.807 100.565C216.909 101.282 217.202 101.958 217.656 102.524C218.109 103.089 218.706 103.521 219.384 103.777C222.693 104.836 225.76 106.539 228.407 108.789C232.94 106.317 237.628 104.139 242.442 102.27C252.694 98.7054 263.279 96.1852 274.037 94.7476C273.536 92.238 272.534 89.7351 272.032 87.7301C256.043 40.6158 203.886 16.5423 155.237 34.0828Z" fill="#FF6F29"/>
<path d="M313.215 245.736C329.256 245.736 337.276 240.219 338.278 229.185C339.281 217.649 332.263 211.139 314.709 210.137C312.782 210.074 310.909 210.777 309.499 212.092C308.089 213.407 307.258 215.228 307.187 217.154C306.682 224.172 306.185 231.19 306.185 237.716C306.015 238.723 306.072 239.754 306.351 240.737C306.63 241.719 307.124 242.627 307.797 243.394C308.47 244.162 309.305 244.77 310.242 245.175C311.18 245.58 312.195 245.772 313.215 245.736Z" fill="#FF6F29"/>
<path d="M314.722 195.086C330.762 196.089 337.78 191.574 338.291 179.537C339.293 166.999 332.777 161.983 319.243 160.49C317.955 160.37 316.656 160.51 315.424 160.902C314.191 161.294 313.049 161.93 312.067 162.771C311.084 163.613 310.281 164.643 309.704 165.801C309.128 166.959 308.79 168.221 308.71 169.512C308.209 175.527 307.708 181.542 307.708 187.063C307.628 188.053 307.747 189.049 308.059 189.992C308.37 190.936 308.867 191.807 309.521 192.555C310.175 193.303 310.972 193.912 311.865 194.347C312.759 194.782 313.73 195.033 314.722 195.086Z" fill="#FF6F29"/>
<path d="M387.942 180.036C370.9 133.396 318.733 109.322 270.088 126.876C256.981 131.649 245.05 139.177 235.1 148.953C225.15 158.73 217.413 170.527 212.411 183.548C212.486 184.254 212.308 184.965 211.909 185.553C219.157 187.136 226.214 189.488 232.962 192.57C255.742 202.977 273.934 221.348 284.116 244.229C285.675 242.216 286.553 239.758 286.623 237.212C287.124 227.187 290.135 178.535 290.633 168.002C290.819 164.4 289.708 160.851 287.501 157.998C285.293 155.146 282.136 153.18 278.603 152.457C277.702 152.264 276.901 151.752 276.348 151.015C275.795 150.278 275.528 149.366 275.595 148.447C275.611 147.966 275.735 147.495 275.957 147.068C276.179 146.642 276.494 146.271 276.879 145.982C277.264 145.693 277.709 145.495 278.18 145.401C278.652 145.307 279.139 145.32 279.605 145.439L310.683 149.449L311.184 139.922C311.685 134.405 315.698 129.897 320.206 130.9C324.718 131.404 328.226 136.915 327.729 142.435L327.227 151.966C345.272 155.474 354.809 167.003 353.807 181.038C353.601 185.171 352.281 189.172 349.987 192.616C347.693 196.06 344.509 198.819 340.774 200.6C340.092 200.964 339.522 201.505 339.124 202.168C338.726 202.83 338.516 203.589 338.516 204.361C338.516 205.134 338.726 205.893 339.124 206.555C339.522 207.218 340.092 207.759 340.774 208.123C351.304 213.64 355.317 221.663 354.809 231.18C353.807 243.721 343.782 256.761 320.206 258.264L319.702 268.794C319.201 273.807 315.692 278.325 311.177 278.325C310.026 278.274 308.9 277.976 307.874 277.451C306.849 276.925 305.948 276.185 305.235 275.281C304.521 274.377 304.01 273.329 303.738 272.21C303.465 271.09 303.437 269.925 303.655 268.794L304.156 258.264H289.119C292.202 268.323 293.558 278.831 293.129 289.342C318.297 283.557 343.739 279.038 369.359 275.802C391.956 248.744 399.979 212.634 387.942 180.036Z" fill="#FF6F29"/>
<path d="M193.854 256.771C186.332 247.24 178.308 247.748 167.274 255.264C166.225 256.008 165.345 256.966 164.692 258.075C164.039 259.184 163.628 260.418 163.486 261.697C163.344 262.976 163.474 264.27 163.868 265.495C164.262 266.72 164.91 267.848 165.77 268.804C169.282 273.319 173.292 278.335 176.798 282.839C178.035 284.379 179.81 285.391 181.766 285.671C183.721 285.95 185.709 285.475 187.327 284.343C199.371 274.321 201.379 266.298 193.854 256.771Z" fill="#FF6F29"/>
<path d="M226.956 293.397C219.939 284.375 210.405 283.87 196.881 294.904C195.403 296.201 194.477 298.013 194.29 299.97C194.104 301.927 194.672 303.882 195.879 305.434C197.382 307.439 198.886 308.946 200.39 310.951C210.415 308.445 220.44 305.434 230.983 302.931C230.52 299.449 229.129 296.157 226.956 293.397Z" fill="#FF6F29"/>
<path d="M273.583 266.297C256.54 219.657 204.387 195.584 155.739 213.138C106.088 231.183 80.0094 285.856 97.062 334.504C98.0645 336.008 98.5657 338.016 99.5683 339.517C120.621 333.502 149.219 324.974 180.313 316.459C178.308 314.454 157.256 287.387 150.726 279.346C148.341 276.638 145.109 274.817 141.557 274.18C138.005 273.543 134.342 274.127 131.164 275.838C130.349 276.306 129.391 276.462 128.469 276.278C127.548 276.093 126.724 275.581 126.151 274.835C125.825 274.487 125.576 274.073 125.423 273.621C125.269 273.169 125.215 272.69 125.262 272.215C125.309 271.74 125.458 271.281 125.698 270.868C125.938 270.455 126.263 270.099 126.653 269.823L152.23 251.778L146.215 244.256C142.703 239.741 142.703 233.723 146.716 231.223C148.937 230.088 151.501 229.818 153.909 230.467C156.318 231.116 158.399 232.637 159.749 234.735L165.764 242.257C181.804 232.73 196.357 234.735 204.881 246.267C207.416 249.476 209.072 253.289 209.688 257.331C210.304 261.374 209.857 265.507 208.393 269.325C208.126 270.046 208.063 270.826 208.209 271.581C208.356 272.336 208.707 273.036 209.224 273.605C209.741 274.174 210.405 274.59 211.142 274.807C211.88 275.025 212.663 275.036 213.406 274.839C218.002 273.317 222.952 273.221 227.604 274.564C232.256 275.907 236.393 278.626 239.471 282.364C243.139 287.092 245.085 292.929 244.988 298.912C256.016 295.904 267.043 293.395 278.087 290.892C278.057 282.491 276.531 274.163 273.583 266.297Z" fill="#FF6F29"/>
<path d="M480.723 513.549L467.691 459.885C472.264 458.19 476.264 455.235 479.226 451.361C480.679 449.262 481.694 446.893 482.211 444.394C482.728 441.894 482.735 439.317 482.234 436.814L463.677 360.584C462.17 354.064 454.655 348.554 441.108 350.054L428.566 298.409C421.549 269.824 418.541 269.336 389.449 272.344H387.942C395.716 263.474 402.134 253.502 406.989 242.753C418.065 217.664 418.965 189.255 409.499 163.515C404.867 150.801 397.73 139.146 388.512 129.239C379.295 119.332 368.183 111.376 355.835 105.841C347.037 101.956 337.762 99.2585 328.253 97.8211C316.266 94.9493 303.965 93.602 291.641 93.8111C291.062 84.9031 289.204 76.1247 286.124 67.746C281.62 55.5099 274.739 44.2865 265.876 34.7233C257.013 25.1601 246.344 17.4463 234.485 12.0268C226.035 8.14832 217.091 5.44972 207.905 4.00682C180.996 -2.46564 152.794 -1.0738 126.653 8.01683C99.8483 18.0697 78.0586 38.2384 65.9677 64.1871C60.2407 76.5468 57.0667 89.935 56.6354 103.55C56.2042 117.165 58.5247 130.728 63.4581 143.425C71.4781 163.475 88.0361 181.039 110.101 193.076C86.9477 204.683 68.3926 223.769 57.443 247.241C53.5631 255.691 50.8644 264.635 49.423 273.821C7.79238 288.384 -3.24183 312.444 0.768183 330.489L63.9627 593.79C65.816 600.599 69.0405 606.958 73.4387 612.478C77.8368 617.997 83.3158 622.56 89.5398 625.886C101.289 632.039 114.395 635.143 127.655 634.916C142.229 634.795 156.664 632.08 170.285 626.896C235.481 604.326 374.902 570.725 441.606 561.696C463.17 558.689 473.686 554.679 478.718 547.153C486.24 538.625 483.734 526.588 480.723 513.549ZM474.708 438.823C475.008 440.304 474.984 441.833 474.638 443.304C474.292 444.776 473.632 446.155 472.703 447.347L471.2 448.851C467.422 452.217 462.689 454.32 457.659 454.866C456.152 454.866 454.652 455.367 453.144 455.367C430.367 459.227 407.905 464.759 385.94 471.919C380.927 473.924 379.925 473.422 379.42 473.422C377.846 471.848 361.375 401.523 361.375 401.205C367.755 394.826 424.67 383.698 433.094 382.158L440.617 380.651C442.582 380.113 444.598 379.777 446.632 379.648C449.39 379.115 452.08 378.274 454.652 377.142C456.51 376.265 458.205 375.077 459.664 373.63L474.708 438.823ZM72.9885 67.6959C78.3377 55.6556 86.0735 44.8255 95.7282 35.8606C105.383 26.8958 116.756 19.9825 129.159 15.5389C139.016 11.9079 149.297 9.5497 159.752 8.52142C158.749 9.02268 158.248 9.02267 157.246 9.52393C130.442 19.578 108.653 39.7463 96.5607 65.6942C90.8333 78.0543 87.659 91.4431 87.2278 105.059C86.7966 118.675 89.1173 132.238 94.0511 144.935C100.599 161.842 111.712 176.598 126.151 187.562C123.925 188.253 121.747 189.092 119.632 190.071C96.5741 178.536 79.0069 160.999 70.9835 141.423C66.3356 129.632 64.1173 117.024 64.4619 104.355C64.8064 91.6857 67.7066 79.2167 72.9885 67.6959ZM376.413 273.319C374.408 273.319 371.898 273.821 369.893 273.821C347.324 276.828 321.245 281.346 293.66 287.361C293.841 276.857 292.49 266.382 289.65 256.267C289.148 254.262 288.142 251.755 287.645 249.75C286.593 247.666 285.753 245.48 285.138 243.228C274.955 220.346 256.76 201.975 233.977 191.572C227.202 188.562 220.151 186.212 212.925 184.554C212.85 183.848 213.027 183.137 213.426 182.549C214.922 175.988 217.108 169.603 219.949 163.502C225.579 150.93 233.672 139.615 243.751 130.226C253.829 120.836 265.688 113.563 278.625 108.835C289.55 104.859 301.085 102.823 312.71 102.82C332.333 102.614 351.54 108.479 367.701 119.612C383.861 130.745 396.186 146.601 402.986 165.009C409.431 183.708 410.352 203.867 405.639 223.076C400.926 242.284 390.778 259.728 376.41 273.319H376.413ZM279.117 291.364C268.089 293.871 257.062 296.377 246.017 299.384C241.005 300.387 235.992 301.894 231.471 302.897C220.941 305.403 210.91 308.414 200.881 310.917C194.362 312.922 187.849 314.429 181.319 316.434C150.241 324.962 121.64 333.476 100.574 339.491C99.5716 337.988 99.0703 335.979 98.0678 334.479L95.0603 328.464C90.2877 316.18 88.0071 303.07 88.3514 289.896C88.6956 276.723 91.6578 263.75 97.0653 251.732C102.698 239.166 110.793 227.856 120.87 218.471C130.948 209.086 142.804 201.815 155.738 197.089C166.669 193.11 178.211 191.075 189.844 191.074C209.466 190.868 228.672 196.733 244.832 207.866C260.992 218.999 273.316 234.855 280.116 253.263C284.303 265.006 286.34 277.408 286.131 289.874C283.628 290.389 281.118 290.873 279.113 291.391L279.117 291.364ZM275.588 102.804C261.653 107.837 248.876 115.628 238.019 125.709C227.162 135.79 218.448 147.956 212.397 161.48C209.218 168.763 206.7 176.316 204.875 184.05C197.151 182.109 189.256 180.933 181.302 180.538C182.86 174.709 184.871 169.011 187.317 163.495C192.948 150.924 201.043 139.609 211.121 130.219C221.2 120.83 233.059 113.556 245.997 108.829C256.952 104.74 268.425 102.208 280.082 101.306L275.588 102.804ZM275.087 94.7835C264.328 96.2215 253.743 98.7416 243.491 102.306C238.677 104.173 233.989 106.351 229.456 108.825C225.229 110.967 221.202 113.485 217.426 116.347C207.751 123.268 199.284 131.735 192.363 141.41C188.546 146.797 185.193 152.499 182.338 158.452C181.835 159.455 181.332 160.458 180.831 161.46C177.988 167.737 175.804 174.292 174.312 181.019C161.658 180.837 149.029 182.184 136.698 185.029C120.94 174.973 108.954 159.983 102.613 142.399C95.4589 124.01 94.231 103.846 99.1004 84.7251C100.411 79.3707 102.26 74.1625 104.618 69.1796C109.966 57.1462 117.697 46.3217 127.346 37.3601C136.994 28.3985 148.359 21.4857 160.754 17.0394C183.569 8.36606 208.892 9.09196 231.172 19.058C253.452 29.0239 270.873 47.417 279.615 70.2055C282.478 77.9301 284.167 86.0401 284.627 94.2655C281.444 93.921 278.227 94.0947 275.1 94.7802L275.087 94.7835ZM157.747 188.564L153.232 190.068C139.297 195.101 126.519 202.89 115.662 212.972C104.805 223.053 96.0909 235.22 90.0411 248.745C84.0654 261.657 80.7626 275.644 80.3314 289.865C79.9001 304.086 82.3492 318.248 87.5315 331.498C88.998 335.102 90.6717 338.617 92.544 342.028C86.529 343.531 81.5165 345.035 76.9985 346.542C75.996 347.043 74.9935 347.043 73.991 347.545C69.3086 341.557 65.4305 334.981 62.4556 327.986C57.6839 315.702 55.4038 302.592 55.748 289.419C56.0923 276.245 59.0539 263.272 64.4606 251.254C70.0909 238.683 78.1849 227.367 88.2638 217.978C98.3427 208.588 110.202 201.315 123.14 196.588C134.213 192.206 145.876 189.502 157.747 188.564ZM48.9151 282.349C48.4138 288.859 48.4138 295.397 48.9151 301.907C40.7914 305.489 33.5895 310.872 27.8548 317.65C22.1201 324.427 18.0031 332.421 15.8158 341.025C12.3036 337.506 -2.23932 298.897 48.9151 282.349ZM474.204 542.635C470.695 548.152 460.663 551.658 442.124 554.171C375.42 563.193 234.996 597.302 169.299 619.871C140.226 629.896 113.63 629.896 94.0678 619.367C82.5357 612.847 74.509 603.327 72.0128 592.299L13.3095 349.048C14.312 352.561 25.3395 355.063 27.8525 356.066C34.7172 357.888 41.8045 358.732 48.905 358.576C58.9736 358.503 68.9648 356.81 78.4956 353.563C84.5106 352.059 92.0361 349.553 100.059 347.043C165.76 327.996 302.174 287.866 381.429 280.34C389.449 279.338 405.489 274.823 413.024 279.839C416.032 281.844 418.037 287.361 421.044 299.889L438.598 373.109C412.516 378.121 386.438 382.131 361.863 392.156C353.339 395.668 352.336 397.673 354.341 407.194L369.379 469.382C369.59 471.46 370.234 473.471 371.27 475.284C372.306 477.098 373.711 478.674 375.394 479.912C376.836 480.483 378.36 480.821 379.908 480.914C386.428 480.914 392.941 477.406 399.467 475.397C406.485 473.392 413.502 471.387 420.52 469.884C433.058 466.876 446.097 463.868 459.136 461.863H460.64L473.672 515.026C476.713 529.095 477.716 537.623 474.204 542.635Z" fill="#2C67F2"/>
<path d="M428.566 421.271C427.991 418.807 426.886 416.499 425.328 414.507C423.77 412.515 421.796 410.886 419.544 409.735C414.748 407.192 409.185 406.502 403.914 407.796C398.642 409.09 394.031 412.278 390.959 416.753C389.489 418.741 388.498 421.042 388.063 423.477C387.628 425.911 387.76 428.413 388.449 430.788C390.959 441.321 402.996 446.828 413.024 444.332C422.548 441.832 431.072 431.8 428.566 421.271Z" fill="#2C67F2"/>
<path d="M402.99 357.579C403.291 358.486 403.921 359.247 404.757 359.711C405.592 360.176 406.572 360.309 407.501 360.085C407.967 359.961 408.403 359.745 408.783 359.448C409.163 359.152 409.48 358.782 409.714 358.361C409.949 357.94 410.096 357.475 410.146 356.996C410.197 356.517 410.151 356.032 410.011 355.571C407.76 342.215 403.713 329.225 397.98 316.954C395.474 312.44 388.958 316.453 391.461 320.964C397.024 332.559 400.906 344.888 402.99 357.579Z" fill="#2C67F2"/>
<path d="M363.872 305.423C347.32 306.426 331.772 311.438 315.725 315.448C311.21 316.451 313.215 323.973 317.73 322.466C332.767 318.456 348.323 313.443 363.872 312.441C364.4 312.448 364.925 312.35 365.415 312.151C365.905 311.952 366.35 311.657 366.724 311.283C367.098 310.909 367.393 310.464 367.592 309.974C367.791 309.484 367.889 308.959 367.882 308.431C367.59 307.587 367.052 306.849 366.337 306.313C365.622 305.777 364.764 305.467 363.872 305.423Z" fill="#2C67F2"/>
<path d="M231.478 348.043C247.518 343.528 263.074 339.02 279.124 334.502C283.638 332.998 281.63 325.978 277.119 327.485C261.57 331.999 245.523 336.507 229.473 341.025C224.948 342.024 226.957 349.045 231.478 348.043Z" fill="#2C67F2"/>
<path d="M141.196 375.129C156.233 370.116 171.288 366.106 186.332 361.588C190.847 360.084 188.842 353.063 184.327 354.571C169.289 359.085 154.235 363.098 139.191 368.111C138.704 368.219 138.245 368.425 137.84 368.717C137.436 369.009 137.096 369.381 136.841 369.809C136.586 370.238 136.421 370.714 136.357 371.208C136.292 371.703 136.33 372.205 136.467 372.685C136.604 373.164 136.837 373.61 137.153 373.996C137.469 374.382 137.86 374.699 138.303 374.928C138.746 375.157 139.232 375.293 139.729 375.327C140.226 375.362 140.726 375.294 141.196 375.129Z" fill="#2C67F2"/>
<path d="M94.0509 380.144C85.9893 382.085 77.7623 383.261 69.4795 383.656C60.5683 384.238 51.6194 383.563 42.8965 381.651C38.3852 380.648 36.3769 387.666 40.8915 388.668C52.0878 391.096 63.5929 391.772 74.9966 390.673C82.0872 389.993 89.1217 388.819 96.0492 387.161C101.075 386.663 99.0667 379.141 94.0509 380.144Z" fill="#2C67F2"/>
<path d="M438.093 486.967C439.568 492.581 440.741 498.27 441.605 504.01C442.254 513.657 439.48 516.23 438.093 517.55C434.879 519.563 431.302 520.925 427.564 521.56C422.295 522.834 416.93 523.672 411.524 524.066C410.46 524.066 409.44 524.489 408.688 525.241C407.936 525.993 407.514 527.013 407.514 528.076C407.514 529.14 407.936 530.16 408.688 530.912C409.44 531.664 410.46 532.086 411.524 532.086C421.054 531.084 431.082 530.081 439.61 526.071C447.133 522.061 449.635 515.044 449.635 507.024C449.319 499.523 447.969 492.101 445.625 484.969C444.613 480.447 437.091 482.456 438.093 486.967Z" fill="#2C67F2"/>
<path d="M371.394 529.598C356.741 531.202 342.178 533.545 327.761 536.615C326.853 536.916 326.092 537.548 325.627 538.384C325.162 539.22 325.028 540.2 325.252 541.13C325.376 541.596 325.593 542.031 325.89 542.411C326.186 542.791 326.556 543.108 326.977 543.341C327.399 543.575 327.863 543.722 328.342 543.773C328.821 543.823 329.306 543.777 329.766 543.636C343.518 540.732 357.413 538.556 371.394 537.117C371.922 537.124 372.447 537.026 372.937 536.827C373.427 536.628 373.872 536.333 374.246 535.959C374.62 535.585 374.915 535.14 375.114 534.65C375.313 534.16 375.411 533.635 375.404 533.107C375.309 532.121 374.841 531.208 374.096 530.556C373.35 529.904 372.384 529.561 371.394 529.598Z" fill="#2C67F2"/>
<path d="M288.644 546.144C275.611 549.653 262.061 553.666 249.022 557.68C244.51 559.183 246.515 566.204 251.027 564.697C264.059 560.687 277.092 556.677 290.646 553.162C295.164 552.162 293.155 544.64 288.644 546.144Z" fill="#2C67F2"/>
<path d="M208.902 570.222C193.587 575.223 178.017 579.409 162.258 582.76C161.351 583.061 160.59 583.691 160.126 584.527C159.662 585.362 159.529 586.342 159.752 587.271C159.876 587.737 160.093 588.173 160.389 588.553C160.685 588.933 161.055 589.25 161.477 589.484C161.898 589.719 162.362 589.865 162.842 589.916C163.321 589.967 163.806 589.921 164.267 589.78C180.051 586.54 195.625 582.353 210.907 577.242C211.419 577.159 211.907 576.968 212.341 576.683C212.774 576.397 213.141 576.023 213.42 575.584C213.698 575.146 213.88 574.654 213.954 574.141C214.028 573.627 213.993 573.104 213.851 572.605C213.708 572.106 213.462 571.643 213.127 571.246C212.793 570.849 212.379 570.528 211.911 570.302C211.444 570.077 210.934 569.954 210.415 569.94C209.896 569.926 209.381 570.022 208.902 570.222Z" fill="#2C67F2"/>
<path d="M121.637 586.769C114.708 588.296 107.519 588.185 100.641 586.444C93.7635 584.704 87.3866 581.382 82.0179 576.744C81.2863 576.013 80.294 575.602 79.2593 575.602C78.2247 575.602 77.2324 576.013 76.5008 576.744C75.7692 577.476 75.3582 578.468 75.3582 579.503C75.3582 580.538 75.7692 581.53 76.5008 582.262C82.8094 587.837 90.3782 591.795 98.5559 593.797C106.818 595.55 115.356 595.55 123.618 593.797C124.526 593.495 125.287 592.864 125.752 592.028C126.217 591.192 126.351 590.212 126.128 589.282C126.151 587.271 123.642 586.268 121.637 586.769Z" fill="#2C67F2"/>
</svg>
