<svg width="531" height="539" viewBox="0 0 531 539" fill="none" xmlns="http://www.w3.org/2000/svg">
<path d="M227.744 158.687H227.764C228.057 158.72 228.35 158.707 228.643 158.724V158.43C228.349 158.54 228.048 158.626 227.744 158.687Z" fill="#232323"/>
<path d="M299.476 130.137C299.052 122.792 297.903 115.533 296.052 108.511C294.75 102.952 292.848 97.6195 290.394 92.6469C289.983 91.8599 289.53 91.1052 289.037 90.3877C287.932 88.5705 286.405 87.1803 284.645 86.3892C282.701 85.8664 280.707 85.6524 278.716 85.7528C274.335 85.5795 269.955 85.3273 265.576 84.9964C256.764 84.3299 247.974 83.3458 239.207 82.0441C234.221 81.3021 229.248 80.4558 224.286 79.505C224.134 79.4817 223.98 79.4987 223.834 79.555C225.733 79.6146 227.536 80.5609 228.857 82.1907L228.893 82.244C230.538 84.9614 231.621 88.1047 232.055 91.4173C233.57 99.277 234.644 107.248 235.272 115.279C235.618 119.277 235.897 123.302 236.159 127.321C236.391 130.87 236.664 134.425 236.681 137.984C236.712 144.288 235.844 151.312 231.938 155.977C231.018 157.098 229.885 157.938 228.637 158.426V158.719C229.094 158.743 229.549 158.786 230.004 158.776C232.456 158.709 234.884 158.184 237.2 157.22C243.327 154.661 248.389 149.371 251.325 142.459C254.153 135.399 255.585 127.659 255.511 119.834C255.192 116.67 255.821 113.474 257.286 110.81C257.657 110.271 258.134 109.849 258.674 109.58C259.214 109.312 259.801 109.206 260.383 109.271C261.144 109.435 261.866 109.793 262.5 110.32C263.135 110.848 263.667 111.532 264.061 112.326C266.964 117.727 268.607 123.954 268.821 130.366C269.234 127.005 269.321 123.598 269.081 120.213C268.815 116.675 267.197 111.607 269.594 108.621C271.991 105.635 275.49 107.955 277.424 110.37C278.593 111.954 279.573 113.723 280.334 115.629C281.221 117.65 281.992 119.74 282.642 121.886C282.706 122.103 282.753 122.323 282.818 122.553L282.513 115.852C282.19 113.73 282.563 111.541 283.557 109.741C284.952 107.871 286.878 108.894 288.172 110.32C289.313 111.624 290.367 113.031 291.326 114.529C295.357 120.887 297.618 128.595 297.791 136.568C297.808 137.491 297.791 138.414 297.757 139.337C297.657 141.929 297.372 144.525 297.082 147.084C296.877 148.866 296.64 150.644 296.373 152.415C296.652 151.805 296.904 151.186 297.132 150.552C299.239 144.059 300.041 137.067 299.476 130.137Z" fill="#232323"/>
<path d="M218.069 118.934L218.114 119.051C218.151 119.141 218.172 119.239 218.178 119.339C218.183 119.439 218.171 119.539 218.144 119.634C218.116 119.729 218.073 119.816 218.017 119.891C217.961 119.966 217.894 120.027 217.818 120.07C217.784 120.09 217.748 120.107 217.712 120.12C217.598 120.209 217.468 120.263 217.332 120.277C215.96 120.407 214.584 120.49 213.211 120.553C213.269 122.306 213.377 124.058 213.537 125.808C213.777 128.474 214.115 131.16 214.545 133.805C214.955 132.906 215.362 132.006 215.759 131.11C216.979 128.335 218.209 125.564 219.448 122.796C219.448 122.776 219.47 122.769 219.478 122.753L219.506 122.713C219.588 122.556 219.711 122.437 219.856 122.374C220.001 122.31 220.16 122.306 220.307 122.363C220.418 122.383 220.524 122.433 220.618 122.508C220.711 122.582 220.79 122.681 220.848 122.796C224.007 128.554 227.132 134.338 230.361 140.04C230.43 140.187 230.467 140.354 230.466 140.524C230.465 140.693 230.428 140.86 230.357 141.007C230.287 141.154 230.185 141.276 230.063 141.363C229.941 141.449 229.802 141.496 229.66 141.499L227.495 141.612L216.283 142.212C217.035 145.824 218.361 149.231 220.19 152.245C221.641 154.639 223.796 156.29 226.223 156.867C227.51 156.845 228.766 156.397 229.853 155.574C230.94 154.75 231.814 153.583 232.378 152.202C234.744 146.711 235.638 140.483 234.937 134.365C234.658 128.427 234.228 122.486 233.715 116.562C233.638 116.685 233.539 116.786 233.426 116.859C233.313 116.932 233.188 116.975 233.059 116.985C229.778 117.018 226.502 117.455 223.223 117.138C223.007 117.128 222.802 117.018 222.653 116.831C222.503 116.645 222.419 116.397 222.419 116.138C222.422 115.977 222.458 115.82 222.523 115.679C225.266 110.014 228.008 104.389 230.4 98.5081C230.463 98.3264 230.581 98.1789 230.729 98.0941C230.878 98.0092 231.048 97.9929 231.206 98.0483C231.335 98.052 231.461 98.0981 231.569 98.1816C231.176 95.6925 230.726 93.2169 230.218 90.7576C229.91 87.766 228.782 84.9801 227.01 82.8339C226.227 82.093 225.286 81.63 224.294 81.498C223.301 81.366 222.298 81.5703 221.398 82.0874C220.702 82.8063 220.074 83.6142 219.526 84.4966C217.223 88.7083 215.709 93.4637 215.086 98.4381C214.481 102.027 214.096 105.652 213.75 109.284C215.408 112.285 216.829 115.463 217.997 118.777C218.026 118.826 218.05 118.878 218.069 118.934Z" fill="#232323"/>
<path d="M213.538 125.793C213.38 124.044 213.271 122.293 213.211 120.538C212.67 120.564 212.126 120.588 211.585 120.604C211.633 121.891 211.705 123.175 211.802 124.456C212.11 128.497 212.627 132.511 213.351 136.475C213.741 135.576 214.14 134.687 214.545 133.81C214.115 131.144 213.778 128.472 213.538 125.793Z" fill="white"/>
<path d="M218.114 119.035L218.069 118.918C218.054 118.861 218.034 118.806 218.008 118.755C216.84 115.444 215.418 112.269 213.761 109.271C213.314 108.458 212.849 107.656 212.366 106.866C211.894 106.093 211.425 105.313 210.917 104.563C210.764 104.38 210.555 104.278 210.338 104.278C210.121 104.278 209.913 104.38 209.759 104.563C209.714 104.616 209.676 104.677 209.645 104.743C207.234 109.416 205.073 114.268 203.177 119.268C203.124 119.38 203.09 119.504 203.078 119.632C203.065 119.76 203.074 119.889 203.103 120.013C203.133 120.137 203.183 120.253 203.25 120.354C203.317 120.454 203.4 120.538 203.495 120.601C203.612 120.678 203.743 120.72 203.877 120.724C206.447 120.724 209.017 120.707 211.584 120.621C212.126 120.601 212.67 120.581 213.211 120.554C214.584 120.491 215.96 120.407 217.332 120.277C217.468 120.264 217.598 120.21 217.712 120.121C217.875 120.066 218.014 119.935 218.097 119.759C218.18 119.582 218.201 119.373 218.156 119.178C218.145 119.129 218.131 119.081 218.114 119.035ZM213.228 101.394C213.183 101.251 213.122 101.118 213.074 100.974C211.461 96.7115 209.625 92.5737 207.577 88.5857C207.466 88.365 207.286 88.2061 207.077 88.1436C206.868 88.0812 206.646 88.1203 206.461 88.2524C206.347 88.3354 206.251 88.4496 206.182 88.5857C204.52 93.0525 202.784 97.4795 200.975 101.864C200.907 102.012 200.872 102.178 200.873 102.347C200.875 102.516 200.912 102.681 200.983 102.827C201.053 102.973 201.154 103.096 201.275 103.182C201.396 103.268 201.534 103.316 201.676 103.32C205.342 102.987 209.023 103.244 212.667 102.587C212.734 102.57 212.799 102.541 212.859 102.501C213.005 102.435 213.124 102.305 213.192 102.137C213.247 102.026 213.28 101.901 213.286 101.771C213.292 101.642 213.272 101.512 213.228 101.394ZM230.361 140.027C227.132 134.326 224.007 128.541 220.848 122.783C220.79 122.668 220.711 122.57 220.618 122.495C220.524 122.42 220.418 122.371 220.307 122.35C220.16 122.294 220.001 122.298 219.856 122.361C219.711 122.424 219.588 122.544 219.506 122.7L219.478 122.74C219.478 122.74 219.456 122.763 219.448 122.783C218.209 125.549 216.979 128.32 215.759 131.097C215.362 131.993 214.955 132.893 214.545 133.792C214.135 134.692 213.744 135.575 213.351 136.458C212.669 137.988 212.056 139.559 211.515 141.166C211.486 141.29 211.479 141.419 211.492 141.546C211.506 141.672 211.541 141.795 211.594 141.906C211.647 142.017 211.719 142.114 211.804 142.192C211.889 142.27 211.986 142.326 212.089 142.359C212.156 142.382 212.226 142.393 212.296 142.393L214.598 142.273L216.272 142.183L227.484 141.583L229.649 141.47C229.757 141.467 229.864 141.44 229.962 141.388C230.061 141.337 230.151 141.263 230.225 141.17C230.3 141.077 230.359 140.967 230.398 140.847C230.437 140.727 230.456 140.599 230.453 140.47C230.453 140.316 230.421 140.164 230.361 140.027ZM231.893 98.7186C231.878 98.6057 231.844 98.4976 231.793 98.4012C231.741 98.3048 231.674 98.2223 231.594 98.1588C231.485 98.075 231.358 98.0288 231.229 98.0255C231.071 97.9703 230.901 97.9868 230.753 98.0716C230.605 98.1565 230.488 98.3039 230.425 98.4854C228.034 104.367 225.291 110.004 222.548 115.656C222.446 115.884 222.423 116.15 222.482 116.399C222.541 116.647 222.679 116.859 222.866 116.989C222.983 117.066 223.114 117.108 223.248 117.112C226.527 117.428 229.803 116.992 233.084 116.959C233.213 116.949 233.338 116.906 233.451 116.833C233.564 116.76 233.663 116.659 233.74 116.535C233.795 116.462 233.837 116.375 233.864 116.281C233.89 116.187 233.9 116.088 233.893 115.989C233.268 110.221 232.855 104.427 231.893 98.7186Z" fill="#FF6F29"/>
<path d="M189.312 35.8845C188.603 33.1288 187.026 30.8087 184.914 29.4119C182.802 28.015 180.319 27.6502 177.986 28.3939C179.516 23.6197 179.986 18.4545 179.351 13.3994C178.943 11.3105 178.188 9.34073 177.13 7.60739C176.072 5.87405 174.733 4.41253 173.192 3.30978C170.125 1.10802 166.608 -0.0371829 163.03 0.000984847C158.993 0.13712 155.043 1.42839 151.511 3.76627C147.324 6.56094 143.396 9.87471 139.791 13.6527C139.061 11.8621 138.031 10.2687 136.767 8.9703C135.502 7.67189 134.028 6.69585 132.436 6.10209C128.412 4.5925 124.061 4.93603 120.239 7.06507C116.012 9.48313 112.156 12.7328 108.832 16.6782C105.828 19.9837 102.962 23.4602 100.235 27.1077C88.4788 42.8053 78.6622 62.095 76.254 83.2806C75.4921 89.9951 75.5956 96.8094 76.561 103.487C77.0769 103.365 77.5989 103.284 78.1236 103.243C78.8431 103.175 79.5664 103.191 80.2834 103.29C82.4347 103.726 84.4955 104.654 86.3525 106.022C86.3999 104.896 86.4669 103.776 86.5757 102.657C88.0589 89.3258 92.9181 76.8543 100.503 66.9132C107.763 56.8014 116.853 48.7935 127.087 43.4951C131.259 41.4852 135.606 40.04 140.048 39.1867C144.677 38.2008 149.378 37.7766 154.078 37.9205C158.258 37.8517 162.392 38.9517 166.152 41.1326C170.674 44.4876 174.476 49.0588 177.255 54.4811C178.371 56.4637 179.37 58.5263 180.325 60.6188C180.662 61.3519 181 62.085 181.321 62.828C181.974 60.8587 182.716 58.9328 183.508 57.0335C185.64 52.4705 187.435 47.6941 188.872 42.7587C189.506 40.5494 189.658 38.1834 189.312 35.8845Z" fill="#232323"/>
<path d="M108.305 151.096C100.603 146.989 94.3625 139.77 90.6804 130.71C90.5213 131.116 90.3288 131.503 90.1418 131.893C89.3081 137.46 88.6565 143.065 88.1885 148.693C87.9095 152.005 87.6668 155.321 87.424 158.636C87.0027 161.945 87.2174 165.324 88.0518 168.519C89.1441 171.605 90.8718 174.311 93.0745 176.386C95.2229 178.707 97.5199 180.824 99.9445 182.717C104.806 186.546 110.336 188.995 116.112 189.878C122.345 190.728 128.651 190.425 134.808 188.982C137.803 188.299 140.774 187.468 143.712 186.493C146.413 185.841 149.013 184.692 151.419 183.087C152.999 181.825 154.351 180.199 155.397 178.304C156.442 176.409 157.16 174.283 157.508 172.051L158.903 163.971L161.386 149.67C153.273 153.754 144.605 156.039 135.807 156.414C126.423 157.077 117.033 155.261 108.305 151.096Z" fill="#FFE497"/>
<path d="M85.73 165.251C86.0645 168.31 87.0481 171.216 88.5874 173.694C90.4714 176.4 92.6344 178.81 95.0248 180.868C99.5559 185.283 104.782 188.569 110.394 190.531C122.795 194.53 136.005 191.288 148.017 187.009C150.656 186.066 153.045 184.325 154.954 181.954C156.507 180.041 157.7 177.755 158.453 175.247C159.05 172.872 159.516 170.454 159.848 168.006L163.197 148.68C162.67 148.97 162.145 149.273 161.615 149.546L161.372 149.66C160.546 154.429 159.718 159.196 158.889 163.961L157.493 172.041C157.146 174.273 156.428 176.399 155.383 178.294C154.337 180.189 152.985 181.816 151.405 183.077C148.999 184.682 146.399 185.831 143.698 186.483C140.76 187.459 137.789 188.289 134.794 188.972C128.637 190.415 122.331 190.718 116.098 189.868C110.323 188.986 104.793 186.537 99.9331 182.708C97.5065 180.816 95.2085 178.699 93.0604 176.377C90.8577 174.302 89.1299 171.595 88.0377 168.509C87.2033 165.315 86.9886 161.935 87.4098 158.626C87.6526 155.294 87.8954 151.995 88.1744 148.683C88.6516 143.052 89.2906 137.451 90.1277 131.883C89.5242 133.141 88.8095 134.318 87.9958 135.395C87.5952 138.311 87.2491 141.237 86.9578 144.172C86.6313 147.504 86.3635 150.836 86.1207 154.151C85.7805 157.191 85.6043 160.254 85.5933 163.321C85.61 163.764 85.5933 164.211 85.6435 164.654C85.6575 164.861 85.7049 165.057 85.73 165.251Z" fill="#232323"/>
<path d="M185.33 117.562L185.258 117.535C185.193 117.517 185.13 117.489 185.071 117.452C184.891 117.354 184.751 117.174 184.681 116.953C184.612 116.732 184.618 116.487 184.699 116.272C184.724 116.137 184.776 116.011 184.85 115.905C186.167 113.269 187.442 110.603 188.673 107.908C188.796 105.046 188.751 102.177 188.539 99.3215H179.135C179.027 99.3198 178.92 99.2925 178.821 99.2413C178.722 99.19 178.632 99.1158 178.557 99.0228C178.481 98.9299 178.422 98.8202 178.383 98.6999C178.343 98.5796 178.324 98.4511 178.326 98.3219C178.327 98.2408 178.336 98.1602 178.354 98.082C179.853 93.4337 181.658 88.9387 183.159 84.2937C183.206 84.1145 183.295 83.955 183.415 83.834C183.535 83.7131 183.682 83.6358 183.838 83.6113C183.993 83.5867 184.152 83.616 184.294 83.6956C184.437 83.7752 184.557 83.9018 184.641 84.0604C185.59 86.103 186.513 88.1623 187.448 90.2115C187.423 90.0549 187.406 89.895 187.378 89.735C186.238 82.83 184.491 76.0875 182.169 69.619C180.043 63.4364 177.273 57.5981 173.926 52.2421C171.206 47.5214 167.417 43.823 163.001 41.5793C158.93 40.1072 154.67 39.5226 150.425 39.8532C141.25 40.0398 132.216 42.5855 123.939 47.3172C114.303 53.1846 105.871 61.5186 99.2436 71.7249C92.3475 81.9453 88.3752 94.5352 87.909 107.648C87.9068 107.777 87.8835 107.904 87.8402 108.022C87.7969 108.14 87.7347 108.246 87.6569 108.335C87.5792 108.425 87.4875 108.494 87.3871 108.541C87.2867 108.588 87.1796 108.611 87.0719 108.608C86.9363 108.604 86.8033 108.562 86.684 108.485C84.5491 106.711 82.0941 105.564 79.5183 105.136C77.3464 105.007 75.1911 105.648 73.3236 106.979C65.4714 112.417 65.4575 125.039 70.1956 133.212C72.5004 137.188 76.5744 140.723 80.7991 139.24C82.8409 138.375 84.6685 136.912 86.1148 134.985C87.8211 133.091 89.0897 130.704 89.7981 128.054C89.9711 127.311 90.9868 127.035 91.2826 127.824C93.2046 133.065 95.9594 137.811 99.3943 141.799C103.15 145.993 107.649 149.122 112.557 150.956C121.05 154.093 129.975 155.213 138.828 154.255C147.355 153.488 155.69 150.843 163.412 146.454C167.308 144.226 170.996 141.512 174.414 138.357C177.993 135.177 181.133 131.347 183.72 127.008C185.319 124.165 186.536 121.041 187.325 117.748C186.697 117.701 186.07 117.671 185.444 117.602C185.405 117.593 185.367 117.579 185.33 117.562ZM81.0809 122.933C79.4286 123.128 77.8331 123.758 76.4098 124.779C76.2262 124.885 76.0161 124.904 75.8211 124.833C75.6261 124.762 75.4605 124.607 75.3572 124.397C75.2539 124.187 75.2204 123.939 75.2634 123.701C75.3065 123.463 75.4228 123.253 75.5894 123.113C77.2656 121.93 79.1418 121.21 81.0809 121.004C82.1217 120.884 82.1106 122.823 81.0809 122.94V122.933ZM111.736 81.8346C107.927 83.4015 104.779 86.6772 102.958 90.9679C102.48 92.0808 101.082 91.0979 101.562 89.9916C103.605 85.2628 107.107 81.6674 111.329 79.9653C112.297 79.5621 112.724 81.4347 111.736 81.8346ZM115.14 105.093C115.14 105.35 115.055 105.597 114.903 105.778C114.75 105.96 114.544 106.062 114.328 106.062C114.113 106.062 113.907 105.96 113.754 105.778C113.602 105.597 113.516 105.35 113.516 105.093V98.3652C113.516 98.1081 113.602 97.8614 113.754 97.6796C113.907 97.4977 114.113 97.3956 114.328 97.3956C114.544 97.3956 114.75 97.4977 114.903 97.6796C115.055 97.8614 115.14 98.1081 115.14 98.3652V105.093ZM161.333 102.654V102.677C160.479 107.268 159.093 111.695 157.214 115.829C155.616 119.512 153.183 122.585 150.194 124.697C147.204 126.809 143.777 127.875 140.304 127.774C133.094 127.135 127.095 121.02 122.769 114.543C122.658 114.405 122.583 114.232 122.553 114.044C122.523 113.856 122.539 113.662 122.6 113.485C122.661 113.308 122.764 113.156 122.896 113.048C123.028 112.94 123.184 112.881 123.344 112.877C136.194 112.928 148.841 109.048 160.08 101.607C160.164 101.539 160.259 101.494 160.359 101.474C160.5 101.434 160.647 101.444 160.783 101.503C160.919 101.562 161.037 101.668 161.123 101.807C161.274 102.048 161.344 102.347 161.322 102.647L161.333 102.654ZM158.101 65.4872C157.181 66.077 156.363 64.4043 157.284 63.8212C158.588 62.9721 160.025 62.4555 161.505 62.3041C162.985 62.1527 164.475 62.3697 165.881 62.9415C166.866 63.3447 166.439 65.214 165.451 64.8075C164.253 64.3059 162.981 64.1079 161.716 64.226C160.45 64.3442 159.219 64.776 158.101 65.4939V65.4872ZM167.474 90.7147C167.675 91.9342 166.11 92.454 165.909 91.2311C165.505 88.7698 165.1 86.3096 164.692 83.8505C164.491 82.6276 166.057 82.1111 166.258 83.334L167.474 90.7147ZM164.982 117.808C164.29 118.748 163.146 117.372 163.836 116.439C165.304 114.392 166.21 111.855 166.429 109.172C166.648 106.489 166.171 103.791 165.061 101.444C164.972 101.225 164.956 100.974 165.015 100.741C165.074 100.508 165.205 100.31 165.38 100.187C165.556 100.064 165.764 100.024 165.963 100.075C166.163 100.127 166.338 100.265 166.456 100.464C167.74 103.184 168.288 106.312 168.023 109.418C167.758 112.525 166.694 115.457 164.977 117.811L164.982 117.808ZM171.573 121.174C171.113 122.293 169.712 121.31 170.178 120.197C171.574 116.765 172.276 112.99 172.23 109.175C172.184 105.36 171.391 101.611 169.913 98.2286C169.425 97.1257 170.828 96.1494 171.308 97.2523C172.922 100.935 173.787 105.019 173.833 109.175C173.879 113.331 173.105 117.441 171.573 121.174Z" fill="#FFE497"/>
<path d="M90.6801 130.709C94.3636 139.771 100.607 146.99 108.31 151.095C117.036 155.255 126.424 157.068 135.804 156.403C144.602 156.029 153.27 153.743 161.383 149.659L161.626 149.546C162.156 149.273 162.681 148.969 163.208 148.679C170.968 144.619 177.856 138.51 183.355 130.813C185.947 126.994 187.864 122.588 188.991 117.861C188.433 117.841 187.875 117.787 187.317 117.747C186.527 121.04 185.311 124.164 183.712 127.007C181.124 131.347 177.984 135.176 174.406 138.357C170.988 141.511 167.3 144.225 163.403 146.454C155.682 150.843 147.347 153.487 138.82 154.254C129.966 155.212 121.041 154.092 112.548 150.955C107.641 149.122 103.142 145.992 99.3861 141.799C95.9512 137.81 93.1965 133.064 91.2745 127.824C90.9787 127.034 89.963 127.311 89.79 128.054C89.0816 130.704 87.813 133.091 86.1066 134.984C84.6604 136.911 82.8328 138.374 80.7909 139.24C76.5635 140.722 72.4895 137.187 70.1874 133.212C65.4438 125.038 65.4633 112.416 73.3155 106.978C75.1829 105.647 77.3383 105.006 79.5102 105.135C82.0899 105.561 84.5489 106.709 86.687 108.484C86.8775 108.606 87.0999 108.635 87.308 108.565C87.516 108.496 87.6934 108.333 87.8032 108.111C87.8701 107.97 87.9056 107.81 87.9065 107.648C88.375 94.5345 92.3481 81.945 99.2438 71.7242C105.872 61.5179 114.304 53.1838 123.939 47.3164C132.216 42.5848 141.25 40.039 150.425 39.8525C154.67 39.5218 158.93 40.1065 163.002 41.5785C167.417 43.8223 171.206 47.5207 173.926 52.2413C177.274 57.5973 180.043 63.4356 182.169 69.6183C184.496 76.0957 186.243 82.8485 187.381 89.7643C187.409 89.9242 187.426 90.0975 187.451 90.2408C188.206 91.9046 188.979 93.5551 189.77 95.1923L189.686 94.4226C188.368 83.4168 185.546 72.7442 181.332 62.8308C181.011 62.0877 180.673 61.3547 180.335 60.6216C179.38 58.5283 178.356 56.4808 177.266 54.4838C174.487 49.0616 170.685 44.4904 166.163 41.1354C162.403 38.9545 158.268 37.8544 154.089 37.9232C149.389 37.7794 144.688 38.2036 140.059 39.1894C135.617 40.0427 131.27 41.4879 127.098 43.4978C116.864 48.7953 107.773 56.8034 100.513 66.916C92.927 76.8562 88.0657 89.3278 86.581 102.66C86.4722 103.779 86.4052 104.899 86.3578 106.025C84.5008 104.657 82.4401 103.729 80.2887 103.293C79.57 103.192 78.8448 103.175 78.1233 103.243C77.6005 103.284 77.0804 103.365 76.5663 103.486C75.6792 103.692 74.8124 104.007 73.9796 104.426C71.8951 105.512 70.0553 107.171 68.6106 109.269C67.1659 111.367 66.1572 113.842 65.667 116.494C64.7075 122.318 65.6639 128.359 68.3374 133.362C70.6925 137.877 74.9088 142.075 79.6385 141.472C82.3116 140.962 84.771 139.419 86.6396 137.08C87.114 136.547 87.5688 135.984 88.0097 135.414C88.8233 134.338 89.538 133.16 90.1416 131.902C90.3229 131.502 90.5155 131.116 90.6801 130.709Z" fill="#232323"/>
<path d="M188.673 107.938C189.231 106.745 189.789 105.559 190.347 104.379C190.334 102.7 190.267 101.024 190.144 99.3511H188.539C188.751 102.206 188.796 105.075 188.673 107.938ZM113.517 98.3648V105.092C113.517 105.349 113.602 105.596 113.755 105.778C113.907 105.96 114.113 106.062 114.329 106.062C114.544 106.062 114.751 105.96 114.903 105.778C115.055 105.596 115.141 105.349 115.141 105.092V98.3648C115.141 98.1076 115.055 97.861 114.903 97.6791C114.751 97.4973 114.544 97.3951 114.329 97.3951C114.113 97.3951 113.907 97.4973 113.755 97.6791C113.602 97.861 113.517 98.1076 113.517 98.3648ZM164.693 83.8501L165.909 91.2307C166.11 92.4536 167.676 91.9338 167.475 90.7142C167.067 88.2551 166.662 85.7949 166.258 83.3336C166.057 82.1107 164.492 82.6138 164.693 83.8501ZM111.304 79.9648C107.082 81.667 103.58 85.2623 101.538 89.9912C101.066 91.0974 102.464 92.0804 102.933 90.9675C104.755 86.6754 107.906 83.3995 111.717 81.8341C112.724 81.4343 112.297 79.5616 111.304 79.9648ZM165.881 62.9344C164.475 62.3626 162.985 62.1456 161.505 62.297C160.026 62.4484 158.588 62.965 157.284 63.8141C156.363 64.4038 157.181 66.0766 158.102 65.4801C159.22 64.7622 160.451 64.3305 161.716 64.2123C162.982 64.0941 164.254 64.2921 165.452 64.7937C166.439 65.2069 166.858 63.3376 165.881 62.9344ZM161.135 101.814C161.049 101.674 160.931 101.569 160.795 101.509C160.659 101.45 160.511 101.44 160.37 101.48C160.27 101.5 160.175 101.546 160.091 101.614C148.845 109.062 136.188 112.944 123.328 112.889C123.167 112.892 123.01 112.951 122.877 113.058C122.744 113.166 122.641 113.318 122.58 113.496C122.518 113.673 122.502 113.868 122.533 114.057C122.564 114.245 122.64 114.419 122.753 114.556C127.092 121.033 133.077 127.148 140.302 127.787C143.775 127.888 147.201 126.822 150.191 124.71C153.181 122.598 155.613 119.525 157.212 115.842C159.09 111.708 160.476 107.281 161.33 102.69V102.667C161.353 102.367 161.283 102.068 161.132 101.827L161.135 101.814ZM81.0812 120.98C79.142 121.186 77.2659 121.907 75.5897 123.089C75.4231 123.229 75.3067 123.439 75.2637 123.677C75.2207 123.915 75.2541 124.163 75.3574 124.373C75.4607 124.583 75.6263 124.739 75.8213 124.809C76.0163 124.88 76.2265 124.861 76.4101 124.755C77.835 123.742 79.4304 123.12 81.0812 122.932C82.1108 122.799 82.122 120.86 81.0812 120.98ZM165.061 101.44C166.171 103.787 166.649 106.486 166.429 109.168C166.21 111.851 165.305 114.388 163.836 116.435C163.147 117.368 164.291 118.744 164.983 117.804C166.7 115.45 167.764 112.518 168.029 109.411C168.294 106.305 167.746 103.177 166.462 100.457C166.344 100.258 166.169 100.119 165.969 100.068C165.77 100.017 165.562 100.057 165.386 100.18C165.211 100.303 165.08 100.501 165.021 100.734C164.962 100.967 164.978 101.218 165.066 101.437L165.061 101.44ZM169.908 98.2281C171.385 101.611 172.179 105.36 172.225 109.175C172.271 112.99 171.568 116.765 170.173 120.197C169.712 121.31 171.113 122.293 171.568 121.173C173.1 117.441 173.874 113.331 173.828 109.175C173.782 105.019 172.917 100.934 171.303 97.2518C170.823 96.1489 169.419 97.1252 169.908 98.2281Z" fill="#232323"/>
<path d="M191.096 97.8756C190.641 96.9892 190.203 96.0895 189.767 95.1899C188.977 93.5505 188.205 91.9 187.451 90.2383C186.517 88.1891 185.593 86.1299 184.644 84.0873C184.561 83.9274 184.441 83.7995 184.298 83.7191C184.156 83.6386 183.997 83.6089 183.84 83.6335C183.684 83.6581 183.537 83.736 183.417 83.8578C183.297 83.9797 183.208 84.1403 183.163 84.3205C181.661 88.9655 179.856 93.4605 178.357 98.1055C178.33 98.2295 178.323 98.3589 178.337 98.4862C178.351 98.6135 178.386 98.7363 178.44 98.8474C178.494 98.9585 178.565 99.0559 178.651 99.1338C178.736 99.2118 178.834 99.2688 178.938 99.3017C179.004 99.3212 179.071 99.3324 179.139 99.335H190.392C190.612 99.3238 190.819 99.2098 190.969 99.0178C191.119 98.8258 191.199 98.5711 191.193 98.3087C191.188 98.1575 191.155 98.0096 191.096 97.8756ZM199.506 116.136C197.435 111.574 195.031 107.24 192.321 103.184C192.205 102.963 192.022 102.805 191.811 102.743C191.599 102.68 191.376 102.719 191.188 102.85C191.073 102.932 190.977 103.047 190.909 103.184C190.716 103.57 190.538 103.97 190.351 104.363C189.779 105.543 189.221 106.729 188.676 107.922C187.429 110.588 186.182 113.283 184.854 115.919C184.779 116.025 184.728 116.151 184.703 116.286C184.622 116.501 184.615 116.746 184.684 116.967C184.754 117.188 184.894 117.367 185.074 117.465C185.133 117.502 185.196 117.53 185.261 117.548C185.284 117.56 185.309 117.569 185.333 117.575C185.369 117.592 185.405 117.606 185.442 117.615C186.067 117.685 186.695 117.715 187.323 117.762C187.881 117.802 188.439 117.855 188.997 117.875C192.27 118.005 195.557 117.845 198.817 117.608C199.033 117.598 199.237 117.488 199.387 117.302C199.537 117.115 199.62 116.867 199.62 116.609C199.616 116.442 199.576 116.279 199.506 116.136ZM197.474 142.926C195.5 137.1 193 131.548 190.019 126.368C189.958 126.244 189.873 126.139 189.771 126.063C189.669 125.987 189.553 125.942 189.433 125.932C189.273 125.867 189.099 125.877 188.946 125.962C188.793 126.046 188.674 126.198 188.612 126.385C186.425 132.003 183.386 137.081 181.198 142.713C181.146 142.825 181.112 142.949 181.1 143.077C181.088 143.204 181.096 143.334 181.126 143.458C181.155 143.581 181.205 143.697 181.272 143.798C181.339 143.899 181.422 143.983 181.516 144.045C181.633 144.124 181.764 144.166 181.898 144.169H196.688C196.796 144.167 196.903 144.14 197.002 144.089C197.102 144.038 197.192 143.964 197.267 143.871C197.343 143.778 197.402 143.668 197.441 143.547C197.48 143.427 197.499 143.298 197.497 143.169C197.496 143.087 197.489 143.006 197.474 142.926Z" fill="#FF6F29"/>
<path d="M250.231 242.802C245.185 246.015 240.285 249.545 235.551 253.378C234.683 254.064 235.495 255.744 236.369 255.044C243.488 249.094 251.121 244.073 259.138 240.069C259.518 239.893 259.892 239.7 260.277 239.53C260.852 239.276 261.432 239.047 262.012 238.813C268.756 236.268 275.7 234.555 282.737 233.702C288.446 232.875 294.177 232.226 299.892 231.506C300.919 231.376 300.93 229.437 299.892 229.567C290.572 230.74 281.16 231.566 271.946 233.698C269.143 234.345 266.372 235.174 263.645 236.184C262.73 236.52 261.82 236.877 260.916 237.257C257.248 238.798 253.677 240.651 250.231 242.802ZM340.813 225.175C348.828 225.152 356.518 221.389 362.241 214.689C364.697 211.399 366.556 207.537 367.699 203.346C368.842 199.156 369.245 194.727 368.882 190.341C368.436 184.418 367.113 178.636 364.975 173.264C364.54 172.131 363.142 173.114 363.58 174.24C367.152 182.692 368.171 192.358 366.465 201.604C365.578 205.514 363.991 209.149 361.813 212.255C359.635 215.362 356.918 217.867 353.85 219.597C349.755 221.85 345.32 223.083 340.813 223.222C339.772 223.289 339.767 225.228 340.813 225.175Z" fill="#232323"/>
<path d="M263.643 286.607C259.524 287.073 255.411 287.602 251.304 288.193C251.26 288.203 251.218 288.22 251.178 288.243C251.061 288.258 250.949 288.304 250.849 288.379C250.75 288.453 250.666 288.554 250.603 288.672C246.594 295.926 245.366 305.293 244.777 313.787C244.561 316.882 244.453 319.987 244.451 323.093V324.499C244.478 329.958 244.983 335.397 245.957 340.73C246.248 342.335 246.638 343.912 247.124 345.448C247.276 346.145 247.535 346.801 247.888 347.384C248.323 347.712 248.814 347.916 249.325 347.981C249.858 348.154 250.394 348.314 250.927 348.507C254.655 349.747 258.363 351.066 262.089 352.386C262.262 351.983 262.423 351.576 262.599 351.176C262.663 351.054 262.751 350.953 262.855 350.88C262.959 350.806 263.076 350.764 263.196 350.756C263.3 350.724 263.408 350.716 263.515 350.733L266.983 351.806L289.259 358.694C286.73 353.564 285.925 347.48 287.007 341.67C287.512 338.841 288.603 335.322 291.382 334.972C292.276 334.905 293.168 335.12 293.97 335.596C294.772 336.071 295.455 336.79 295.95 337.681C295.665 325.546 296.743 313.42 299.156 301.628C300.116 297.263 301.947 289.965 305.432 286.473C306.316 285.557 307.384 284.931 308.532 284.654C293.549 284.064 278.55 284.717 263.643 286.607Z" fill="#232323"/>
<path d="M344.45 143.868C340.031 138.609 334.929 134.241 329.34 130.932C324.09 128.07 318.628 125.8 313.024 124.155C309.433 123.002 305.825 121.906 302.236 120.726C302.031 120.666 301.815 120.705 301.632 120.833C301.45 120.961 301.317 121.168 301.261 121.412C301.205 121.655 301.231 121.915 301.333 122.136C301.435 122.357 301.605 122.522 301.807 122.595C313.144 126.317 324.987 129.023 334.912 136.98C337.914 139.422 340.722 142.186 343.303 145.237C344.048 146.11 345.197 144.741 344.45 143.868ZM373.458 155.803L385.351 137.683C385.987 136.714 384.846 135.351 384.202 136.314L372.312 154.43C371.673 155.403 372.814 156.783 373.458 155.803ZM398.991 157.276L378.732 160.568C377.703 160.738 378.141 162.604 379.165 162.438L399.423 159.145C400.453 158.975 400.015 157.109 398.991 157.276ZM530.1 404.279C529.311 396.581 527.304 389.132 524.187 382.327C520.635 373.8 515.972 366.026 512.311 357.576C510.866 354.031 509.624 350.373 508.595 346.627C505.45 336.041 502.76 325.255 500.159 314.459C499.847 315.329 499.499 316.18 499.116 317.008C494.802 326.338 486.076 332.735 477.052 329.723C476.706 330.859 476.335 331.986 475.922 333.089C475.877 334.861 475.83 336.634 475.807 338.42C475.71 346.274 475.905 354.128 475.86 361.978C475.843 369.549 475.37 377.11 474.443 384.6C474.354 385.299 474.264 385.993 474.164 386.676C481.247 390.557 487.371 396.559 491.939 404.099C497.72 413.29 502.536 423.292 506.281 433.882C508.101 438.827 509.791 443.838 511.349 448.91C511.572 449.626 511.809 450.332 512.027 451.049C513.994 447.87 516.212 444.911 518.18 441.719C521.212 436.884 523.774 431.654 525.817 426.128C527.058 422.727 528.091 419.222 528.906 415.642C529.849 411.965 530.253 408.121 530.1 404.279ZM492.064 278.875C491.1 273.315 489.639 267.895 487.706 262.708C484.522 255.181 480.152 248.459 474.834 242.911C472.374 240.212 469.681 237.832 466.8 235.814C463.903 233.891 460.837 232.356 457.659 231.236C451.124 228.882 444.281 227.995 437.476 228.62C436.041 228.757 434.613 228.983 433.195 229.286C423.368 220.933 409.787 220.18 398.513 224.358C392.695 226.888 387.375 230.823 382.887 235.917C376.461 242.808 370.666 250.495 365.601 258.849C359.34 268.982 353.785 279.711 348.992 290.927C346.041 297.801 343.346 304.828 340.914 311.986C341.101 312.076 341.296 312.15 341.472 312.259C342.91 313.173 344.014 314.689 344.572 316.516C345.129 318.343 345.1 320.352 344.491 322.156C343.932 324.068 342.986 325.786 341.738 327.158C340.491 328.531 338.979 329.514 337.337 330.023C337.248 330.043 337.158 330.023 337.058 330.053C336.487 330.144 335.909 330.152 335.336 330.076C334.68 332.508 334.056 334.952 333.464 337.407C333.963 337.728 334.431 338.113 334.859 338.557C335.386 339.096 335.847 339.72 336.229 340.413C337.174 342.408 337.418 344.768 336.908 346.978C336.398 349.188 335.176 351.066 333.508 352.202C332.962 352.57 332.379 352.853 331.773 353.045C331.211 353.215 330.636 353.311 330.057 353.331C328.792 360.166 327.783 367.065 327.032 374.007C326.2 381.682 325.718 389.405 325.586 397.142C325.523 401.02 325.552 404.899 325.673 408.778C325.712 412.287 325.98 415.788 326.477 419.247C327.376 424.322 329.203 429.098 331.825 433.234C334.448 437.369 337.803 440.763 341.651 443.172C342.251 443.575 342.865 443.941 343.476 444.308C343.819 443.781 344.165 443.265 344.503 442.738C347.312 438.337 349.98 433.798 352.726 429.347C361.027 415.888 370.06 402.53 381.872 393.247C385.483 390.398 389.35 388.041 393.401 386.222C392.86 383.174 392.545 380.018 392.246 376.973C391.836 372.672 391.61 368.349 391.571 364.021C391.54 361.312 391.571 358.606 391.621 355.897C390.859 355.3 390.095 354.711 389.369 354.048C382.18 347.255 376.97 337.926 374.48 327.391C371.86 316.713 371.603 305.407 373.735 294.576C374.801 289.025 376.717 283.758 379.385 279.038C382.114 274.354 385.405 270.175 389.152 266.633C392.954 262.887 397.167 259.78 401.675 257.4C406.03 255.171 410.617 253.651 415.312 252.881C424.08 251.482 432.996 252.251 441.505 255.14C445.185 256.354 448.756 257.999 452.164 260.052C455.503 262.121 458.599 264.707 461.373 267.742C469.25 275.963 474.984 286.712 477.895 298.711C480.947 294.156 484.773 289.621 489.893 289.381C490.856 289.341 491.819 289.469 492.751 289.761C493.393 289.963 494.017 290.239 494.615 290.584C493.75 286.662 492.879 282.774 492.064 278.875ZM352.081 342.518C351.462 343.518 350.053 342.538 350.686 341.539C353.123 337.191 354.137 331.926 353.535 326.744C352.958 321.133 351.216 315.783 348.468 311.18C347.879 310.144 349.285 309.181 349.863 310.2C352.758 315.101 354.581 320.788 355.165 326.744C355.781 332.273 354.69 337.881 352.095 342.518H352.081ZM360.201 345.901C359.643 346.953 358.248 345.98 358.806 344.921C360.179 342.351 361.206 339.54 361.85 336.591C362.911 331.376 362.812 325.921 361.563 320.766C360.315 315.611 357.96 310.935 354.732 307.201C353.987 306.325 355.137 304.955 355.882 305.832C357.861 308.144 359.545 310.79 360.882 313.686C363.172 318.642 364.317 324.236 364.199 329.895C364.081 335.554 362.704 341.074 360.21 345.887L360.201 345.901ZM368.734 349.293C368.229 350.386 366.829 349.406 367.339 348.313C368.844 345.078 369.946 341.598 370.61 337.983C371.697 331.558 371.458 324.913 369.912 318.623C368.366 312.333 365.559 306.587 361.736 301.883C361.013 300.98 362.16 299.611 362.883 300.514C365.202 303.393 367.182 306.636 368.768 310.154C371.487 316.166 372.908 322.893 372.903 329.726C372.898 336.559 371.467 343.282 368.74 349.289L368.734 349.293ZM384.988 172.814C383.973 172.524 383.54 174.393 384.556 174.68L398.123 178.518C399.139 178.808 399.571 176.939 398.553 176.652L384.988 172.814ZM315.75 304.915C314.735 303.645 314.106 302.005 313.963 300.257C313.819 298.509 314.171 296.754 314.961 295.272C315.067 295.042 315.195 294.836 315.312 294.606C314.908 293.145 314.404 291.726 313.805 290.364C313.394 289.394 312.871 288.496 312.251 287.698C312.037 287.413 311.79 287.165 311.517 286.962C311.31 286.772 311.067 286.645 310.809 286.592C307.823 285.796 305.549 288.671 304.087 291.647C302.15 295.969 300.788 300.624 300.049 305.445C299.033 311.148 298.349 316.927 298.001 322.742C298.162 322.689 298.333 322.699 298.489 322.772H298.52C298.551 322.78 298.582 322.791 298.612 322.806C300.121 323.88 301.391 325.371 302.316 327.155C303.241 328.938 303.794 330.96 303.927 333.052C304.129 335.234 303.669 337.431 302.63 339.243C301.591 341.054 300.043 342.361 298.266 342.925C298.166 342.95 298.064 342.95 297.964 342.925C298.456 345.174 299.173 347.345 300.099 349.389C300.653 350.721 301.467 351.875 302.472 352.753C303.478 353.631 304.644 354.209 305.875 354.437C307.276 354.405 308.648 353.954 309.867 353.127C311.085 352.301 312.111 351.123 312.851 349.702C314.356 347.082 315.444 344.153 316.063 341.062C317.095 334.509 317.64 327.86 317.69 321.193C317.703 320.978 317.772 320.774 317.889 320.609C318.005 320.444 318.162 320.328 318.337 320.277C318.323 315.645 318.05 311.02 317.519 306.432C316.873 306.028 316.278 305.517 315.75 304.915ZM313.164 325.488C312.333 326.375 311.329 326.999 310.243 327.301C309.158 327.604 308.026 327.576 306.952 327.221C305.938 326.845 304.998 326.23 304.187 325.413C303.375 324.596 302.709 323.592 302.228 322.462C301.268 319.682 301.042 316.617 301.581 313.679C301.78 312.077 302.325 310.563 303.161 309.287C303.997 308.011 305.095 307.016 306.35 306.398C308.053 305.635 309.908 305.495 311.679 305.995C312.666 306.35 313.582 306.94 314.372 307.729C315.162 308.518 315.811 309.49 316.278 310.587C317.238 313.127 317.453 315.979 316.888 318.683C316.323 321.387 315.011 323.784 313.164 325.488ZM366.343 164.344C365.792 161.093 364.241 158.208 361.996 156.256C359.801 154.276 357.399 152.648 354.849 151.415C352.177 150.193 349.724 148.376 347.619 146.06C347.462 145.883 347.252 145.787 347.035 145.795C346.818 145.802 346.613 145.912 346.464 146.1C346.372 146.22 346.305 146.365 346.27 146.522C346.235 146.679 346.233 146.845 346.263 147.003C347.068 152.68 348.475 158.211 350.449 163.464C351.942 167.326 354.305 172.521 358.136 173.504C359.096 173.636 360.069 173.542 360.998 173.226C361.928 172.91 362.796 172.379 363.553 171.662C364.31 170.946 364.942 170.058 365.412 169.05C365.882 168.041 366.182 166.933 366.293 165.786C366.338 165.307 366.351 164.825 366.332 164.344H366.343ZM359.646 160.255L361.811 162.191C362.649 162.931 361.828 164.61 360.994 163.857L358.837 161.918C358 161.188 358.806 159.505 359.64 160.252L359.646 160.255ZM336.734 223.359C335.129 223.477 333.52 223.212 332.001 222.58C330.483 221.948 329.084 220.961 327.889 219.677C325.595 217.487 322.985 215.816 320.187 214.748C318.967 214.29 317.67 214.209 316.416 214.514C315.163 214.82 313.996 215.501 313.024 216.494C311.447 218.496 310.045 220.685 308.839 223.025C308.049 224.42 307.178 225.746 306.232 226.994C305.562 227.965 304.686 228.703 303.696 229.133C303.575 229.155 303.461 229.216 303.367 229.31C303.253 229.399 303.164 229.524 303.107 229.672C303.051 229.819 303.031 229.982 303.048 230.143V230.266C303.048 230.309 303.048 230.339 303.071 230.376C303.115 230.585 303.221 230.769 303.369 230.893L303.475 230.959C303.514 230.99 303.555 231.017 303.598 231.039C306.678 231.662 309.632 232.969 312.307 234.894C313.509 236.039 314.657 237.263 315.745 238.56C316.562 239.705 317.597 240.599 318.764 241.165C324.448 243.388 328.413 236.221 331.43 231.766C332.323 230.433 333.238 229.14 334.22 227.924C335.014 226.79 336.007 225.879 337.13 225.258C337.338 225.189 337.514 225.025 337.62 224.802C337.727 224.578 337.754 224.313 337.697 224.065C337.639 223.817 337.502 223.607 337.315 223.48C337.127 223.353 336.905 223.32 336.698 223.389L336.734 223.359ZM321.167 219.603C319.09 219.822 317.16 220.971 315.764 222.819C315.058 223.742 313.911 222.366 314.617 221.449C316.32 219.243 318.661 217.892 321.167 217.667C322.21 217.561 322.202 219.5 321.167 219.603ZM232.521 256.34C227.378 258.237 222.356 260.576 217.495 263.337C215.136 264.665 212.928 266.344 210.924 268.336C209.367 269.782 208.255 271.803 207.762 274.083C207.636 275.501 207.814 276.935 208.278 278.248C208.743 279.562 209.479 280.713 210.419 281.594C211.821 283.256 213.653 284.301 215.617 284.56C217.471 284.63 219.291 283.956 220.788 282.647C224.702 278.915 227.766 274.065 229.697 268.545C231.161 264.979 232.437 261.306 233.517 257.549C233.572 257.299 233.542 257.034 233.433 256.81C233.324 256.587 233.146 256.424 232.937 256.357C232.802 256.308 232.659 256.302 232.521 256.34ZM217.643 268.076C215.142 269.639 213.114 272.097 211.842 275.106C211.37 276.219 209.969 275.236 210.446 274.13C211.853 270.827 214.084 268.127 216.831 266.403C217.757 265.82 218.575 267.492 217.643 268.076Z" fill="#232323"/>
<path d="M303.927 333.063C303.793 330.972 303.24 328.949 302.315 327.166C301.39 325.383 300.12 323.891 298.611 322.817C298.581 322.803 298.55 322.792 298.519 322.784H298.488C298.332 322.711 298.161 322.7 298 322.754L297.93 322.784C297.795 322.834 297.674 322.93 297.583 323.06C297.492 323.19 297.434 323.349 297.417 323.517V323.593C297.415 323.618 297.415 323.642 297.417 323.667L297.274 340.507C297.539 341.324 297.774 342.143 297.989 342.966C298.088 342.991 298.191 342.991 298.29 342.966C300.067 342.396 301.614 341.082 302.648 339.264C303.682 337.447 304.136 335.247 303.927 333.063ZM316.277 310.588C315.81 309.492 315.162 308.519 314.371 307.73C313.581 306.941 312.665 306.351 311.678 305.997C309.908 305.496 308.052 305.637 306.349 306.4C305.094 307.017 303.996 308.013 303.16 309.289C302.324 310.565 301.78 312.078 301.58 313.68C301.041 316.619 301.267 319.683 302.227 322.464C302.708 323.594 303.374 324.597 304.186 325.414C304.997 326.232 305.938 326.846 306.951 327.222C308.025 327.578 309.157 327.605 310.242 327.303C311.328 327 312.332 326.376 313.163 325.489C315.01 323.786 316.322 321.388 316.887 318.685C317.452 315.981 317.237 313.128 316.277 310.588ZM517.33 470.3C515.706 463.824 513.939 457.403 512.029 451.037C511.811 450.32 511.574 449.614 511.351 448.898C509.793 443.827 508.103 438.815 506.283 433.87C502.538 423.28 497.722 413.279 491.941 404.087C487.373 396.547 481.25 390.545 474.166 386.664C474.071 387.315 473.959 387.957 473.831 388.59C473.554 390.118 473.067 391.582 472.391 392.921C471.181 395.129 469.651 397.06 467.873 398.626C463.337 402.511 458.255 405.393 452.867 407.136C446.711 409.336 440.376 410.741 433.97 411.328C427.47 412.172 420.895 411.581 414.574 409.585C409.382 407.828 404.582 404.712 400.525 400.462C397.596 397.567 395.378 393.778 394.107 389.499C393.989 389.04 393.906 388.563 393.805 388.097C393.671 387.47 393.526 386.85 393.415 386.214C389.363 388.033 385.496 390.389 381.885 393.238C370.073 402.521 361.04 415.88 352.739 429.338C349.993 433.79 347.326 438.335 344.516 442.73C344.178 443.256 343.832 443.773 343.489 444.299C343.023 445.009 342.568 445.732 342.094 446.435C338.483 452.411 333.478 456.984 327.704 459.584C317.379 463.582 308.659 454.556 305.38 443.4C303.845 437.596 302.925 431.586 302.643 425.51C302.156 419.308 302.026 413.073 302.252 406.85C302.396 403.287 302.709 399.737 303.19 396.217V396.087C303.13 396.266 303.027 396.42 302.894 396.529C302.761 396.638 302.604 396.697 302.442 396.7C298.501 396.527 294.556 396.503 290.614 396.63C276.701 397.053 262.86 398.963 249.003 400.399C248.918 400.414 248.83 400.408 248.747 400.383C248.663 400.358 248.584 400.313 248.515 400.251C248.445 400.189 248.387 400.111 248.343 400.022C248.299 399.933 248.27 399.835 248.258 399.732C248.219 399.603 248.205 399.466 248.216 399.329C248.216 399.359 248.177 399.372 248.172 399.406C242.831 425.266 238.933 453.109 245.292 479.21C247.994 490.664 252.649 501.328 258.965 510.532C265.754 520.128 274.533 527.429 284.425 531.704C296.551 536.582 309.304 538.856 322.095 538.422H529.365C529.583 538.413 529.788 538.304 529.939 538.117C530.09 537.931 530.175 537.681 530.175 537.422C530.172 537.347 530.164 537.272 530.15 537.199C527.024 514.608 522.743 492.266 517.33 470.3ZM471.906 519.688L472.464 471.04C472.476 470.793 472.567 470.561 472.717 470.391C472.868 470.221 473.067 470.127 473.274 470.127C473.481 470.127 473.681 470.221 473.831 470.391C473.982 470.561 474.073 470.793 474.085 471.04L473.923 484.971L473.365 533.62C473.365 533.877 473.279 534.124 473.127 534.306C472.975 534.488 472.768 534.59 472.553 534.59C472.338 534.59 472.131 534.488 471.979 534.306C471.827 534.124 471.741 533.877 471.741 533.62L471.906 519.688ZM342.322 312.887C342.058 312.647 341.778 312.432 341.485 312.244C341.304 312.134 341.109 312.061 340.927 311.971C339.512 311.347 337.988 311.164 336.497 311.439C335.006 311.714 333.599 312.439 332.408 313.544C331.049 314.91 330.056 316.724 329.552 318.759C329.049 320.794 329.058 322.961 329.579 324.99C330.204 326.688 331.274 328.099 332.628 329.009C333.982 329.919 335.547 330.28 337.088 330.038C337.177 330.021 337.266 330.038 337.367 330.008C339.009 329.499 340.521 328.515 341.768 327.143C343.016 325.771 343.962 324.053 344.521 322.141C345.073 320.527 345.156 318.738 344.758 317.061C344.359 315.384 343.502 313.915 342.322 312.887ZM323.155 290.236C321.951 289.985 320.714 290.09 319.552 290.54C318.39 290.991 317.337 291.774 316.486 292.821C316.043 293.369 315.649 293.971 315.311 294.617C315.194 294.837 315.066 295.044 314.96 295.284C314.17 296.765 313.819 298.52 313.962 300.268C314.105 302.016 314.734 303.656 315.75 304.927C316.273 305.537 316.866 306.057 317.51 306.47C318.054 306.812 318.628 307.084 319.221 307.279C320.402 307.73 321.659 307.824 322.878 307.554C324.098 307.284 325.242 306.657 326.21 305.729C327.177 304.802 327.937 303.603 328.421 302.24C328.906 300.877 329.1 299.391 328.987 297.916C328.916 296.025 328.295 294.223 327.23 292.821C326.165 291.419 324.724 290.505 323.155 290.236Z" fill="#8A265A"/>
<path d="M325.469 338.147C325.491 337.388 325.519 336.624 325.53 335.871C325.38 333.282 324.731 330.769 323.636 328.527C322.54 326.286 321.027 324.376 319.213 322.946C319.237 329.653 318.601 336.34 317.318 342.869C315.892 348.474 312.881 355.248 307.526 356.287C302.241 357.314 298.781 351.702 297.143 346.468C296.214 343.505 295.985 339.294 293.493 337.504C292.937 337.013 292.24 336.805 291.555 336.926C290.871 337.047 290.254 337.487 289.841 338.151C289.145 339.465 288.693 340.942 288.515 342.482C287.959 345.462 287.971 348.552 288.551 351.525C289.13 354.498 290.263 357.277 291.864 359.656C291.921 359.731 291.968 359.815 292.003 359.906C292.827 361.145 293.847 362.178 295.006 362.944C296.165 363.71 297.44 364.195 298.756 364.371C299.786 364.504 299.791 366.444 298.756 366.31C295.648 365.927 292.794 364.088 290.82 361.196L287.609 360.196L263.714 352.805C262.526 355.531 261.418 358.308 260.391 361.136C256.109 373.181 252.656 385.623 250.067 398.339C253.616 397.968 257.164 397.581 260.712 397.179C274.343 395.326 288.06 394.511 301.778 394.74C302.642 388.693 304.24 382.829 306.522 377.333C308.728 372.119 311.761 367.466 315.451 363.631C317.367 362.021 319.194 360.265 320.92 358.373C322.282 356.456 323.282 354.212 323.853 351.792C323.987 351.269 324.071 350.723 324.185 350.19C323.406 349.038 322.84 347.703 322.525 346.271C322.307 344.722 322.469 343.131 322.992 341.69C323.514 340.248 324.374 339.018 325.469 338.147Z" fill="#FFCEB6"/>
<path d="M248.993 400.371C262.85 398.941 276.69 397.039 290.603 396.602C294.547 396.475 298.492 396.499 302.434 396.672C302.595 396.669 302.752 396.609 302.885 396.5C303.017 396.391 303.12 396.238 303.179 396.059C303.194 396.028 303.207 395.996 303.216 395.962C304.535 383.974 309.35 372.925 316.816 364.757C318.798 363.137 320.656 361.312 322.369 359.302C323.711 357.302 324.721 355.014 325.344 352.562C325.422 352.278 325.48 351.992 325.55 351.705C325.041 351.265 324.582 350.748 324.186 350.166C324.071 350.699 323.987 351.245 323.854 351.768C323.282 354.188 322.282 356.432 320.921 358.349C319.194 360.241 317.367 361.997 315.452 363.607C311.762 367.443 308.73 372.096 306.522 377.309C304.241 382.805 302.643 388.669 301.779 394.716C288.06 394.487 274.344 395.302 260.712 397.155C257.167 397.551 253.618 397.937 250.067 398.315C252.656 385.599 256.109 373.157 260.392 361.112C261.42 358.297 262.528 355.52 263.715 352.781L287.609 360.172L290.821 361.172C290.709 361.012 290.592 360.858 290.483 360.692C289.853 359.692 291.262 358.733 291.878 359.716L291.996 359.882C291.96 359.791 291.913 359.707 291.856 359.632C290.255 357.253 289.122 354.474 288.543 351.501C287.963 348.528 287.951 345.438 288.508 342.459C288.686 340.918 289.137 339.441 289.833 338.127C290.246 337.464 290.863 337.023 291.547 336.902C292.232 336.781 292.929 336.989 293.486 337.48C295.977 339.27 296.206 343.478 297.135 346.444C298.773 351.678 302.234 357.29 307.519 356.263C312.873 355.224 315.89 348.45 317.31 342.845C318.593 336.316 319.229 329.629 319.205 322.922C321.019 324.352 322.532 326.262 323.628 328.504C324.724 330.745 325.372 333.258 325.522 335.848C325.522 336.601 325.483 337.364 325.461 338.123C325.97 337.663 326.521 337.274 327.104 336.964L327.132 336.297C327.041 333.27 326.337 330.314 325.081 327.682C323.824 325.05 322.052 322.822 319.916 321.186C319.579 320.91 319.241 320.617 318.892 320.377C318.722 320.264 318.522 320.235 318.334 320.297C318.159 320.348 318.002 320.465 317.886 320.629C317.769 320.794 317.7 320.998 317.687 321.213C317.637 327.88 317.092 334.53 316.06 341.082C315.443 344.173 314.354 347.102 312.848 349.723C312.108 351.143 311.082 352.321 309.864 353.148C308.645 353.974 307.273 354.425 305.872 354.457C304.641 354.229 303.475 353.651 302.469 352.773C301.464 351.895 300.651 350.741 300.096 349.409C299.17 347.365 298.453 345.194 297.961 342.945C297.747 342.116 297.508 341.296 297.247 340.486C297.222 340.409 297.205 340.329 297.18 340.253C296.868 339.329 296.451 338.461 295.941 337.674C295.446 336.783 294.763 336.064 293.961 335.588C293.159 335.112 292.267 334.897 291.373 334.965C288.583 335.314 287.503 338.833 286.998 341.662C285.916 347.472 286.721 353.557 289.25 358.686L266.974 351.795L263.506 350.725C263.399 350.708 263.291 350.716 263.188 350.749C263.067 350.757 262.95 350.799 262.846 350.872C262.742 350.945 262.655 351.047 262.59 351.169C262.415 351.569 262.253 351.975 262.08 352.378C257.42 363.588 253.668 375.304 250.874 387.365C249.919 391.271 249.031 395.197 248.209 399.145C248.195 399.336 248.207 399.528 248.245 399.714C248.258 399.816 248.288 399.914 248.332 400.002C248.377 400.09 248.435 400.167 248.505 400.228C248.574 400.289 248.653 400.333 248.737 400.357C248.821 400.382 248.908 400.386 248.993 400.371Z" fill="#232323"/>
<path d="M393.343 369.096C393.52 373.515 393.915 377.917 394.526 382.281C394.785 385.224 395.378 388.111 396.287 390.864C398.129 395.129 400.837 398.775 404.164 401.467C408.754 405.311 414.01 407.871 419.542 408.958C425.894 410.053 432.348 409.992 438.684 408.778C444.781 407.859 450.771 406.123 456.543 403.603C461.348 401.748 465.737 398.612 469.379 394.433C470.713 392.814 471.691 390.826 472.225 388.645C472.571 386.845 472.833 385.022 473.009 383.187C473.253 381.188 473.458 379.189 473.625 377.189C474.756 363.861 474.122 350.436 474.248 337.057C474.161 337.244 474.08 337.434 473.988 337.617C468.781 347.656 461.057 355.48 451.913 359.979C441.298 365.065 429.812 367.022 418.429 365.683C409.598 365.14 400.987 362.2 393.251 357.087C393.162 361.09 393.192 365.095 393.343 369.096Z" fill="#FFCEB6"/>
<path d="M475.86 361.965C475.905 354.115 475.71 346.261 475.807 338.407C475.83 336.635 475.877 334.862 475.922 333.076C475.413 334.432 474.848 335.756 474.228 337.044C474.102 350.423 474.736 363.855 473.606 377.176C473.438 379.176 473.233 381.175 472.989 383.174C472.813 385.01 472.551 386.832 472.205 388.632C471.671 390.813 470.694 392.802 469.359 394.42C465.718 398.599 461.328 401.735 456.523 403.59C450.752 406.11 444.761 407.846 438.664 408.765C432.328 409.979 425.874 410.04 419.522 408.945C413.99 407.859 408.734 405.298 404.144 401.454C400.818 398.762 398.109 395.117 396.267 390.852C395.358 388.099 394.765 385.211 394.506 382.268C393.895 377.905 393.5 373.502 393.323 369.083C393.156 365.084 393.159 361.086 393.22 357.087C392.678 356.699 392.144 356.294 391.618 355.874C391.561 358.582 391.544 361.29 391.568 363.998C391.607 368.326 391.833 372.649 392.243 376.95C392.542 379.995 392.857 383.151 393.399 386.2C393.513 386.836 393.655 387.456 393.789 388.082C393.89 388.549 393.973 389.025 394.091 389.485C395.362 393.764 397.58 397.553 400.508 400.448C404.566 404.698 409.365 407.814 414.558 409.571C420.879 411.567 427.454 412.158 433.954 411.314C440.36 410.727 446.695 409.322 452.851 407.122C458.239 405.379 463.321 402.497 467.857 398.612C469.635 397.046 471.165 395.114 472.375 392.907C473.051 391.568 473.538 390.104 473.815 388.576C473.943 387.943 474.055 387.301 474.15 386.65C474.247 385.983 474.337 385.274 474.429 384.574C475.36 377.088 475.838 369.533 475.86 361.965Z" fill="#232323"/>
<path d="M336.235 340.39C335.853 339.697 335.392 339.073 334.865 338.534C334.437 338.091 333.969 337.705 333.47 337.384C331.894 336.329 330.045 336.014 328.285 336.501C327.881 336.625 327.487 336.787 327.105 336.987C326.522 337.297 325.97 337.687 325.461 338.147C324.37 339.016 323.512 340.243 322.99 341.679C322.468 343.116 322.304 344.702 322.518 346.247C322.833 347.679 323.398 349.015 324.178 350.166C324.574 350.748 325.033 351.266 325.542 351.705C326.277 352.349 327.112 352.812 327.998 353.068C328.676 353.255 329.371 353.335 330.066 353.308C330.645 353.288 331.22 353.192 331.782 353.022C332.854 352.683 333.846 352.056 334.683 351.188C335.521 350.32 336.18 349.234 336.611 348.015C337.042 346.795 337.234 345.473 337.17 344.151C337.107 342.83 336.791 341.543 336.246 340.39H336.235Z" fill="#8A265A"/>
<path d="M478.246 301.261C478.127 301.478 477.943 301.631 477.732 301.689C477.52 301.747 477.298 301.704 477.113 301.571C476.945 301.446 476.821 301.253 476.764 301.028C476.174 297.951 475.363 294.941 474.342 292.031C472.194 286.192 469.319 280.775 465.814 275.963C462.828 271.635 459.362 267.812 455.512 264.601C449.429 259.97 442.626 256.85 435.511 255.428C426.918 253.407 418.059 253.666 409.56 256.187C400.393 259.133 392.073 265.008 385.496 273.181C382.253 277.093 379.599 281.644 377.652 286.633C375.824 291.651 374.675 296.985 374.25 302.434C373.239 313.011 374.561 323.72 378.084 333.499C381.712 343.593 388.15 351.879 396.308 356.954C405.704 362.178 416.016 364.619 426.369 364.071C437.116 364.189 447.703 360.952 457.08 354.681C465.729 348.82 472.349 339.476 475.757 328.321C475.821 328.08 475.96 327.877 476.145 327.753C476.33 327.63 476.547 327.594 476.753 327.655C479.869 328.772 483.189 328.794 486.316 327.717C489.442 326.64 492.243 324.511 494.382 321.583C496.691 318.877 498.387 315.515 499.31 311.813C500.233 308.11 500.353 304.188 499.659 300.415C499.047 297.796 497.734 295.49 495.919 293.849C494.105 292.207 491.89 291.322 489.614 291.328C484.683 291.694 481.028 296.912 478.246 301.261ZM386.029 282.155C387.671 280.079 389.762 278.585 392.07 277.838C394.378 277.091 396.814 277.119 399.11 277.919C399.312 277.993 399.482 278.158 399.584 278.379C399.686 278.6 399.711 278.86 399.655 279.103C399.599 279.347 399.466 279.554 399.284 279.682C399.102 279.81 398.886 279.848 398.68 279.789C396.661 279.077 394.517 279.05 392.486 279.71C390.455 280.369 388.617 281.69 387.178 283.524C386.461 284.437 385.32 283.064 386.029 282.155ZM398.976 310.308C398.566 311.197 397.989 311.959 397.289 312.535C396.589 313.11 395.786 313.482 394.944 313.622C394.103 313.761 393.245 313.664 392.44 313.338C391.636 313.012 390.906 312.466 390.309 311.744C389.522 310.694 388.921 309.466 388.541 308.133C388.16 306.799 388.009 305.388 388.096 303.983C388.108 303.736 388.199 303.504 388.35 303.335C388.5 303.165 388.7 303.07 388.907 303.07C389.114 303.07 389.313 303.165 389.464 303.335C389.615 303.504 389.705 303.736 389.718 303.983C389.718 306.776 390.276 310.224 392.753 311.314C393.543 311.79 394.452 311.902 395.307 311.627C396.161 311.352 396.9 310.71 397.383 309.824C397.994 307.968 398.234 305.967 398.083 303.98C398.083 303.723 398.169 303.476 398.321 303.294C398.473 303.112 398.68 303.01 398.895 303.01C399.11 303.01 399.317 303.112 399.469 303.294C399.622 303.476 399.707 303.723 399.707 303.98C399.823 306.126 399.575 308.279 398.976 310.308ZM444.094 324.709C443.277 327.539 442.102 330.202 440.609 332.606C438.558 335.797 435.886 338.341 432.825 340.018C429.764 341.695 426.406 342.454 423.043 342.229C414.332 341.819 407.448 333.256 403.164 324.939C403.111 324.827 403.076 324.704 403.063 324.577C403.049 324.449 403.057 324.32 403.085 324.196C403.114 324.072 403.163 323.956 403.229 323.855C403.295 323.754 403.378 323.669 403.471 323.606C403.591 323.524 403.727 323.481 403.865 323.479C417.013 323.743 430.161 323.216 443.313 323.479C443.48 323.483 443.642 323.552 443.773 323.676C443.926 323.767 444.045 323.925 444.104 324.117C444.164 324.309 444.16 324.52 444.094 324.709ZM447.705 278.629C449.969 277.775 452.398 277.773 454.663 278.624C456.928 279.475 458.919 281.138 460.365 283.387C461.001 284.387 459.592 285.34 458.97 284.364C457.708 282.48 455.996 281.101 454.061 280.41C452.126 279.719 450.06 279.749 448.14 280.495C447.138 280.875 446.717 279.016 447.705 278.629ZM461.001 309.951C460.591 310.84 460.013 311.602 459.313 312.176C458.613 312.751 457.81 313.123 456.969 313.263C456.127 313.402 455.27 313.305 454.466 312.98C453.661 312.654 452.931 312.109 452.334 311.387C451.547 310.338 450.945 309.11 450.564 307.776C450.184 306.443 450.032 305.032 450.118 303.627C450.118 303.37 450.204 303.123 450.356 302.941C450.509 302.759 450.715 302.657 450.93 302.657C451.146 302.657 451.352 302.759 451.505 302.941C451.657 303.123 451.742 303.37 451.742 303.627C451.742 306.419 452.3 309.868 454.776 310.957C455.566 311.433 456.475 311.544 457.33 311.269C458.184 310.995 458.924 310.353 459.408 309.468C460.016 307.61 460.256 305.61 460.108 303.623C460.12 303.376 460.211 303.144 460.362 302.975C460.512 302.805 460.712 302.711 460.919 302.711C461.126 302.711 461.325 302.805 461.476 302.975C461.626 303.144 461.717 303.376 461.729 303.623C461.846 305.769 461.598 307.92 461.001 309.948V309.951ZM489.307 310.341L479.197 318.255C478.321 318.941 477.509 317.255 478.38 316.589L488.486 308.675C489.363 307.978 490.174 309.658 489.307 310.338V310.341Z" fill="#FFCEB6"/>
<path d="M489.893 289.349C484.776 289.585 480.95 294.12 477.894 298.678C474.984 286.679 469.25 275.93 461.373 267.71C458.599 264.674 455.503 262.089 452.164 260.019C448.755 257.966 445.185 256.321 441.505 255.108C432.996 252.218 424.08 251.449 415.312 252.849C410.617 253.618 406.03 255.138 401.675 257.367C397.167 259.748 392.954 262.854 389.152 266.6C385.405 270.142 382.114 274.322 379.385 279.006C376.718 283.726 374.802 288.993 373.735 294.543C371.603 305.374 371.859 316.681 374.48 327.358C376.969 337.894 382.18 347.222 389.369 354.015C390.095 354.681 390.862 355.264 391.621 355.864C392.151 356.281 392.679 356.694 393.223 357.077C400.96 362.189 409.57 365.129 418.4 365.674C429.784 367.01 441.269 365.054 451.885 359.969C461.029 355.471 468.752 347.646 473.96 337.608C474.052 337.424 474.133 337.234 474.22 337.048C474.839 335.76 475.405 334.435 475.913 333.079C476.326 331.976 476.697 330.85 477.043 329.714C486.068 332.713 494.793 326.322 499.107 316.998C499.491 316.169 499.839 315.318 500.151 314.446C500.539 313.386 500.868 312.296 501.136 311.184C502.052 307.492 502.083 303.567 501.225 299.855C500.699 297.851 499.842 295.993 498.705 294.391C497.569 292.788 496.175 291.474 494.606 290.525C494.008 290.179 493.384 289.904 492.742 289.702C491.812 289.417 490.852 289.298 489.893 289.349ZM499.66 300.391C500.353 304.165 500.233 308.087 499.31 311.789C498.387 315.492 496.692 318.854 494.383 321.56C492.244 324.487 489.444 326.617 486.318 327.693C483.192 328.77 479.872 328.748 476.756 327.631C476.55 327.57 476.332 327.605 476.146 327.729C475.961 327.853 475.822 328.056 475.757 328.298C472.349 339.453 465.729 348.797 457.081 354.658C447.703 360.928 437.117 364.165 426.37 364.048C416.016 364.596 405.704 362.154 396.309 356.931C388.151 351.856 381.713 343.57 378.085 333.476C374.563 323.696 373.241 312.988 374.251 302.41C374.676 296.961 375.824 291.628 377.652 286.61C379.6 281.619 382.254 277.069 385.499 273.158C392.076 264.985 400.395 259.11 409.56 256.164C418.06 253.643 426.919 253.384 435.511 255.404C442.627 256.827 449.429 259.946 455.513 264.578C459.363 267.789 462.829 271.612 465.815 275.94C469.32 280.752 472.195 286.169 474.342 292.008C475.364 294.918 476.174 297.928 476.764 301.004C476.811 301.184 476.9 301.343 477.02 301.464C477.14 301.585 477.287 301.662 477.443 301.687C477.599 301.711 477.757 301.682 477.899 301.602C478.042 301.523 478.162 301.396 478.246 301.238C481.036 296.906 484.686 291.671 489.623 291.281C491.901 291.277 494.118 292.166 495.933 293.811C497.748 295.457 499.06 297.769 499.668 300.391H499.66Z" fill="#232323"/>
<path d="M488.487 308.665L478.38 316.579C477.509 317.246 478.321 318.938 479.198 318.245L489.307 310.332C490.175 309.658 489.363 307.979 488.487 308.665ZM460.109 303.624C460.256 305.611 460.016 307.611 459.408 309.469C458.925 310.354 458.185 310.995 457.33 311.27C456.476 311.545 455.566 311.434 454.776 310.958C452.301 309.862 451.743 306.416 451.743 303.627C451.743 303.37 451.657 303.124 451.505 302.942C451.353 302.76 451.146 302.658 450.931 302.658C450.716 302.658 450.509 302.76 450.357 302.942C450.205 303.124 450.119 303.37 450.119 303.627C450.033 305.032 450.184 306.444 450.565 307.777C450.946 309.11 451.547 310.338 452.335 311.388C452.932 312.109 453.662 312.655 454.466 312.98C455.271 313.306 456.128 313.403 456.969 313.263C457.811 313.124 458.614 312.752 459.314 312.177C460.013 311.602 460.591 310.84 461.001 309.952C461.6 307.922 461.847 305.768 461.73 303.621C461.718 303.374 461.627 303.142 461.476 302.972C461.326 302.802 461.126 302.708 460.919 302.708C460.712 302.708 460.513 302.802 460.362 302.972C460.211 303.142 460.121 303.374 460.109 303.621V303.624ZM398.681 279.789C398.886 279.849 399.103 279.811 399.285 279.683C399.467 279.555 399.6 279.347 399.656 279.104C399.712 278.861 399.686 278.601 399.584 278.38C399.483 278.159 399.313 277.994 399.111 277.92C396.815 277.12 394.379 277.091 392.071 277.839C389.762 278.586 387.672 280.08 386.029 282.155C385.32 283.065 386.464 284.438 387.179 283.525C388.618 281.69 390.455 280.37 392.486 279.71C394.518 279.051 396.662 279.078 398.681 279.789ZM443.774 323.68C443.642 323.556 443.48 323.487 443.313 323.483C430.162 323.22 417.014 323.747 403.865 323.483C403.757 323.485 403.65 323.512 403.551 323.563C403.452 323.614 403.362 323.688 403.287 323.781C403.212 323.874 403.153 323.984 403.114 324.105C403.075 324.225 403.056 324.354 403.059 324.483C403.059 324.647 403.096 324.808 403.165 324.95C407.448 333.28 414.327 341.83 423.044 342.24C426.406 342.465 429.764 341.706 432.826 340.029C435.887 338.351 438.559 335.807 440.609 332.617C442.102 330.212 443.278 327.549 444.095 324.72C444.162 324.53 444.167 324.317 444.107 324.124C444.048 323.93 443.928 323.772 443.774 323.68ZM458.965 284.364C459.592 285.341 461.002 284.364 460.36 283.388C458.914 281.139 456.923 279.476 454.658 278.625C452.393 277.773 449.964 277.775 447.7 278.63C446.712 279.016 447.142 280.889 448.129 280.496C450.051 279.748 452.117 279.717 454.053 280.408C455.989 281.1 457.703 282.48 458.965 284.364ZM398.084 303.984C398.234 305.971 397.994 307.972 397.383 309.828C396.901 310.714 396.162 311.356 395.307 311.631C394.453 311.906 393.544 311.794 392.754 311.318C390.279 310.225 389.718 306.776 389.718 303.987C389.706 303.74 389.615 303.508 389.465 303.339C389.314 303.169 389.115 303.074 388.907 303.074C388.7 303.074 388.501 303.169 388.35 303.339C388.2 303.508 388.109 303.74 388.097 303.987C388.01 305.392 388.161 306.803 388.541 308.137C388.921 309.47 389.523 310.698 390.31 311.748C390.907 312.47 391.636 313.016 392.441 313.342C393.246 313.668 394.103 313.765 394.945 313.626C395.786 313.486 396.589 313.114 397.289 312.538C397.989 311.963 398.567 311.201 398.977 310.312C399.575 308.281 399.823 306.128 399.708 303.981C399.708 303.723 399.622 303.477 399.47 303.295C399.318 303.113 399.111 303.011 398.896 303.011C398.68 303.011 398.474 303.113 398.322 303.295C398.169 303.477 398.084 303.723 398.084 303.981V303.984ZM105.957 261.643C100.265 262.44 94.5548 262.995 88.8271 263.309C87.7862 263.365 87.7807 265.308 88.8271 265.245C99.1668 264.666 109.467 263.321 119.667 261.216C130.773 258.887 141.774 255.89 152.627 252.236C159.304 250.01 165.944 247.625 172.542 245.082L173.142 244.859C174.132 244.476 173.7 242.606 172.709 242.989H172.681C161.112 247.438 149.434 251.513 137.6 254.842C127.17 257.826 116.605 260.097 105.957 261.643Z" fill="#232323"/>
<path d="M206.931 300.474L206.234 301.047C206.144 301.669 206.083 302.296 206.049 302.926V303.499C216.252 295.021 225.882 285.599 234.849 275.32C244.708 264.043 253.792 251.837 262.011 238.82C261.43 239.053 260.85 239.28 260.275 239.536C259.89 239.706 259.516 239.899 259.137 240.076C252.373 250.589 245.037 260.559 237.176 269.922C227.822 281.09 217.705 291.31 206.931 300.474Z" fill="#232323"/>
<path d="M206.232 301.047C207.304 295.394 209.506 290.135 212.65 285.719C213.275 284.72 211.866 283.753 211.255 284.743C207.926 289.415 205.632 295.009 204.58 301.014C204.522 301.51 204.505 302.013 204.477 302.5C204.436 303.276 204.43 304.055 204.46 304.832C204.801 309.722 206.087 314.451 208.216 318.647C210.307 323.282 213.744 326.845 217.879 328.667C221.939 330.278 226.264 330.701 230.489 329.9C235.327 329.11 240.013 327.318 244.335 324.605C244.377 324.571 244.417 324.532 244.452 324.488V323.082C244.332 322.94 244.177 322.848 244.009 322.821C243.841 322.794 243.671 322.833 243.523 322.932C236.441 327.74 228.148 329.353 220.154 327.477C216.317 326.37 212.952 323.626 210.691 319.763C207.806 315.022 206.191 309.348 206.057 303.489V302.916C206.088 302.29 206.146 301.666 206.232 301.047Z" fill="#232323"/>
<path d="M199.595 308.455C194.336 312.173 188.941 315.601 183.41 318.738C178.06 321.767 172.588 324.478 167.014 326.861C149.72 334.285 131.473 338.047 113.095 337.977C106.379 337.977 99.6733 337.448 93.0043 336.644C88.0457 336.055 83.1011 335.255 78.1314 334.808C77.0962 334.715 77.0906 332.776 78.1314 332.869C78.6421 332.916 79.1555 332.966 79.6662 333.022C84.8284 333.572 89.9711 334.382 95.1305 334.952C101.94 335.734 108.78 336.088 115.62 336.011C124.075 335.887 132.508 334.942 140.834 333.186C150.798 331.05 160.572 327.798 170.025 323.473C181.226 318.304 191.994 311.887 202.187 304.306L202.343 304.193C200.187 300.079 198.077 295.928 196.014 291.741C195.456 290.618 194.915 289.488 194.363 288.362C190.978 281.441 187.629 274.491 184.111 267.663C180.246 260.159 176.083 252.822 172.564 245.071C165.965 247.614 159.325 249.999 152.646 252.225C141.787 255.884 130.78 258.884 119.666 261.215C109.467 263.322 99.1669 264.67 88.827 265.251C87.7806 265.311 87.7862 263.371 88.827 263.315C94.5511 263.001 100.261 262.446 105.957 261.649C116.608 260.104 127.175 257.835 137.609 254.851C149.443 251.519 161.121 247.447 172.69 242.999C178.365 240.17 183.861 236.851 189.133 233.069C189.728 232.639 190.303 232.183 190.886 231.736C191.355 231.38 191.829 231.033 192.281 230.67C190.803 225.104 188.832 219.742 186.402 214.676C182.804 207.29 178.404 200.505 173.317 194.496C168.3 188.639 162.447 183.9 156.034 180.501C155.694 181.022 155.33 181.52 154.945 181.994C153.036 184.365 150.647 186.106 148.009 187.049C136.01 191.328 122.786 194.58 110.386 190.571C104.773 188.609 99.5472 185.323 95.0161 180.908C92.6257 178.85 90.4627 176.44 88.5787 173.734C87.0371 171.244 86.0562 168.323 85.7297 165.25C85.7046 165.047 85.6599 164.851 85.6432 164.647C85.6013 164.211 85.6069 163.764 85.593 163.314C85.4841 163.314 85.3725 163.314 85.2609 163.341C72.7725 164.927 60.7701 169.991 50.2191 178.126C39.5708 186.412 30.2563 196.917 22.7198 209.138C18.8292 215.339 15.336 221.882 12.2698 228.711C9.97327 233.809 8.00883 239.06 6.09183 244.371C5.57561 245.808 5.07334 247.244 4.6213 248.703C2.34144 256.201 0.879348 264.018 0.271071 271.961C-0.146754 277.323 -0.0812685 282.724 0.466399 288.069C1.07429 294.005 2.381 299.809 4.34784 305.309C6.58808 311.459 9.67196 317.119 13.4724 322.056C18.0498 327.916 23.3757 332.872 29.2521 336.741C36.8554 341.718 44.9563 345.525 53.3611 348.07C64.4811 351.463 75.8398 353.621 87.2923 354.518C101.735 356.091 116.277 355.824 130.672 353.722C142.313 352.038 153.599 347.835 163.978 341.319C172.076 336.079 179.125 328.803 184.641 319.994C184.912 319.491 185.204 319.005 185.517 318.538C186.201 317.884 186.964 317.36 187.78 316.982C189.538 315.853 191.28 314.689 193.006 313.49C196.651 310.957 200.221 308.283 203.716 305.466L203.747 305.433C202.368 306.461 200.984 307.468 199.595 308.455Z" fill="#2C67F2"/>
<path d="M283.237 193.684C288.449 180.811 292.272 167.199 294.613 153.176C295.997 146.33 296.42 139.257 295.863 132.246C294.897 124.409 291.79 117.173 287.026 111.661C286.468 111.041 285.561 110.121 284.83 110.918C284.433 111.482 284.195 112.182 284.149 112.917C284.011 115.154 284.064 117.403 284.308 119.628L285.031 135.532C285.087 136.785 283.479 136.768 283.407 135.532C283.136 130.851 282.297 126.242 280.915 121.85C280.272 119.813 279.511 117.831 278.638 115.919C277.953 114.253 277.061 112.719 275.993 111.371C275.056 110.081 273.738 109.273 272.315 109.115C271.632 109.212 271.006 109.621 270.57 110.257C270.134 110.892 269.92 111.704 269.974 112.524C270.007 114.387 270.183 116.243 270.501 118.068C270.748 120.234 270.865 122.417 270.85 124.603C270.813 128.98 270.259 133.329 269.204 137.521C269.147 137.742 269.027 137.931 268.864 138.055C268.701 138.179 268.507 138.231 268.316 138.2C268.125 138.169 267.949 138.058 267.819 137.887C267.69 137.716 267.616 137.495 267.61 137.265C267.501 132.396 267.013 127.55 266.151 122.79C265.693 120.48 265.006 118.242 264.106 116.126C263.344 114.373 262.152 111.461 260.305 111.188C257.64 110.781 257.146 115.932 257.127 118.088C257.146 121.592 256.954 125.093 256.552 128.564C255.824 135.999 253.463 143.071 249.707 149.064C245.857 154.644 240.552 158.521 234.639 160.076C232.625 160.613 230.561 160.827 228.5 160.713C230.506 164.198 232.329 167.828 233.958 171.582C234.488 172.729 234.954 173.917 235.353 175.137C235.666 176.247 234.639 177.41 234.145 178.296C232.919 180.496 231.682 182.684 230.434 184.861C223.204 198.159 214.686 210.393 205.058 221.311C195.865 230.98 185.401 238.772 174.085 244.376C175.985 248.517 178.097 252.516 180.196 256.518C184.358 264.408 188.413 272.378 192.359 280.426C196.076 288.046 199.787 295.67 203.702 303.151L204.494 302.484C204.522 301.988 204.539 301.485 204.598 300.998C205.649 294.994 207.943 289.4 211.272 284.727C211.889 283.728 213.298 284.704 212.667 285.704C209.524 290.12 207.321 295.379 206.25 301.032L206.947 300.458C217.715 291.299 227.826 281.085 237.175 269.923C245.042 260.561 252.383 250.591 259.153 240.077C251.136 244.081 243.502 249.101 236.383 255.052C235.51 255.745 234.709 254.052 235.565 253.386C240.299 249.553 245.199 246.023 250.246 242.809C253.692 240.661 257.262 238.81 260.93 237.271C261.767 235.965 262.604 234.682 263.411 233.36C271.031 220.894 277.668 207.612 283.237 193.684ZM283.733 157.637C284.501 156.256 284.994 154.683 285.173 153.039C285.301 151.816 286.925 151.803 286.797 153.039C286.606 155.027 286.033 156.936 285.123 158.617C284.565 159.66 283.15 158.687 283.728 157.637H283.733ZM265.925 158.607C266.575 157.044 266.835 155.29 266.673 153.555C266.572 152.312 268.196 152.326 268.297 153.555C268.458 155.635 268.121 157.727 267.326 159.586C266.86 160.703 265.462 159.72 265.917 158.607H265.925ZM233.517 257.551C232.437 261.307 231.161 264.98 229.697 268.547C227.765 274.064 224.701 278.911 220.787 282.642C219.291 283.951 217.471 284.624 215.617 284.554C213.653 284.296 211.821 283.251 210.418 281.589C209.479 280.708 208.743 279.557 208.278 278.243C207.813 276.929 207.636 275.496 207.762 274.078C208.255 271.798 209.367 269.777 210.923 268.33C212.928 266.339 215.136 264.659 217.495 263.332C222.356 260.57 227.378 258.232 232.521 256.334C232.659 256.292 232.804 256.293 232.942 256.338C233.079 256.382 233.205 256.47 233.305 256.59C233.406 256.711 233.479 256.861 233.516 257.025C233.553 257.189 233.553 257.363 233.517 257.527V257.551Z" fill="#FFE497"/>
<path d="M291.327 114.5C290.369 113.001 289.315 111.594 288.173 110.291C286.879 108.865 284.951 107.842 283.558 109.712C282.565 111.512 282.191 113.701 282.515 115.823L282.819 122.524C282.755 122.31 282.707 122.087 282.643 121.857C281.993 119.711 281.222 117.621 280.335 115.599C279.574 113.694 278.594 111.925 277.425 110.341C275.491 107.912 271.981 105.62 269.595 108.592C267.209 111.564 268.816 116.646 269.082 120.184C269.322 123.569 269.235 126.976 268.822 130.337C268.608 123.925 266.965 117.698 264.062 112.297C263.665 111.509 263.131 110.831 262.497 110.31C261.863 109.788 261.142 109.434 260.384 109.272C259.802 109.213 259.216 109.324 258.679 109.596C258.141 109.869 257.667 110.294 257.298 110.835C255.833 113.498 255.204 116.694 255.523 119.858C255.597 127.683 254.165 135.423 251.337 142.483C248.401 149.396 243.34 154.685 237.212 157.244C234.896 158.208 232.468 158.733 230.016 158.8C229.561 158.8 229.106 158.767 228.649 158.744C228.37 158.744 228.063 158.744 227.77 158.707H227.745L227.421 158.664H227.332C227.256 158.664 227.181 158.637 227.108 158.62C226.868 158.572 226.621 158.639 226.422 158.807C226.256 158.926 226.136 159.119 226.089 159.343C226.042 159.567 226.072 159.805 226.171 160.003L226.19 160.043C229.033 164.986 231.552 170.184 233.724 175.591C227.329 187.606 220.197 199.039 212.386 209.795C206.455 217.75 199.704 224.776 192.295 230.707C191.835 231.071 191.361 231.417 190.9 231.774C190.317 232.217 189.742 232.673 189.148 233.107C183.876 236.889 178.38 240.207 172.704 243.036H172.735C173.731 242.653 174.155 244.522 173.165 244.906L172.565 245.129C176.083 252.879 180.247 260.217 184.111 267.721C187.63 274.548 190.978 281.496 194.366 288.42C194.924 289.546 195.463 290.672 196.015 291.798C198.078 295.984 200.188 300.134 202.344 304.251L203.05 303.737C203.94 303.071 204.752 304.754 203.867 305.403C204.077 305.237 204.275 305.054 204.481 304.884C204.451 304.106 204.457 303.328 204.498 302.551C204.219 302.768 203.971 302.991 203.705 303.218C199.799 295.74 196.079 288.116 192.362 280.496C188.428 272.436 184.351 264.502 180.202 256.588C178.101 252.589 175.988 248.591 174.088 244.446C185.404 238.843 195.869 231.05 205.062 221.381C214.69 210.465 223.207 198.233 230.437 184.937C231.688 182.763 232.925 180.575 234.149 178.373C234.643 177.484 235.669 176.324 235.357 175.214C234.958 173.994 234.492 172.806 233.962 171.659C232.342 167.88 230.526 164.226 228.526 160.716C230.587 160.831 232.651 160.617 234.665 160.08C240.578 158.525 245.883 154.647 249.733 149.067C253.489 143.075 255.85 136.002 256.578 128.568C256.98 125.097 257.172 121.596 257.153 118.092C257.172 115.936 257.666 110.785 260.331 111.191C262.187 111.474 263.37 114.377 264.131 116.129C265.032 118.246 265.719 120.483 266.177 122.794C267.039 127.554 267.527 132.4 267.636 137.268C267.642 137.499 267.716 137.719 267.845 137.89C267.974 138.062 268.15 138.173 268.342 138.203C268.533 138.234 268.727 138.183 268.89 138.059C269.052 137.934 269.173 137.745 269.229 137.525C270.284 133.332 270.84 128.984 270.879 124.606C270.893 122.421 270.775 120.237 270.527 118.072C270.209 116.247 270.033 114.391 270 112.527C269.946 111.708 270.16 110.896 270.597 110.261C271.033 109.626 271.658 109.217 272.341 109.119C273.765 109.275 275.083 110.083 276.019 111.374C277.08 112.728 277.963 114.266 278.639 115.936C279.511 117.847 280.272 119.828 280.916 121.864C282.297 126.257 283.136 130.867 283.407 135.549C283.48 136.785 285.082 136.802 285.031 135.549L284.312 119.645C284.067 117.42 284.012 115.172 284.15 112.934C284.195 112.199 284.434 111.499 284.831 110.935C285.562 110.138 286.463 111.058 287.027 111.678C291.792 117.189 294.899 124.426 295.864 132.263C296.421 139.274 295.998 146.347 294.614 153.192C292.273 167.216 288.45 180.828 283.237 193.701C277.666 207.621 271.027 220.895 263.406 233.353C262.602 234.686 261.748 235.959 260.928 237.265C261.828 236.89 262.737 236.532 263.654 236.192C271.063 224.279 277.588 211.617 283.154 198.349C288.704 185.289 292.882 171.461 295.593 157.178C295.883 155.589 296.147 153.993 296.383 152.389C296.648 150.617 296.888 148.837 297.092 147.058C297.371 144.499 297.666 141.903 297.767 139.311C297.803 138.388 297.82 137.465 297.8 136.542C297.626 128.567 295.362 120.858 291.327 114.5Z" fill="#232323"/>
<path d="M203.034 303.689L202.328 304.203L202.172 304.316C191.979 311.897 181.211 318.314 170.01 323.482C160.557 327.805 150.783 331.055 140.82 333.189C132.493 334.945 124.061 335.89 115.606 336.014C108.765 336.091 101.925 335.737 95.1159 334.955C89.9564 334.385 84.8137 333.575 79.6515 333.025C79.1403 332.969 78.6287 332.918 78.1168 332.872C77.076 332.779 77.0816 334.718 78.1168 334.811C83.0865 335.258 88.0311 336.058 92.9896 336.647C99.6726 337.44 106.383 337.957 113.08 337.98C131.463 338.05 149.715 334.286 167.013 326.858C172.594 324.482 178.058 321.756 183.41 318.734C188.935 315.613 194.329 312.185 199.594 308.451C200.983 307.467 202.365 306.467 203.738 305.452L203.852 305.366C204.737 304.706 203.922 303.03 203.034 303.689ZM267.325 159.585C268.121 157.726 268.458 155.634 268.296 153.554C268.196 152.325 266.572 152.311 266.672 153.554C266.834 155.289 266.575 157.043 265.924 158.606C265.461 159.719 266.859 160.702 267.325 159.585ZM285.133 158.616C286.044 156.935 286.617 155.026 286.808 153.038C286.936 151.802 285.312 151.815 285.184 153.038C285.004 154.682 284.512 156.255 283.744 157.636C283.161 158.686 284.564 159.659 285.133 158.616ZM298.764 366.297C299.8 366.43 299.794 364.491 298.764 364.357C297.448 364.182 296.174 363.697 295.015 362.93C293.856 362.164 292.835 361.131 292.012 359.892L291.895 359.726C291.269 358.726 289.86 359.706 290.499 360.702C290.608 360.872 290.725 361.035 290.837 361.182C292.809 364.071 295.659 365.911 298.764 366.297ZM471.744 533.619C471.756 533.866 471.847 534.098 471.997 534.267C472.148 534.437 472.347 534.532 472.554 534.532C472.762 534.532 472.961 534.437 473.111 534.267C473.262 534.098 473.353 533.866 473.365 533.619L473.923 484.97L474.085 471.038C474.073 470.791 473.982 470.559 473.831 470.39C473.681 470.22 473.481 470.126 473.274 470.126C473.067 470.126 472.868 470.22 472.717 470.39C472.567 470.559 472.476 470.791 472.464 471.038L471.906 519.687L471.744 533.619ZM55.4141 73.5202C58.1544 59.7877 62.9561 46.7619 69.5865 35.0743C71.479 31.7421 73.517 28.531 75.6919 25.4545C76.3616 24.5048 75.2204 23.122 74.5451 24.085C64.5235 38.2235 57.4323 54.9824 53.8459 73.0038C53.6087 74.2167 55.1714 74.7331 55.4141 73.5202ZM36.3809 85.919C38.6452 62.9276 46.0956 41.102 57.9367 22.7721C61.2341 17.6701 64.8566 12.8798 68.7718 8.44401C69.5307 7.58099 68.3811 6.21482 67.6249 7.07118C60.5317 15.1325 54.3938 24.3129 49.3813 34.3579C44.3657 44.3995 40.5018 55.1999 37.8932 66.4695C36.428 72.846 35.3794 79.3487 34.7568 85.919C34.6396 87.1553 36.2664 87.1453 36.3809 85.919Z" fill="#232323"/>
</svg>
