<svg width="693" height="470" viewBox="0 0 693 470" fill="none" xmlns="http://www.w3.org/2000/svg">
<path d="M53.2149 230.37C52.7281 232.479 52.7545 234.649 53.2925 236.749C55.1774 242.499 63.1159 244.948 70.0677 245.933C79.88 247.321 90.3797 247.443 99.294 243.7C102.766 242.124 106.052 240.271 109.106 238.165L121.635 230.079C123.727 228.92 125.5 227.394 126.835 225.605C127.698 224.07 128.166 222.398 128.21 220.698C128.543 216.358 127.835 212.005 126.129 207.902C124.424 203.799 121.755 200.03 118.283 196.822C114.811 193.614 110.609 191.033 105.928 189.234C101.247 187.435 96.1845 186.456 91.045 186.355C89.6692 186.268 88.287 186.424 86.987 186.815C85.5356 187.453 84.2382 188.315 83.1619 189.357C76.3764 194.929 67.5619 195.924 63.2046 203.269C58.1347 211.776 54.7594 220.933 53.2149 230.37Z" fill="#FFC095"/>
<path d="M102.477 20.9817C94.5382 24.8653 88.1297 30.6533 82.5195 36.7883C78.2619 41.4787 74.2927 46.5162 73.073 52.3041C71.2991 60.7468 75.1686 70.7561 68.4274 77.1444C65.3895 80.0149 60.7328 81.4314 57.8833 84.452C55.8433 86.6096 54.9563 89.3676 54.1248 92.0411C52.5393 97.1067 50.9316 102.285 51.3529 107.51C51.9295 114.677 56.2646 121.309 57.1405 128.457C58.1827 136.9 54.3132 145.249 50.4881 153.148L42.9819 168.776C49.845 166.731 57.3955 167.603 64.6134 167.969C90.2141 169.264 116.469 163.973 141.271 169.517C144.243 170.183 147.17 170.999 150.141 171.562C165.952 174.536 182.295 170.361 197.706 166.224C199.924 165.643 202.551 164.47 202.263 162.547C202.067 161.799 201.639 161.109 201.021 160.549C189.391 147.904 179.9 132.407 182.394 116.459C184.612 102.594 195.699 89.6021 192.783 75.8405C191.098 67.9137 185.022 61.2815 180.399 54.2178C177.571 49.8463 175.287 45.2122 172.006 41.0847C168.724 36.9571 164.389 33.2705 160.142 29.6964C155.896 26.1223 151.427 22.3794 146.216 19.6965C134.486 13.6459 114.196 15.2688 102.477 20.9817Z" fill="#D67820"/>
<path d="M111.158 135.174C111.213 137.31 110.71 139.431 109.683 141.384C108.264 143.616 105.581 145.042 103.031 146.356C90.7977 152.641 78.4908 158.826 66.1099 164.911C73.3721 180.736 80.845 196.871 93.6952 209.938C118.087 234.676 159.488 244.469 197.185 239.882C202.85 239.188 208.804 238.062 212.873 234.666C216.2 231.927 217.741 228.1 218.916 224.347C222.81 211.794 223.25 198.653 220.202 185.933C217.985 176.946 213.55 167.641 204.336 162.8C200.839 161.127 197.116 159.817 193.249 158.898L161.916 150.286C160.375 149.864 158.689 149.348 157.935 148.119C157.492 147.175 157.376 146.143 157.603 145.145L160.02 123.757C160.53 119.273 160.896 114.32 157.736 110.699C155.108 107.679 150.618 106.309 146.349 105.324C139.841 103.823 118.442 98.3354 113.431 103.514C110.847 106.196 112.322 116.028 112.111 119.461L111.158 135.174Z" fill="#FFC095"/>
<path d="M199.567 158.739C211.652 161.206 224.835 165.165 230.445 174.555C233.771 180.183 233.771 186.675 233.705 192.932L232.596 288.85L201.973 289.91C205.582 273.053 207.805 256.005 208.625 238.888C209.128 231.727 208.902 224.543 207.949 217.415C205.521 201.909 197.416 187.603 187.803 174.414C185.586 171.403 173.766 160.343 175.607 156.778C177.847 152.585 194.954 157.801 199.567 158.739Z" fill="#FFC095"/>
<path opacity="0.05" d="M223.351 207.884C225.436 211.43 226.389 215.389 227.332 219.235C228.341 223.381 229.35 227.584 229.095 231.815C228.819 234.725 228.244 237.61 227.376 240.436L224.05 252.921C222.697 257.912 221.256 263.071 217.575 267.124C217.235 267.578 216.735 267.929 216.145 268.128C215.611 268.224 215.055 268.185 214.548 268.015C210.889 267.011 208.261 264.159 207.009 261.083C205.756 258.006 205.7 254.685 205.722 251.42C205.8 237.621 207.131 223.785 205.634 210.014C205.212 206.13 201.354 196.383 209.093 196.815C214.737 197.115 221.101 204.038 223.351 207.884Z" fill="black"/>
<path d="M225.545 379.703C225.545 380.153 225.545 380.641 225.467 381.063C225.467 382.217 225.356 383.371 225.301 384.553C224.103 410.913 224.336 444.102 214.646 469.655H66.9955C66.5187 468.398 66.1196 467.113 65.7204 465.847C59.5226 446.035 53.2804 425.735 55.2983 405.313C55.5063 402.612 55.9735 399.929 56.6953 397.292C56.6953 397.142 56.784 396.992 56.8394 396.842C57.2536 395.447 57.8876 394.106 58.7243 392.855C58.9765 392.475 59.2618 392.111 59.578 391.767C59.7554 391.579 59.9439 391.392 60.1324 391.223C60.7201 390.683 61.4189 390.238 62.1947 389.909C66.0531 388.315 76.2978 390.435 82.0521 391.223C82.8171 391.326 83.5046 391.401 84.0922 391.448L100.136 392.658L104.271 392.968L135.737 395.341L139.961 395.66C149.84 396.382 159.752 396.973 169.653 396.42C189.511 395.303 205.543 379.347 225.423 379.656L225.545 379.703Z" fill="#0E0D15"/>
<path opacity="0.05" d="M66.3748 270.192C67.3283 272.743 67.2285 275.482 67.4835 278.147C68.3594 286.739 73.1049 294.722 74.7125 303.24C77.2404 316.636 71.8742 330.088 66.9514 343.005C62.0286 355.923 57.5715 369.074 58.0815 382.555C58.4363 390.997 61.0529 399.731 67.9492 405.8C77.6507 414.346 93.0399 415.575 107.032 416.278L157.502 418.821C167.381 419.318 177.348 419.815 187.116 418.492C196.884 417.17 206.574 413.858 213.371 407.779C217.348 404.077 220.395 399.731 222.33 395.003C224.251 390.739 225.286 386.226 225.39 381.663C225.39 376.26 223.86 370.96 222.574 365.669C217.03 342.705 216.73 319.084 216.475 295.642C216.365 284.854 216.254 273.963 219.037 263.437C220.478 257.987 222.673 252.687 224.17 247.246C229.126 229.207 225.013 208.138 208.304 196.168C206.863 195.136 204.978 194.123 203.204 194.723C201.896 195.164 201.197 196.337 200.543 197.397C197.415 202.411 193.04 206.792 187.719 210.238C182.398 213.684 176.257 216.114 169.72 217.359C162.724 218.654 155.462 218.532 148.321 218.081C138.986 217.5 129.562 216.327 120.991 213.156C112.421 209.986 104.682 204.601 100.845 197.378C91.2548 203.325 92.4634 215.671 87.0638 224.629C83.5824 230.398 77.4289 234.526 70.976 237.762C65.9646 240.286 55.5314 241.834 52.1275 245.924C45.0982 254.507 63.6695 262.931 66.3748 270.192Z" fill="black"/>
<path d="M66.3746 267.846C67.3281 270.398 67.2283 273.137 67.4833 275.801C68.3592 284.394 73.1046 292.377 74.7123 300.895C77.2402 314.29 71.8739 327.743 66.9512 340.66C62.0284 353.577 57.5713 366.729 58.0813 380.209C58.4361 388.652 61.0527 397.385 67.949 403.455C77.7502 412.019 93.1284 413.239 107.121 413.896L157.59 416.438C167.469 416.935 177.437 417.432 187.205 416.109C196.973 414.787 206.663 411.475 213.459 405.397C217.436 401.694 220.484 397.348 222.418 392.62C224.34 388.356 225.375 383.843 225.478 379.281C225.478 373.877 223.948 368.577 222.662 363.286C217.118 340.322 216.819 316.701 216.564 293.259C216.453 282.471 216.342 271.58 219.125 261.055C220.566 255.604 222.762 250.304 224.259 244.863C229.215 226.824 225.101 205.755 208.393 193.785C206.951 192.753 205.066 191.74 203.292 192.34C201.984 192.781 201.286 193.954 200.631 195.014C197.51 200.037 193.138 204.427 187.816 207.881C182.495 211.336 176.351 213.773 169.809 215.023C162.812 216.318 155.55 216.196 148.41 215.745C139.074 215.164 129.65 213.991 121.08 210.82C112.509 207.65 104.77 202.265 100.934 195.042C91.3433 200.989 92.5518 213.335 87.1523 222.293C83.6709 228.062 77.5174 232.19 71.0646 235.426C66.0531 237.95 55.6199 239.498 52.2161 243.588C45.098 252.162 63.6693 260.586 66.3746 267.846Z" fill="#252036"/>
<path opacity="0.05" d="M190.876 291.279C190.876 288.775 192.295 286.439 193.759 284.263C195.777 281.28 197.943 278.372 200.256 275.539C201.917 273.238 204.112 271.247 206.709 269.685C209.403 268.259 213.007 267.809 215.756 269.122C216.358 269.527 217.079 269.786 217.841 269.873C218.949 269.873 219.681 268.935 220.668 268.578C222.442 267.884 224.482 268.991 225.724 270.276C226.966 271.561 227.941 273.09 229.726 273.831C230.369 274.094 231.09 274.216 231.744 274.46C234.017 275.304 235.226 277.377 236.246 279.3C237.055 280.572 237.528 281.977 237.632 283.418C237.632 285.932 235.414 287.987 233.319 289.788L227.952 294.478C226.591 295.79 225.002 296.919 223.24 297.827C222.354 298.276 221.359 298.55 220.331 298.629C219.302 298.709 218.265 298.592 217.297 298.287C216.826 298.031 216.271 297.909 215.712 297.94C215.294 298.065 214.936 298.302 214.692 298.615C213.504 299.847 212.394 301.131 211.366 302.461C210.496 303.867 209.237 305.074 207.696 305.979C206.055 306.748 203.582 306.495 202.839 305.041C202.75 304.754 202.579 304.49 202.341 304.272C201.664 303.822 200.799 304.553 200.012 304.835C198.693 305.313 197.141 304.375 196.686 303.221C196.372 302.031 196.457 300.79 196.93 299.638C195.943 298.962 194.502 299.366 193.227 299.422C190.599 299.544 191.131 298.118 191.198 296.824C191.364 294.919 190.898 293.156 190.876 291.279Z" fill="black"/>
<path opacity="0.05" d="M113.441 104.611C111.567 106.544 111.822 112.219 112.021 116.534C112.631 117.013 113.241 117.472 113.873 117.932C123.548 124.751 135.657 128.611 148.244 128.889C150.758 129.057 153.284 128.737 155.628 127.951C157.34 127.233 158.851 126.217 160.063 124.967V124.855C160.573 120.371 160.939 115.418 157.779 111.797C155.151 108.776 150.661 107.407 146.392 106.422C139.862 104.921 118.452 99.433 113.441 104.611Z" fill="black"/>
<path opacity="0.03" d="M75.6453 222.668C75.0466 227.096 72.7515 231.205 70.4897 235.229L57.3844 258.531C55.3 255.52 53.138 252.218 53.6258 248.756C53.9778 247.061 54.6478 245.423 55.6105 243.906L67.0637 223.344C67.9285 221.796 70.8667 213.128 72.8402 213.025C75.7895 212.922 75.856 221.139 75.6453 222.668Z" fill="black"/>
<path opacity="0.05" d="M110.779 58.9552C104.038 68.1015 102.785 79.7149 106.001 90.1463C108.407 97.9699 113.196 106.094 109.959 113.73C107.52 119.461 100.723 125.174 104.094 130.559C104.848 131.759 106.067 132.754 106.511 134.058C107.265 136.281 105.568 138.485 104.393 140.568C98.2507 151.412 105.591 163.879 109.183 175.511C111.844 184.123 112.387 193.082 112.919 201.975L106.267 187.594C103.516 199.661 97.5682 211.043 88.8708 220.886C93.7559 220.932 98.6087 221.564 103.284 222.762C99.8244 222.41 96.3344 223.172 93.5075 224.896C90.6806 226.62 88.7238 229.181 88.0256 232.07C87.3273 234.959 87.9389 237.964 89.7387 240.489C91.5385 243.014 94.395 244.873 97.7407 245.698C90.933 246.974 83.9036 243.053 80.6439 237.837C77.3843 232.622 77.1293 226.458 77.5173 220.567L71.9736 220.952C77.5161 209.685 79.8737 197.479 78.8589 185.305C78.4043 179.92 76.3088 173.56 70.2107 171.975L68.3813 186.262L60.975 173.579C60.4952 172.464 59.585 171.519 58.3916 170.896C57.4836 170.656 56.5576 170.468 55.6198 170.333C52.7038 169.573 51.5729 166.356 52.4821 163.898C53.3912 161.44 55.7306 159.573 57.9592 157.81C65.4986 151.844 73.0159 145.484 77.096 137.463C80.8879 130.015 81.4311 121.713 81.8303 113.608C82.3034 104.108 82.6729 94.6022 82.939 85.0901C83.1275 77.5854 83.2495 70.0245 85.1565 62.7075C88.4827 50.3155 97.3526 38.8053 110.402 32.4733C123.452 26.1412 140.482 25.569 153.322 32.1449C161.083 36.1036 166.815 42.2199 172.414 48.2049L188.48 65.3717C191.806 68.927 195.199 72.5855 196.74 76.9194C199.578 84.9118 195.631 93.4577 190.819 100.765C186.007 108.073 180.231 115.268 179.055 123.551C177.703 133.129 182.747 142.425 187.67 151.121C193.923 162.172 200.277 173.363 209.69 182.669C214.479 187.406 220.267 192.003 221.62 198.128C220.599 198.833 219.397 199.325 218.111 199.565C216.824 199.804 215.489 199.785 214.213 199.507C218.013 212.353 221.058 225.342 223.349 238.475C209.712 230.864 196.488 222.766 183.679 214.179C183.145 216.312 181.985 218.296 180.305 219.949C178.624 221.602 176.479 222.87 174.066 223.635C173.678 219.995 175.175 216.412 175.385 212.763C175.596 209.113 173.933 204.854 169.842 203.757C167.447 203.119 164.609 203.663 162.58 202.415C161.094 201.477 160.517 199.883 160.029 198.372L150.783 169.648C145.163 169.421 139.584 170.56 134.706 172.932C141.661 169.647 146.831 164.2 149.119 157.744L129.883 157.491C134.961 153.426 139.88 149.226 144.64 144.893C151.57 138.589 158.189 131.966 163.234 124.489C177.392 103.542 177.592 76.3284 163.733 55.2311C161.438 51.732 158.699 48.3268 154.863 46.0285C140.992 37.8766 118.385 48.6457 110.779 58.9552Z" fill="black"/>
<path opacity="0.05" d="M75.102 362.686L87.0985 376.372C91.9326 381.888 96.7999 387.461 102.898 391.991C115.704 401.532 132.834 405.819 146.549 414.505C155.097 419.916 162.081 426.899 166.972 434.927C169.367 438.867 170.797 444.505 166.539 447.122C162.759 449.411 157.559 447.385 153.589 445.349L132.102 434.364C125.849 431.166 119.485 427.892 114.695 423.22C110.947 419.562 108.32 415.19 105.193 411.128C100.406 404.909 94.4424 399.398 87.542 394.815C83.3177 392.001 78.6721 389.534 75.1574 386.11C69.4696 380.631 67.0637 373.286 65.3562 366.129C64.7907 363.746 60.5221 348.699 63.815 348.512C65.6888 348.352 73.4278 360.772 75.102 362.686Z" fill="black"/>
<path opacity="0.1" d="M65.8091 268.005C65.8091 268.005 113.629 287.358 167.68 270.351H175.308C175.308 270.351 198.181 280.904 215.5 268.587L216.708 304.609L74.7898 300.857L65.8091 268.005Z" fill="black"/>
<path d="M332.366 1.20548C330.906 0.497658 329.279 -0.230088 327.651 0.0689921C323.817 0.776815 322.725 6.54906 318.801 6.38955C316.917 6.3098 315.569 4.79444 313.874 4.03677C312.18 3.2791 309.315 4.24614 309.984 5.82129C306.796 8.51301 301.959 1.08586 298.258 3.17942C297.433 3.64798 296.976 4.50535 296.174 4.99385C294.814 5.83127 292.964 5.41256 291.448 4.83434C289.932 4.25612 288.315 3.53832 286.71 3.8374C285.105 4.13648 284.046 6.28985 285.384 7.15718L272.944 7.09737C272.627 7.87391 272.492 8.70097 272.55 9.52633C272.607 10.3517 272.856 11.1574 273.279 11.8926L264.206 12.2017C264.169 13.6617 264.619 15.0985 265.499 16.329C263.016 16.0027 260.484 16.1333 258.06 16.7127C255.635 17.2921 253.368 18.3082 251.398 19.6986L255.244 22.3504C251.359 22.5327 247.542 23.3363 243.975 24.7232L245.959 27.714C243.762 27.7146 241.641 28.4352 239.998 29.7395C238.355 31.0437 237.303 32.8413 237.042 34.7922L240.564 35.9786C238.486 36.503 236.553 37.4109 234.89 38.6437C233.228 39.8765 231.872 41.4069 230.911 43.1365L233.62 44.2132C231.611 48.2567 227.956 51.4647 223.398 53.1856C225.456 53.6768 227.28 54.7537 228.593 56.2537C229.906 57.7537 230.638 59.5953 230.677 61.5001C227.712 59.8651 223.588 62.178 222.685 65.1788C221.782 68.1795 223.12 71.3498 224.714 74.1512C225.82 72.1355 226.069 69.8291 225.416 67.6611C226.287 68.0782 227.043 68.6626 227.631 69.3724C228.22 70.0821 228.625 70.8996 228.818 71.766C229.011 72.6325 228.986 73.5264 228.747 74.3835C228.508 75.2406 228.059 76.0397 227.433 76.7233C226.576 77.3313 225.824 78.0504 225.204 78.8567C224.09 80.8506 226.018 83.0039 227.779 84.5392C224.981 85.7455 221.938 87.1811 220.857 89.7831C220.043 91.777 220.523 93.9004 220.991 95.9441C221.459 97.9879 221.871 100.181 220.991 102.085C220.11 103.989 217.201 105.265 215.317 104.079C215.157 105.035 215.352 106.012 215.871 106.86C216.39 107.708 217.206 108.381 218.193 108.776C219.18 109.17 220.284 109.265 221.337 109.045C222.39 108.825 223.333 108.303 224.023 107.558C225.193 106.282 227.054 104.229 228.169 105.565C223.644 108.615 223.8 115.723 228.47 118.604C226.976 117.857 225.126 119.123 224.357 120.469C222.986 122.732 222.852 125.762 224.714 127.726C226.575 129.69 230.621 129.8 232.104 127.587C230.543 130.448 235.08 133.269 238.569 132.651C242.058 132.033 244.9 129.66 248.344 128.873C251.788 128.085 256.581 130.169 255.69 133.249C254.299 132.665 252.764 132.408 251.231 132.502C250.472 132.57 249.768 132.887 249.254 133.391C248.74 133.895 248.452 134.551 248.445 135.233C250.975 137.167 253.817 139.221 257.15 139.171C260.483 139.121 263.693 135.652 261.809 133.19C262.779 131.664 265.61 132.861 266.201 134.535C266.792 136.21 266.335 138.114 267.137 139.72C267.494 140.299 268.001 140.793 268.616 141.16C269.23 141.528 269.934 141.759 270.669 141.833C271.404 141.907 272.147 141.823 272.838 141.587C273.529 141.351 274.146 140.971 274.639 140.477C275.508 141.384 277.136 141.085 278.406 140.706C285.997 138.443 294.624 135.233 296.787 128.345C297.456 126.191 297.444 123.779 299.016 122.004C300.184 120.796 301.741 119.943 303.475 119.562C311.132 117.478 319.381 119.801 326.67 122.752C333.96 125.703 341.161 129.371 349.086 130.129C354.28 130.627 359.742 129.88 364.58 131.634C365.781 132.214 367.093 132.589 368.447 132.741C369.807 132.741 371.323 131.824 371.167 130.618C371.067 129.86 370.387 129.282 369.986 128.624C369.769 128.219 369.645 127.78 369.622 127.331C369.599 126.883 369.677 126.435 369.852 126.015C370.027 125.594 370.294 125.209 370.639 124.884C370.984 124.558 371.398 124.297 371.858 124.118C371.719 125.103 371.869 126.103 372.293 127.021C372.717 127.939 373.401 128.742 374.277 129.351C375.181 129.928 376.287 130.191 377.392 130.094C378.496 129.997 379.524 129.546 380.285 128.823C381.689 127.288 381.021 124.546 378.925 123.918C380.916 122.91 382.383 121.241 383.009 119.273C383.635 117.304 383.369 115.195 382.269 113.4C387.63 110.609 388.879 103.112 384.643 99.0546C387.05 97.974 388.981 96.2008 390.126 94.0202C391.27 91.8395 391.561 89.3781 390.952 87.0316C393.181 86.2539 395.411 85.3866 396.916 83.7217C398.42 82.0568 398.621 79.3452 396.815 77.9794C399.074 72.6779 400.343 67.0802 400.572 61.4104C400.638 59.7754 399.981 57.5721 398.164 57.6619C399.702 55.339 401.229 52.3482 399.546 50.1051C398.888 49.2378 397.83 48.6396 397.317 47.7125C396.001 45.4993 398.209 42.7278 397.417 40.3352C396.704 38.1519 393.928 37.2048 391.755 36.0184C388.533 34.2738 386.181 31.5322 383.15 29.5184C380.118 27.5046 375.882 26.2684 372.672 28.0131C372.272 25.2181 371.18 22.5381 369.475 20.1685C367.771 17.7988 365.497 15.7991 362.818 14.3152C357.245 11.3244 355.306 6.90795 347.76 6.07053C345.319 5.80135 342.331 6.61885 340.024 5.92099C337.293 5.00381 334.93 2.44168 332.366 1.20548Z" fill="#232323"/>
<path opacity="0.05" d="M320.319 70.9534C317.935 72.9608 319.886 76.8726 317.613 78.9645C316.505 79.987 314.609 80.306 313.733 81.488C312.624 83.017 313.733 85.1089 313.023 86.8069C312.103 88.8706 308.777 89.4804 307.613 91.4973C306.171 93.955 308.422 97.8105 305.628 99.2083C304.586 99.7336 303.078 99.6679 302.424 100.531C301.77 101.394 302.424 102.52 302.424 103.542C302.424 105.418 300.084 106.582 298.554 107.961C297.024 109.339 296.836 112.313 299.064 112.454C297.909 114.04 296.184 115.273 294.142 115.972C296.226 117.013 295.738 119.724 294.241 121.375C292.745 123.026 290.483 124.03 289.474 125.906C288.942 126.844 288.753 127.895 288.243 128.842C286.491 132.107 281.125 133.11 277.289 131.591C273.453 130.071 271.058 126.694 269.882 123.251C267.288 115.662 269.572 107.398 267.377 99.7242C266.113 95.2777 263.363 91.0376 263.574 86.4691C263.751 82.8294 265.791 79.4711 267.898 76.291C273.117 68.3749 278.878 60.7228 285.15 53.3738C291.159 46.3288 298.455 39.1244 308.489 37.3233C314.42 36.2632 320.585 37.2482 326.45 38.5521C343.624 42.3795 360.233 49.1806 372.585 59.9778C376.404 63.1269 379.423 66.9033 381.455 71.0753C383.328 75.2873 383.594 80.1559 381.31 84.2084C380.002 86.5348 377.829 88.8988 378.694 91.4128C379.084 92.1729 379.428 92.9494 379.725 93.7392C380.534 97.4916 373.072 99.3677 373.072 103.12C373.072 104.152 373.671 105.146 373.516 106.169C373.194 108.251 370.19 109.114 368.782 110.859C366.797 113.401 368.538 117.491 365.722 119.386C364.369 120.324 362.14 120.503 361.63 121.91C361.298 122.848 361.93 123.786 361.874 124.724C361.774 126.412 359.657 127.435 358.548 128.795C357.439 130.155 358.282 132.942 360.122 132.285L355.011 135.334L356.364 137.698C355.255 139.677 351.674 139.855 349.844 138.335C348.015 136.816 347.804 134.302 348.636 132.247C349.627 130.242 351.006 128.391 352.716 126.769C355.913 123.308 358.85 119.679 361.508 115.906C363.726 112.782 365.788 109.274 365.212 105.672C364.746 102.754 362.584 99.8461 363.726 97.0601L367.418 95.9343L361.176 89.7243L364.291 89.0958C363.263 88.3464 362.496 87.3732 362.074 86.2815C361.894 85.7368 361.973 85.1542 362.294 84.6582C362.616 84.1622 363.153 83.792 363.792 83.6268C365.644 79.002 354.922 75.1841 357.772 70.8689H354.956C354.914 68.5187 353.793 66.2746 351.829 64.6119C349.63 62.8561 346.756 61.8302 343.735 61.7227C340.11 61.5444 330.43 62.0228 327.404 64.0397C325.607 65.2311 326.461 66.6757 325.264 67.9703C323.978 69.565 321.827 69.6776 320.319 70.9534Z" fill="black"/>
<path d="M377.631 196.974C377.028 200.322 375.673 203.541 373.64 206.458C371.255 209.292 368.094 211.593 364.426 213.165C361.976 214.319 359.37 215.304 356.82 216.242L338.604 222.94C332.97 225.584 326.38 226.376 320.099 225.163L286.371 221.177C282.336 220.698 278.255 220.238 274.175 219.572C271.603 219.178 269.042 218.719 266.536 218.175C261.22 217.078 256.101 215.387 251.313 213.147C240.747 208.043 236.589 197.959 237.676 187.697C238.707 177.931 243.363 170.736 251.79 164.001L254.118 162.125L254.329 161.965L259.983 157.434L268.243 150.868C271.973 148.058 275.392 144.965 278.455 141.628C285.229 133.766 287.635 121.515 296.705 115.221C304.399 109.883 321.873 117.575 328.925 121.59C330.087 122.153 331.057 122.961 331.741 123.935C332.259 125.056 332.408 126.275 332.173 127.463C331.369 134.85 328.884 142.036 324.856 148.626C324.068 149.911 323.204 151.308 323.492 152.734C323.59 153.207 323.801 153.657 324.113 154.057C325.079 155.121 326.339 155.968 327.783 156.524C329.763 157.39 331.795 158.169 333.87 158.86C341.365 161.374 349.325 162.988 356.787 165.652C366.3 169.057 375.569 174.901 378.053 183.381C379.405 187.819 378.707 192.509 377.631 196.974Z" fill="#C6866B"/>
<path d="M334.622 157.741C336.061 162.3 343.175 184.189 347.502 185.284C349.128 185.699 356.254 198.301 365.028 214.891C382.433 247.783 406.278 296.328 406.278 296.328L305.046 294.176L261.041 293.19L267.392 220.111L268.653 205.604L280.083 202.061L284.565 200.67L283.868 177.843C283.868 177.843 274.031 155.56 255.176 160.958L260.819 156.191C270.103 156.103 280.327 161.471 290.086 177.843C290.086 177.843 346.793 245.691 341.261 182.778C341.261 182.778 331.579 155.639 321.897 151.316L324.863 152.639L334.622 157.741Z" fill="#252036"/>
<path opacity="0.05" d="M327.395 141.412C328.766 137.614 329.669 133.706 330.089 129.751C330.324 128.564 330.175 127.345 329.657 126.224C328.973 125.25 328.002 124.442 326.84 123.879C319.789 119.864 302.326 112.172 294.621 117.51C293.805 118.089 293.038 118.716 292.325 119.386C300.315 130.206 312.841 138.073 327.395 141.412Z" fill="black"/>
<path d="M288.023 103.777C292.79 121.938 311.85 136.356 333.481 139.846C338.26 140.624 344.069 140.596 346.974 137.285C348.848 135.146 348.915 132.238 350.301 129.78C351.487 127.66 353.627 126.028 355.456 124.311C357.954 121.904 360.146 119.282 361.998 116.488C368.318 107.247 372.353 96.6003 371.267 85.9625C370.614 81.2255 369.46 76.5476 367.819 71.9851C366.056 66.4973 363.949 60.5874 358.505 57.2573C346.564 49.9496 326.851 52.3699 314.433 57.1822C301.472 62.2103 292.258 72.5761 288.71 84.1051C286.634 90.5225 286.399 97.2665 288.023 103.777V103.777Z" fill="#C6866B"/>
<path d="M320.319 69.7802C317.935 71.7877 319.887 75.6995 317.614 77.7914C316.505 78.8139 314.609 79.1329 313.733 80.3148C312.624 81.8439 313.733 83.9358 313.024 85.6338C312.103 87.6975 308.777 88.3073 307.613 90.3241C306.172 92.7819 308.422 96.6374 305.628 98.0352C304.586 98.5605 303.078 98.4948 302.424 99.3578C301.77 100.221 302.424 101.347 302.424 102.369C302.424 104.245 300.085 105.408 298.554 106.787C297.024 108.166 296.836 111.14 299.064 111.281C297.909 112.867 296.184 114.1 294.142 114.799C296.226 115.84 295.738 118.551 294.242 120.202C292.745 121.853 290.538 122.95 289.485 124.789C288.953 125.727 288.764 126.778 288.254 127.725C286.503 130.99 281.136 131.994 277.3 130.474C273.464 128.954 271.069 125.577 269.894 122.134C267.299 114.545 269.583 106.281 267.388 98.6074C266.124 94.1609 263.374 89.9208 263.585 85.3523C263.762 81.7126 265.802 78.3543 267.909 75.1742C273.129 67.2581 278.889 59.606 285.161 52.2569C291.17 45.212 298.466 38.0075 308.5 36.2064C314.432 35.1464 320.596 36.1314 326.461 37.4353C343.636 41.2627 360.245 48.0637 372.596 58.861C376.416 62.0101 379.434 65.7865 381.466 69.9585C383.34 74.1704 383.606 79.0391 381.322 83.0915C380.013 85.418 377.84 87.782 378.705 90.296C379.095 91.0561 379.44 91.8326 379.736 92.6224C380.546 96.3747 373.084 98.2509 373.084 102.003C373.084 103.035 373.682 104.029 373.527 105.052C373.206 107.134 370.201 107.998 368.793 109.742C366.808 112.285 368.549 116.375 365.733 118.269C364.38 119.208 362.152 119.386 361.642 120.793C361.309 121.731 361.941 122.669 361.886 123.607C361.786 125.296 359.668 126.318 358.559 127.678C357.451 129.039 358.293 131.825 360.134 131.168L355.022 134.217L356.375 136.581C355.266 138.56 351.685 138.738 349.856 137.219C348.026 135.699 347.816 133.185 348.647 131.131C349.638 129.125 351.017 127.274 352.727 125.652C355.924 122.191 358.861 118.563 361.52 114.789C363.737 111.665 365.799 108.157 365.223 104.555C364.757 101.637 362.595 98.7293 363.737 95.9432L367.429 94.8175L361.187 88.6075L364.303 87.979C363.274 87.2296 362.507 86.2564 362.085 85.1647C361.905 84.62 361.985 84.0374 362.306 83.5414C362.627 83.0454 363.164 82.6752 363.804 82.5099C365.655 77.8852 354.934 74.0673 357.783 69.7521H354.967C354.925 67.4019 353.804 65.1577 351.84 63.4951C349.641 61.7393 346.768 60.7134 343.747 60.6058C340.121 60.4276 330.442 60.906 327.415 62.9229C325.619 64.1142 326.472 65.5589 325.275 66.8534C323.978 68.3919 321.827 68.5045 320.319 69.7802Z" fill="#232323"/>
<path d="M412.621 44.2925C398.33 52.3787 394.316 68.2041 388.373 81.8156C386.078 87.0688 383.34 92.2282 382.031 97.7629C380.379 104.648 381.056 111.759 380.923 118.785C380.404 133.56 376.098 148.062 368.3 161.289C360.503 174.516 349.401 186.151 335.764 195.389L417.589 216.026C422.777 217.422 428.056 218.566 433.399 219.45C441.16 220.604 449.054 220.67 456.926 220.726L507.019 221.101C510.8 221.101 515.224 220.895 517.353 218.287C518.306 216.944 518.747 215.385 518.617 213.822C518.439 205.238 510.722 198.259 506.93 190.304C500.832 177.509 514.769 165.755 514.248 151.965C514.004 145.558 513.749 136.083 514.248 129.686C515.357 114.873 515.534 101.346 513.539 86.5904C511.321 70.0239 494.036 58.2792 478.125 48.4294C460.829 37.7259 431.536 33.6265 412.621 44.2925Z" fill="#D94B25"/>
<path d="M431.027 112.622L430.683 160.999C421.37 161.412 412.127 162.597 403.086 164.535C395.528 166.13 388.943 170.048 384.612 175.526C380.281 181.004 378.515 187.65 379.659 194.169L390.491 256.57L507.607 262.433V202.04C505.926 195.244 501.218 189.257 494.459 185.32C487.7 181.383 479.41 179.798 471.307 180.895L466.717 181.514L477.117 131.093L431.027 112.622Z" fill="#FFC095"/>
<path d="M405.039 159.827C405.039 159.827 428.6 200.286 430.684 208.494C432.769 216.702 387.721 245.436 381.478 242.5C375.236 239.563 375.935 311.683 375.935 311.683L496.521 301.711L499.293 287.049C499.293 287.049 530.481 275.905 502.064 231.346L493.749 228.41C493.749 228.41 486.819 251.862 434.842 207.303L409.895 158.054L405.039 159.827Z" fill="#252036"/>
<path opacity="0.05" d="M498.249 286.176C498.249 286.176 474.688 287.94 472.604 283.831L468.446 283.24C468.446 283.24 461.516 296.139 396.378 282.649L375.855 282.058L371.42 290.876L498.437 294.394L498.249 286.176Z" fill="black"/>
<path opacity="0.05" d="M432.204 145.174C433.614 146.006 435.132 146.699 436.728 147.237C440.675 148.532 445.01 148.644 449.234 148.738C456.851 148.907 465.112 148.926 471.243 145.099C474.02 143.304 476.216 140.945 477.629 138.241L478.494 134.029L432.404 115.587L432.204 145.174Z" fill="black"/>
<path d="M403.577 86.5064C402.178 96.1768 403.509 105.99 407.46 115.141C411.411 124.292 417.869 132.52 426.306 139.151C428.908 141.311 431.961 143.044 435.309 144.264C439.256 145.558 443.591 145.671 447.815 145.765C455.432 145.934 463.692 145.952 469.824 142.125C477.097 137.594 479.004 129.245 480.368 121.694L484.625 98.1385C485.867 91.2812 487.02 83.8985 483.317 77.7072C476.997 67.1069 452.583 57.3228 438.834 58.5423C420.817 60.1651 405.949 71.4971 403.577 86.5064Z" fill="#FFC095"/>
<path opacity="0.05" d="M421.393 79.199C417.479 86.2065 414.74 94.0207 416.204 101.713C417.457 108.279 421.659 114.058 425.883 119.63C435.44 132.219 445.918 145.146 447.847 160.024C448.534 165.343 448.047 170.896 445.308 175.708C442.569 180.521 437.314 184.498 431.072 185.361C429.356 185.678 427.564 185.51 425.972 184.883C424.009 183.945 422.945 182.172 421.947 180.493C417.146 172.406 394.384 170.089 383.895 171.891C382.432 172.144 395.038 166.262 393.563 166.084C389.261 165.549 388.474 160.624 388.785 156.956L394.827 86.169C395.171 82.1634 395.526 78.1015 397.045 74.2929C402.588 60.5782 421.736 54.3212 438.866 53.9085C444.182 53.7198 449.504 54.1171 454.699 55.0904C466.651 57.4825 477.084 63.899 485.167 71.7225C490.711 77.1165 495.412 83.3829 497.252 90.3715C499.359 98.3733 497.64 106.703 496.066 114.762C488.66 152.801 484.613 192.556 498.405 229.291C485.289 231.543 470.92 223.663 467.971 212.631C466.795 208.222 467.261 203.635 467.727 199.142C469.512 181.937 471.297 164.724 474.379 147.66C476.763 134.658 479.923 121.685 480.144 108.523C480.322 97.7917 478.138 86.319 469.556 78.411C455.597 65.4656 431.36 61.3755 421.393 79.199Z" fill="black"/>
<path d="M421.393 78.0637C417.479 85.0711 414.74 92.8853 416.204 100.578C417.457 107.144 421.659 112.923 425.883 118.495C435.44 131.084 445.918 144.011 447.847 158.888C448.534 164.207 448.047 169.761 445.308 174.573C442.569 179.385 437.314 183.363 431.072 184.226C429.356 184.543 427.564 184.375 425.972 183.747C424.009 182.809 422.945 181.036 421.947 179.357C417.146 171.271 394.384 168.954 383.895 170.755C382.432 171.008 395.038 165.127 393.563 164.948C389.261 164.414 388.474 159.489 388.785 155.821L394.827 85.0336C395.171 81.028 395.526 76.9661 397.045 73.1576C402.588 59.4429 421.736 53.1859 438.866 52.7731C444.182 52.5845 449.504 52.9818 454.699 53.9551C466.651 56.3472 477.084 62.7637 485.167 70.5872C490.711 75.9812 495.412 82.2475 497.252 89.2362C499.359 97.238 497.64 105.568 496.066 113.626C488.66 151.665 484.613 191.421 498.405 228.156C485.289 230.407 470.92 222.528 467.971 211.496C466.795 207.087 467.261 202.5 467.727 198.006C469.512 180.802 471.297 163.588 474.379 146.525C476.763 133.523 479.923 120.549 480.144 107.388C480.322 96.6564 478.138 85.1837 469.556 77.2757C455.597 64.2927 431.36 60.2402 421.393 78.0637Z" fill="#D94B25"/>
<path d="M565.473 294.159H139.962V469.711H565.473V294.159Z" fill="#F3F0DD"/>
<path d="M42.2053 173.851C38.6019 175.417 34.9209 177.002 32.1158 179.479C29.3107 181.956 27.4369 185.417 25.9623 188.766C22.3589 196.965 20.1192 205.539 17.8907 214.094C9.94105 244.563 1.96924 275.21 0.23961 306.373C-0.192797 314.065 -0.214977 321.87 2.03576 329.328C4.49715 337.47 9.59734 344.853 14.9747 351.926C32.3699 374.778 53.3292 395.541 77.2857 413.651C78.7627 414.652 80.0491 415.838 81.0997 417.169C81.8691 418.447 82.4893 419.786 82.9513 421.165C87.3863 431.869 99.7597 438.501 111.28 444.308C115.903 446.634 120.659 448.998 125.97 449.758C128.709 450.143 131.514 450.096 134.142 450.978C138.155 452.338 140.794 455.668 144.652 457.347C148.511 459.026 154.942 457.047 153.899 453.492C157.514 455.846 163.313 450.856 160.463 447.863C163.313 449.411 167.26 446.85 167.625 443.998C167.991 441.147 166.084 438.473 164.299 436.062C158.046 427.798 151.582 419.346 142.202 413.548C132.168 407.385 119.606 404.824 109.273 399.027C99.2276 393.398 91.8212 385.04 84.7475 376.785C70.2748 359.9 56.2936 342.726 42.804 325.266C41.03 322.967 39.2228 320.575 38.6129 317.902C38.0031 315.228 38.613 312.273 39.3447 309.553C45.9369 283.534 55.2805 258.069 67.2627 233.465C70.3349 226.802 74.0429 220.361 78.3501 214.207C84.3151 206.036 92.054 198.85 97.7973 190.567C103.541 182.284 107.255 172.293 104.095 163.063C101.024 154.076 87.4639 144.536 77.6072 151.384C72.0635 155.202 68.2273 160.417 62.1736 164.057C55.8056 167.725 49.1321 170.998 42.2053 173.851Z" fill="#FFC095"/>
<path d="M391.7 347.292C389.166 342.206 385.487 337.586 380.868 333.69C378.716 331.868 376.374 330.213 373.872 328.746L373.661 328.615C366.965 324.753 359.273 322.304 351.23 321.473C343.186 320.643 335.024 321.454 327.427 323.84C327.087 323.94 326.743 324.053 326.395 324.178C326.063 324.281 325.73 324.403 325.409 324.515C314.818 328.297 306.065 335.018 300.591 343.571C295.118 352.124 293.25 361.999 295.297 371.57C297.343 381.141 303.18 389.837 311.848 396.226C320.515 402.615 331.496 406.316 342.982 406.719V428.042H315.707V431.625H342.982V454.702H347.229V431.625H374.492V428.042H347.217V406.7C355.376 406.405 363.33 404.444 370.398 400.985C377.467 397.525 383.442 392.67 387.812 386.833C392.182 380.997 394.818 374.352 395.495 367.467C396.172 360.581 394.87 353.659 391.7 347.292V347.292ZM345.133 403.173C334.127 403.166 323.484 399.845 315.107 393.806C306.73 387.767 301.165 379.403 299.409 370.211C297.653 361.018 299.82 351.597 305.522 343.633C311.224 335.668 320.089 329.68 330.531 326.739L331.385 326.495C335.838 325.331 340.472 324.74 345.133 324.741C352.7 324.731 360.152 326.3 366.831 329.309L367.053 329.412C376.15 333.544 383.357 340.127 387.529 348.119C391.701 356.11 392.599 365.051 390.081 373.523C387.563 381.995 381.774 389.514 373.631 394.885C365.488 400.257 355.458 403.174 345.133 403.173V403.173Z" fill="#6C63FF"/>
<path d="M98.0847 63.3452C94.0489 72.2101 96.2552 82.1068 98.5171 91.4876C99.8143 96.8252 101.145 102.247 104.216 107.041C106.698 110.776 109.98 114.088 113.895 116.806C123.57 123.625 135.679 127.485 148.266 127.763C150.78 127.932 153.306 127.611 155.65 126.825C158.599 125.681 160.64 123.373 162.547 121.197C167.37 115.568 172.237 109.94 175.552 103.636C181.506 92.2756 182.094 79.499 182.581 67.0507C182.803 65.2176 182.576 63.3657 181.916 61.6098C181.369 60.5648 180.652 59.5892 179.787 58.7111C170.918 48.9082 153.943 33.1767 137.866 37.7639C122.898 41.9665 104.072 50.184 98.0847 63.3452Z" fill="#FFC095"/>
<path opacity="0.05" d="M141.082 451.55C138.51 450.678 135.649 450.725 132.911 450.331C127.6 449.58 122.843 447.207 118.22 444.88C106.689 439.074 94.3379 432.441 89.8918 421.738C89.4298 420.358 88.8097 419.02 88.0403 417.742C86.9896 416.411 85.7032 415.224 84.2262 414.224C60.2697 396.113 39.3104 375.351 21.9153 352.498C16.5379 345.425 11.4377 338.043 8.97631 329.9C6.75883 322.442 6.75882 314.638 7.18014 306.945C8.90977 275.782 16.8816 245.135 24.8312 214.667C27.0487 206.121 29.2662 197.547 32.9028 189.338C34.3774 185.99 36.1293 182.631 39.0563 180.051C41.9834 177.472 45.5424 175.99 49.1458 174.423C56.0691 171.567 62.739 168.291 69.103 164.62C75.1567 160.98 79.0262 155.765 84.5366 151.947C85.7539 151.1 87.155 150.463 88.6611 150.071C86.7754 149.571 84.7715 149.481 82.8339 149.809C80.8963 150.137 79.0874 150.872 77.5738 151.947C72.0301 155.765 68.1939 160.98 62.1402 164.62C55.7761 168.291 49.1063 171.567 42.1829 174.423C38.5795 175.99 34.8986 177.575 32.0935 180.051C29.2884 182.528 27.4146 185.99 25.94 189.338C22.3366 197.537 20.0969 206.111 17.8684 214.667C9.97416 245.135 1.95801 275.773 0.228379 306.955C-0.204028 314.647 -0.226208 322.452 2.02453 329.909C4.48592 338.052 9.5861 345.435 14.9635 352.508C32.3586 375.36 53.318 396.123 77.2744 414.233C78.7514 415.234 80.0378 416.42 81.0885 417.751C81.8579 419.029 82.478 420.368 82.9401 421.747C87.375 432.451 99.7485 439.083 111.268 444.89C115.892 447.216 120.648 449.58 125.959 450.34C128.698 450.725 131.503 450.678 134.13 451.56C138.144 452.92 140.783 456.25 144.641 457.929C145.704 458.333 146.858 458.534 148.023 458.519C149.187 458.505 150.334 458.275 151.382 457.845C147.635 456.109 145.029 452.892 141.082 451.55Z" fill="black"/>
<path d="M110.779 57.7823C104.038 66.9285 102.785 78.5419 106.001 88.9734C108.407 96.7969 113.196 104.921 109.959 112.557C107.52 118.288 100.723 124.001 104.094 129.386C104.848 130.586 106.067 131.581 106.511 132.885C107.265 135.108 105.568 137.313 104.393 139.395C98.2507 150.239 105.591 162.706 109.183 174.338C111.844 182.95 112.387 191.909 112.919 200.802L106.267 186.421C103.526 198.486 97.5896 209.868 88.904 219.713C93.7892 219.759 98.642 220.391 103.318 221.589C99.8577 221.237 96.3676 221.999 93.5408 223.723C90.7139 225.447 88.757 228.008 88.0588 230.897C87.3606 233.786 87.9722 236.791 89.772 239.316C91.5718 241.841 94.4283 243.7 97.7739 244.525C90.9663 245.801 83.9369 241.88 80.6772 236.664C77.4175 231.449 77.1625 225.285 77.5506 219.394L72.0069 219.779C77.5493 208.512 79.9069 196.306 78.8921 184.132C78.4376 178.747 76.342 172.387 70.244 170.802L68.4146 185.089L60.975 172.406C60.4952 171.291 59.585 170.346 58.3916 169.723C57.4836 169.483 56.5576 169.295 55.6198 169.16C52.7038 168.4 51.5729 165.183 52.4821 162.725C53.3912 160.267 55.7306 158.401 57.9592 156.637C65.4986 150.671 73.0159 144.311 77.096 136.29C80.8879 128.842 81.4311 120.54 81.8303 112.435C82.3034 102.935 82.6729 93.4292 82.939 83.9171C83.1275 76.4125 83.2495 68.8516 85.1565 61.5346C88.4827 49.1426 97.3526 37.6323 110.402 31.3003C123.452 24.9683 140.482 24.396 153.322 30.972C161.083 34.9307 166.815 41.0469 172.414 47.0319L188.48 64.1987C191.806 67.754 195.199 71.4125 196.74 75.7464C199.578 83.7389 195.631 92.2848 190.819 99.5924C186.007 106.9 180.231 114.095 179.055 122.378C177.703 131.956 182.747 141.252 187.67 149.948C193.923 160.999 200.277 172.19 209.69 181.496C214.479 186.233 220.267 190.83 221.62 196.956C220.599 197.66 219.397 198.152 218.111 198.392C216.824 198.632 215.489 198.612 214.213 198.335C218.035 211.18 221.091 224.166 223.383 237.293C209.745 229.688 196.518 221.589 183.701 212.997C183.167 215.133 182.004 217.121 180.32 218.776C178.635 220.431 176.484 221.698 174.066 222.462C173.678 218.822 175.175 215.239 175.385 211.59C175.596 207.94 173.933 203.682 169.842 202.584C167.447 201.946 164.609 202.49 162.58 201.243C161.094 200.304 160.517 198.71 160.029 197.199L150.783 168.475C145.163 168.248 139.584 169.387 134.706 171.759C141.661 168.474 146.831 163.027 149.119 156.571L129.883 156.318C134.961 152.253 139.88 148.053 144.64 143.72C151.57 137.416 158.189 130.793 163.234 123.316C177.392 102.369 177.592 75.1555 163.733 54.0581C161.438 50.559 158.699 47.1538 154.863 44.8555C140.992 36.7036 118.385 47.4728 110.779 57.7823Z" fill="#D67820"/>
<path opacity="0.05" d="M192.914 289.516C192.914 287.011 194.333 284.676 195.797 282.499C197.815 279.516 199.981 276.608 202.294 273.775C203.955 271.475 206.15 269.484 208.747 267.922C211.441 266.496 215.045 266.045 217.794 267.359C218.396 267.764 219.116 268.023 219.879 268.109C220.987 268.109 221.719 267.171 222.706 266.815C224.48 266.12 226.52 267.227 227.762 268.513C229.004 269.798 229.979 271.327 231.764 272.068C232.407 272.331 233.128 272.452 233.782 272.696C236.055 273.541 237.264 275.614 238.284 277.537C239.093 278.809 239.565 280.214 239.67 281.655C239.67 284.169 237.452 286.224 235.357 288.025L229.99 292.715C228.629 294.026 227.04 295.156 225.278 296.064C224.392 296.512 223.397 296.786 222.369 296.866C221.34 296.945 220.303 296.828 219.335 296.524C218.864 296.267 218.309 296.146 217.75 296.177C217.332 296.302 216.974 296.539 216.73 296.852C215.542 298.084 214.432 299.368 213.404 300.698C212.534 302.104 211.275 303.311 209.734 304.216C208.093 304.985 205.62 304.732 204.877 303.278C204.788 302.991 204.617 302.726 204.379 302.509C203.702 302.058 202.837 302.79 202.05 303.071C200.731 303.55 199.179 302.612 198.724 301.458C198.41 300.267 198.495 299.027 198.968 297.874C197.981 297.199 196.54 297.602 195.265 297.659C192.637 297.781 193.169 296.355 193.236 295.06C193.446 293.165 192.97 291.392 192.914 289.516Z" fill="black"/>
<path d="M192.26 290.688C192.26 288.183 193.679 285.848 195.143 283.671C197.161 280.688 199.326 277.78 201.64 274.947C203.301 272.647 205.496 270.656 208.093 269.094C210.787 267.668 214.39 267.218 217.14 268.531C217.742 268.936 218.462 269.195 219.224 269.281C220.333 269.281 221.065 268.343 222.052 267.987C223.826 267.293 225.866 268.4 227.108 269.685C228.349 270.97 229.325 272.499 231.11 273.24C231.753 273.503 232.474 273.625 233.128 273.868C235.401 274.713 236.609 276.786 237.629 278.709C238.438 279.981 238.911 281.386 239.015 282.827C239.015 285.341 236.798 287.396 234.702 289.197L229.336 293.887C227.975 295.198 226.386 296.328 224.624 297.236C223.737 297.684 222.743 297.958 221.714 298.038C220.686 298.117 219.649 298 218.681 297.696C218.21 297.439 217.654 297.318 217.096 297.349C216.678 297.474 216.32 297.711 216.076 298.024C214.888 299.256 213.778 300.54 212.749 301.87C211.88 303.276 210.62 304.483 209.08 305.388C207.439 306.157 204.966 305.904 204.223 304.45C204.134 304.163 203.963 303.898 203.724 303.681C203.048 303.23 202.183 303.962 201.396 304.243C200.077 304.722 198.524 303.784 198.07 302.63C197.756 301.439 197.841 300.199 198.314 299.046C197.327 298.371 195.886 298.774 194.611 298.831C191.983 298.953 192.515 297.527 192.582 296.232C192.748 294.337 192.282 292.564 192.26 290.688Z" fill="#FFC095"/>
<path opacity="0.05" d="M378.364 243.381L311.23 287.367L264.663 317.846C236.246 340.125 227.243 308.465 227.243 308.465L234.173 216.411C233.918 192.828 238.497 179.076 244.473 171.13C249.407 164.564 255.294 161.974 260.195 161.074L261.015 160.943C264.074 160.464 267.223 160.586 270.218 161.299C290.175 167.912 289.487 186.73 286.172 199.854C285.012 204.506 283.383 209.066 281.305 213.484C281.367 215.131 281.296 216.78 281.094 218.419C279.731 233.372 272.989 273.296 272.989 273.296L353.373 226.974L378.364 243.381Z" fill="black"/>
<path d="M376.278 243.381L309.144 287.367L262.577 317.846C234.16 340.125 225.157 308.465 225.157 308.465L232.087 216.411C231.832 192.828 236.411 179.076 242.387 171.13C247.321 164.564 253.209 161.974 258.109 161.074L258.93 160.943C261.989 160.464 265.137 160.586 268.132 161.299C288.089 167.912 287.402 186.73 284.087 199.854C282.926 204.506 281.298 209.066 279.219 213.484C279.281 215.131 279.211 216.78 279.009 218.419C277.645 233.372 270.904 273.296 270.904 273.296L351.287 226.974L376.278 243.381Z" fill="#C6866B"/>
<path opacity="0.05" d="M355.834 212.012C355.834 212.012 319.8 282.959 325.343 316.382C325.343 316.382 317.028 336.907 383.552 327.527L477.795 309.938L503.44 315.219L508.983 321.082V337.498C508.983 337.498 516.612 342.189 518.685 337.498C520.758 332.808 518.685 320.491 518.685 320.491L523.541 327.527L525.626 341.598C525.626 341.598 531.169 345.116 533.254 341.598L530.471 321.026C530.471 321.026 541.558 340.378 546.414 338.615C551.271 336.851 540.172 314.572 540.172 314.572C542.339 314.57 544.467 315.057 546.338 315.982C548.209 316.906 549.754 318.236 550.816 319.834C553.034 323.09 555.894 326.401 558.189 325.135C562.347 322.789 558.189 316.335 558.189 316.335L548.488 304.609C534.988 295.854 518.508 291.017 501.5 290.82L377.321 289.366C377.321 289.366 394.651 254.769 396.037 237.771C396.037 237.771 396.735 227.218 411.98 220.182C427.225 213.147 373.851 150.446 355.834 212.012Z" fill="black"/>
<path d="M407.112 174.48C407.112 174.48 372.464 150.437 354.447 212.003C354.447 212.003 318.413 282.95 323.957 316.373C323.957 316.373 315.641 336.899 382.166 327.518L476.408 309.929L502.053 315.21L507.597 321.073V337.49C507.597 337.49 515.225 342.18 517.298 337.49C519.372 332.799 517.298 320.482 517.298 320.482L522.155 327.518L524.239 341.589C524.239 341.589 529.783 345.107 531.867 341.589L529.084 321.026C529.084 321.026 540.172 340.379 545.028 338.615C549.884 336.852 538.841 314.619 538.841 314.619C541.008 314.617 543.136 315.104 545.007 316.029C546.878 316.954 548.423 318.284 549.485 319.882C551.702 323.137 554.563 326.448 556.858 325.182C561.016 322.837 556.858 316.383 556.858 316.383L547.157 304.657C533.656 295.901 517.177 291.065 500.168 290.867L375.99 289.413C375.99 289.413 393.319 254.817 394.705 237.819C394.705 237.819 395.404 227.265 410.649 220.23C425.894 213.194 407.112 174.48 407.112 174.48Z" fill="#FFC095"/>
<g opacity="0.1">
<path opacity="0.1" d="M534.962 156.496C538.688 146.926 541.419 137.098 543.122 127.125C544.718 117.777 545.371 108.331 545.073 98.889C544.869 105.395 544.218 111.885 543.122 118.326C541.419 128.299 538.688 138.127 534.962 147.697C533.941 149.935 533.284 152.28 533.01 154.667C532.941 156.316 533.222 157.962 533.842 159.526C534.175 158.476 534.574 157.434 534.962 156.496Z" fill="white"/>
<path opacity="0.1" d="M656.335 123.907C655.757 126.162 655.6 128.479 655.869 130.774C656.018 131.696 656.271 132.604 656.623 133.485C658.02 137.031 660.837 140.174 663.586 143.166L674.729 155.361C676.758 157.575 679.009 159.92 682.146 160.755L682.468 160.84C684.364 161.271 686.415 161.112 688.222 161.778C689.256 162.184 690.161 162.792 690.863 163.552C691.564 164.312 692.043 165.202 692.258 166.149C692.402 165.277 692.524 164.414 692.635 163.541C693.123 159.545 692.635 154.526 688.2 152.978C686.393 152.341 684.342 152.5 682.446 152.04L682.124 151.956C678.987 151.121 676.736 148.776 674.707 146.562L663.564 134.367C660.814 131.375 658.02 128.232 656.601 124.686C656.513 124.433 656.413 124.17 656.335 123.907Z" fill="white"/>
</g>
<path d="M182.504 316.748C180.487 315.074 177.767 314.146 174.941 314.169C172.115 314.192 169.416 315.163 167.437 316.87C165.458 318.577 164.361 320.879 164.388 323.27C164.415 325.66 165.564 327.944 167.581 329.618L182.793 342.245L197.716 329.375C199.695 327.668 200.792 325.366 200.765 322.975C200.738 320.584 199.589 318.3 197.572 316.626C195.555 314.952 192.834 314.024 190.008 314.047C187.183 314.07 184.483 315.041 182.504 316.748V316.748Z" fill="#EB5E30"/>
<path d="M507.541 420.528C505.524 418.854 502.803 417.926 499.977 417.949C497.152 417.972 494.452 418.943 492.473 420.65C490.494 422.357 489.398 424.659 489.425 427.05C489.452 429.44 490.6 431.724 492.617 433.399L507.796 446.016L522.72 433.145C523.7 432.3 524.473 431.3 524.996 430.202C525.519 429.104 525.782 427.93 525.768 426.746C525.755 425.562 525.466 424.392 524.918 423.303C524.37 422.213 523.574 421.226 522.576 420.397C521.577 419.568 520.395 418.913 519.097 418.471C517.799 418.028 516.411 417.806 515.012 417.817C513.613 417.829 512.23 418.073 510.942 418.537C509.655 419 508.488 419.674 507.508 420.519L507.541 420.528Z" fill="#EB5E30"/>
</svg>
