<svg width="410" height="230" viewBox="0 0 410 230" fill="none" xmlns="http://www.w3.org/2000/svg">
<path d="M345.356 29H104.644C103.184 29 102 30.1849 102 31.6465V146.354C102 147.815 103.184 149 104.644 149H345.356C346.816 149 348 147.815 348 146.354V31.6465C348 30.1849 346.816 29 345.356 29Z" fill="#F5F5F5"/>
<path d="M344.7 149H104.3C102.48 149 101 147.52 101 145.701V31.2993C101 29.48 102.48 28 104.3 28H344.7C346.52 28 348 29.48 348 31.2993V145.701C348 147.52 346.52 149 344.7 149H344.7ZM104.3 29.3197C103.208 29.3197 102.32 30.2077 102.32 31.2993V145.701C102.32 146.792 103.208 147.68 104.3 147.68H344.7C345.792 147.68 346.68 146.792 346.68 145.701V31.2993C346.68 30.2077 345.792 29.3197 344.7 29.3197H104.3Z" fill="#FF6F29"/>
<path d="M341 46.5499V130.274C341 130.441 340.862 130.574 340.699 130.561C340.481 130.544 340.26 130.535 340.037 130.535C335.296 130.535 331.45 134.491 331.45 139.371C331.45 139.813 331.482 140.247 331.544 140.671C331.569 140.845 331.437 141 331.267 141H119.475C119.305 141 119.173 140.845 119.198 140.671C119.273 140.157 119.304 139.628 119.287 139.088C119.145 134.429 115.437 130.645 110.908 130.537C110.367 130.525 109.837 130.563 109.323 130.648C109.153 130.676 109 130.54 109 130.363V46.4606C109 46.2838 109.153 46.1478 109.323 46.1761C109.741 46.2455 110.17 46.2837 110.607 46.2885C115.267 46.3405 119.163 42.4922 119.288 37.6998C119.31 36.8905 119.226 36.1042 119.048 35.3555C119.005 35.1742 119.139 35 119.32 35H331.422C331.603 35 331.737 35.1741 331.694 35.3554C331.535 36.0284 331.45 36.7318 331.45 37.4551C331.45 42.3347 335.296 46.2892 340.038 46.2892C340.26 46.2892 340.481 46.2804 340.7 46.2628C340.862 46.2498 341 46.3826 341 46.55L341 46.5499Z" fill="#F5F5F5"/>
<path d="M330.619 141H119.122C118.851 141 118.592 140.882 118.413 140.677C118.233 140.469 118.151 140.194 118.191 139.921C118.261 139.441 118.288 138.948 118.273 138.456C118.141 134.132 114.749 130.667 110.551 130.568C110.059 130.556 109.568 130.591 109.092 130.67C108.822 130.715 108.547 130.639 108.337 130.462C108.123 130.282 108 130.018 108 129.737V46.0841C108 45.8038 108.123 45.5396 108.336 45.3596C108.547 45.1828 108.822 45.1071 109.093 45.1519C109.479 45.216 109.876 45.2505 110.274 45.2551C110.302 45.2554 110.331 45.2555 110.359 45.2555C114.617 45.2555 118.159 41.7194 118.274 37.332C118.293 36.5961 118.219 35.8661 118.052 35.1626C117.984 34.8777 118.05 34.5832 118.232 34.3546C118.412 34.1292 118.68 34 118.967 34H330.774C331.061 34 331.329 34.1291 331.509 34.3544C331.691 34.5829 331.757 34.8774 331.689 35.1622C331.54 35.7929 331.464 36.4464 331.464 37.1051C331.464 41.5994 335.014 45.2557 339.378 45.2557C339.582 45.2557 339.786 45.2475 339.985 45.2315C340.244 45.2108 340.502 45.2996 340.694 45.4751C340.888 45.6536 341 45.908 341 46.1731V129.648C341 129.914 340.888 130.168 340.693 130.347C340.502 130.522 340.244 130.611 339.985 130.59C339.786 130.574 339.582 130.566 339.378 130.566C335.014 130.566 331.464 134.223 331.464 138.718C331.464 139.121 331.493 139.526 331.55 139.921C331.59 140.194 331.509 140.47 331.328 140.677C331.149 140.882 330.89 141 330.619 141V141ZM119.552 139.685H330.189C330.157 139.365 330.141 139.041 330.141 138.718C330.141 133.498 334.285 129.251 339.378 129.251C339.478 129.251 339.578 129.253 339.677 129.256V46.5654C339.578 46.5687 339.478 46.5704 339.378 46.5704C334.285 46.5704 330.141 42.3243 330.141 37.1051C330.141 36.5017 330.196 35.9014 330.306 35.3147H119.435C119.56 35.9862 119.615 36.6743 119.597 37.3662C119.463 42.4624 115.329 46.57 110.359 46.5703C110.326 46.5703 110.293 46.5701 110.259 46.5697C109.946 46.5663 109.632 46.5467 109.323 46.5114V129.31C109.738 129.263 110.16 129.243 110.583 129.254C112.944 129.31 115.176 130.289 116.867 132.013C118.553 133.73 119.522 136.004 119.595 138.416C119.608 138.84 119.594 139.265 119.552 139.685L119.552 139.685Z" fill="#FF6F29"/>
<path d="M326.356 49H85.6436C84.1836 49 83 50.1849 83 51.6465V166.354C83 167.815 84.1836 169 85.6436 169H326.356C327.816 169 329 167.815 329 166.354V51.6465C329 50.1849 327.816 49 326.356 49Z" fill="#F5F5F5"/>
<path d="M325.7 169H85.3002C83.4805 169 82 167.52 82 165.701V51.2993C82 49.48 83.4805 48 85.3002 48H325.7C327.52 48 329 49.48 329 51.2993V165.701C329 167.52 327.52 169 325.7 169V169ZM85.3002 49.3197C84.2083 49.3197 83.3201 50.2077 83.3201 51.2993V165.701C83.3201 166.792 84.2083 167.68 85.3002 167.68H325.7C326.792 167.68 327.68 166.792 327.68 165.701V51.2993C327.68 50.2077 326.792 49.3197 325.7 49.3197H85.3002Z" fill="#FF6F29"/>
<path d="M322 66.5499V150.274C322 150.441 321.862 150.574 321.7 150.561C321.481 150.544 321.26 150.535 321.038 150.535C316.296 150.535 312.45 154.491 312.45 159.371C312.45 159.813 312.482 160.247 312.544 160.671C312.569 160.845 312.437 161 312.267 161H100.475C100.305 161 100.173 160.845 100.198 160.671C100.273 160.157 100.304 159.628 100.287 159.088C100.145 154.429 96.4373 150.645 91.9081 150.537C91.3668 150.525 90.8367 150.563 90.3225 150.648C90.153 150.676 90 150.54 90 150.363V66.4606C90 66.2838 90.1531 66.1478 90.3228 66.1761C90.7412 66.2455 91.1701 66.2837 91.607 66.2885C96.2669 66.3405 100.163 62.4921 100.288 57.6998C100.31 56.8905 100.226 56.1042 100.048 55.3555C100.005 55.1742 100.139 55 100.32 55H312.422C312.603 55 312.737 55.1741 312.694 55.3554C312.535 56.0284 312.45 56.7318 312.45 57.4551C312.45 62.3347 316.296 66.2892 321.038 66.2892C321.26 66.2892 321.481 66.2804 321.7 66.2628C321.862 66.2498 322 66.3825 322 66.55V66.5499Z" fill="#F5F5F5"/>
<path d="M311.619 161H100.122C99.8502 161 99.5919 160.882 99.4131 160.677C99.2321 160.469 99.1511 160.194 99.1907 159.921C99.2604 159.441 99.2882 158.948 99.2733 158.456C99.141 154.132 95.749 150.667 91.5512 150.568C91.0588 150.557 90.5683 150.591 90.0924 150.67C89.8214 150.714 89.5463 150.638 89.3364 150.462C89.1226 150.282 89 150.018 89 149.737V66.0841C89 65.8038 89.1226 65.5396 89.3365 65.3597C89.5465 65.1828 89.8222 65.1071 90.0925 65.1519C90.4786 65.216 90.876 65.2505 91.2736 65.2551C91.3019 65.2554 91.331 65.2555 91.3591 65.2555C95.6174 65.2555 99.1594 61.7194 99.2742 57.332C99.2935 56.5958 99.2186 55.8659 99.0519 55.1626C98.9843 54.8777 99.05 54.5832 99.2321 54.3546C99.4116 54.1292 99.6795 54 99.9671 54H311.774C312.062 54 312.329 54.1292 312.509 54.3547C312.691 54.5833 312.757 54.8778 312.689 55.1626C312.54 55.7929 312.464 56.4466 312.464 57.105C312.464 61.5993 316.014 65.2557 320.377 65.2557C320.581 65.2557 320.786 65.2475 320.985 65.2315C321.243 65.211 321.502 65.2994 321.694 65.4751C321.888 65.6538 322 65.9082 322 66.1732V149.649C322 149.914 321.888 150.168 321.694 150.347C321.502 150.522 321.244 150.611 320.986 150.59C320.786 150.574 320.582 150.566 320.377 150.566C316.014 150.566 312.464 154.223 312.464 158.718C312.464 159.121 312.493 159.526 312.55 159.921C312.59 160.194 312.509 160.47 312.328 160.677C312.149 160.882 311.89 161 311.619 161V161ZM100.552 159.685H311.189C311.157 159.365 311.141 159.041 311.141 158.718C311.141 153.498 315.284 149.251 320.377 149.251C320.477 149.251 320.578 149.253 320.677 149.256V66.5653C320.577 66.5685 320.477 66.5703 320.377 66.5703C315.284 66.5703 311.141 62.3242 311.141 57.1049C311.141 56.5015 311.196 55.9012 311.306 55.3146H100.435C100.56 55.9858 100.614 56.6739 100.596 57.3661C100.463 62.4623 96.3288 66.5699 91.359 66.5701C91.3254 66.5701 91.2923 66.57 91.2586 66.5696C90.9454 66.5662 90.6321 66.5466 90.3226 66.5112V149.31C90.7379 149.263 91.1599 149.243 91.5825 149.254C93.9435 149.31 96.1754 150.289 97.8666 152.013C99.5524 153.73 100.521 156.004 100.595 158.416C100.608 158.84 100.593 159.265 100.552 159.685V159.685Z" fill="#FF6F29"/>
<path d="M210.5 136C225.688 136 238 123.688 238 108.5C238 93.3122 225.688 81 210.5 81C195.312 81 183 93.3122 183 108.5C183 123.688 195.312 136 210.5 136Z" fill="#F5F5F5"/>
<path d="M210 136C194.561 136 182 123.439 182 108C182 92.5607 194.561 80 210 80C225.439 80 238 92.5607 238 108C238 123.439 225.439 136 210 136ZM210 81.3151C195.286 81.3151 183.315 93.2859 183.315 108C183.315 122.714 195.286 134.685 210 134.685C224.714 134.685 236.685 122.714 236.685 108C236.685 93.2857 224.714 81.3151 210 81.3151Z" fill="#FF6F29"/>
<path d="M242 204C261.33 204 277 203.105 277 202C277 200.895 261.33 200 242 200C222.67 200 207 200.895 207 202C207 203.105 222.67 204 242 204Z" fill="#2C67F2"/>
<path d="M242 228C232.81 228 224.167 227.714 217.663 227.195C214.485 226.942 211.984 226.645 210.231 226.314C207.876 225.87 207 225.414 207 224.631V219H208.321V224.471C208.667 224.682 210.421 225.402 218.732 226.016C225.078 226.485 233.341 226.743 242 226.743C250.659 226.743 258.922 226.485 265.269 226.016C273.579 225.402 275.333 224.682 275.679 224.471V219H277V224.631C277 225.414 276.124 225.87 273.769 226.314C272.016 226.645 269.515 226.942 266.337 227.195C259.833 227.714 251.19 228 242 228Z" fill="#2C67F2"/>
<path d="M242 222C232.81 222 224.167 221.714 217.663 221.195C214.485 220.942 211.984 220.645 210.231 220.314C207.876 219.87 207 219.414 207 218.631V213H208.321V218.471C208.667 218.682 210.421 219.402 218.732 220.016C225.078 220.485 233.341 220.743 242 220.743C250.659 220.743 258.922 220.485 265.269 220.016C273.579 219.402 275.333 218.682 275.679 218.471V213H277V218.631C277 219.414 276.124 219.87 273.769 220.314C272.016 220.645 269.515 220.942 266.337 221.195C259.833 221.714 251.19 222 242 222Z" fill="#2C67F2"/>
<path d="M242 216C232.81 216 224.167 215.714 217.663 215.195C214.485 214.942 211.984 214.645 210.231 214.314C207.876 213.87 207 213.414 207 212.631V207H208.321V212.471C208.667 212.682 210.421 213.402 218.732 214.016C225.078 214.485 233.341 214.743 242 214.743C250.659 214.743 258.922 214.485 265.269 214.016C273.579 213.402 275.333 212.682 275.679 212.471V207H277V212.631C277 213.414 276.124 213.87 273.769 214.314C272.016 214.645 269.515 214.942 266.337 215.195C259.833 215.714 251.19 216 242 216Z" fill="#2C67F2"/>
<path d="M242 211C232.81 211 224.167 210.714 217.663 210.195C214.485 209.942 211.984 209.645 210.231 209.314C207.876 208.87 207 208.414 207 207.631V202H208.321V207.471C208.667 207.682 210.421 208.402 218.732 209.016C225.078 209.485 233.341 209.743 242 209.743C250.659 209.743 258.922 209.485 265.269 209.016C273.579 208.402 275.333 207.682 275.679 207.471V202H277V207.631C277 208.414 276.124 208.87 273.769 209.314C272.016 209.645 269.515 209.942 266.337 210.195C259.833 210.714 251.19 211 242 211Z" fill="#2C67F2"/>
<path d="M181.346 124.191C185.415 117.618 198.002 117.877 205.45 121.691C208.177 123.088 210.562 125.217 213.777 127.867C217.977 131.329 219.436 133.077 222.834 136.101C230.56 142.975 231.48 141.261 234.667 145.07C239.858 151.274 240.768 159.274 240.949 161.98C241.34 167.827 239.746 170.22 241.387 176.389C242.374 180.098 243.393 180.897 242.848 182.565C241.033 188.12 226.153 190.192 222.25 185.064C221.591 184.2 221.18 183.044 220.643 181.536C219.409 178.072 219.279 175.293 219.182 174.184C218.588 167.372 213.751 161.581 213.338 161.097C209.761 156.906 207.296 158.337 199.168 154.04C194.501 151.572 186.947 147.578 182.953 139.63C181.928 137.592 177.95 129.677 181.346 124.191V124.191Z" fill="#FF6F29"/>
<path d="M231.209 189C227.691 189 224.22 188.122 222.548 185.925C221.855 185.015 221.426 183.813 220.884 182.29C219.736 179.067 219.525 176.415 219.423 175.141C219.414 175.021 219.405 174.914 219.397 174.818C218.814 168.132 214.132 162.476 213.6 161.853C211.591 159.501 209.997 158.982 207.355 158.121C205.39 157.482 202.946 156.685 199.45 154.838C194.819 152.39 187.07 148.294 183.006 140.213C182.47 139.148 181.216 136.653 180.505 133.682C179.606 129.921 179.908 126.789 181.405 124.373C183.334 121.258 187.277 119.366 192.507 119.047C197.15 118.764 202.218 119.771 206.067 121.741C208.45 122.961 210.529 124.69 213.162 126.878C213.592 127.237 214.037 127.606 214.498 127.986C217.085 130.118 218.617 131.582 220.239 133.132C221.246 134.094 222.287 135.09 223.614 136.269C227.685 139.89 229.876 141.132 231.476 142.038C232.937 142.866 233.992 143.464 235.544 145.318C240.688 151.462 241.728 159.382 241.937 162.503C242.092 164.823 241.941 166.581 241.796 168.282C241.571 170.92 241.376 173.198 242.367 176.921C242.736 178.307 243.107 179.277 243.405 180.056C243.906 181.368 244.208 182.159 243.83 183.316C242.849 186.32 238.574 188.06 234.901 188.687C233.717 188.889 232.46 189 231.209 189V189ZM181.684 124.547L181.962 124.722C180.449 127.165 179.504 131.784 183.592 139.914C187.561 147.807 195.194 151.842 199.755 154.252C203.201 156.074 205.617 156.86 207.557 157.492C210.214 158.357 211.969 158.929 214.098 161.422C214.644 162.062 219.45 167.868 220.051 174.761C220.06 174.857 220.069 174.967 220.078 175.088C220.177 176.334 220.384 178.927 221.502 182.067C222.025 183.535 222.439 184.695 223.069 185.523C225.17 188.282 230.47 188.773 234.791 188.035C239.169 187.288 242.473 185.354 243.206 183.109C243.511 182.176 243.271 181.547 242.791 180.293C242.488 179.499 242.11 178.511 241.732 177.091C240.711 173.257 240.92 170.813 241.141 168.225C241.285 166.549 241.433 164.816 241.281 162.547C241.077 159.492 240.06 151.738 235.042 145.744C233.566 143.981 232.606 143.437 231.154 142.614C229.528 141.693 227.302 140.432 223.179 136.764C221.843 135.577 220.798 134.577 219.787 133.611C218.174 132.069 216.65 130.613 214.082 128.497C213.62 128.116 213.175 127.746 212.743 127.387C210.142 125.225 208.087 123.516 205.769 122.33C202.02 120.41 197.077 119.429 192.547 119.706C187.535 120.012 183.776 121.793 181.963 124.722L181.684 124.547L181.684 124.547Z" fill="#F5F5F5"/>
<path d="M221.409 185.545C220.941 186.301 220.477 187.19 220.083 188.217C218.636 191.987 218.945 195.485 219.281 197.425C219.281 197.425 222.253 203.47 230.169 202.971C230.169 202.971 239.832 203.148 244.445 202.572C249.058 201.996 258.797 195.62 251.186 190.116C243.575 184.612 243.435 183.044 239.428 184.531C235.42 186.018 229.984 188.016 223.676 184.873L221.409 185.545L221.409 185.545Z" fill="#F5F5F5"/>
<path d="M229.665 204C225.944 204 223.4 202.539 221.885 201.256C220.107 199.752 219.341 198.201 219.309 198.136L219.293 198.102L219.287 198.066C218.715 194.731 219.001 191.419 220.113 188.488C220.479 187.522 220.939 186.586 221.479 185.704L221.531 185.619L224.027 184.87L224.121 184.917C230.435 188.1 235.891 186.051 239.875 184.555C243.105 183.343 244.068 184.106 247.652 186.948C248.787 187.847 250.2 188.967 252.044 190.317C255.069 192.53 255.238 194.766 254.847 196.252C253.853 200.029 248.315 203.151 245.088 203.559C240.516 204.136 230.969 203.977 230.589 203.971C230.273 203.99 229.965 204 229.665 204L229.665 204ZM219.8 197.94C219.916 198.164 220.678 199.555 222.245 200.874C223.808 202.192 226.52 203.707 230.566 203.449L230.577 203.449H230.588C230.686 203.451 240.417 203.623 245.021 203.041C248.143 202.647 253.431 199.567 254.337 196.121C254.846 194.185 253.969 192.374 251.731 190.736C249.878 189.38 248.462 188.257 247.323 187.355C243.753 184.524 243.01 183.936 240.062 185.043C236.006 186.566 230.457 188.649 223.977 185.43L221.877 186.06C221.377 186.889 220.949 187.767 220.606 188.671C219.531 191.505 219.253 194.709 219.8 197.94H219.8Z" fill="#2C67F2"/>
<path d="M151.083 123.83C146.644 130.239 146.07 138.294 146.07 138.294C145.949 139.995 146.01 141.319 146.07 142.28C146.884 155.28 150.493 166.485 150.493 166.485C159.262 193.714 156.04 202.931 164.352 207.222C169.302 209.777 176.627 209.701 180.423 206.189C181.271 205.404 182.239 204.173 183.814 197.481C185.735 189.317 186.345 182.43 186.615 177.998C186.972 172.139 187.2 168.387 186.91 163.09C186.641 158.175 186.097 155.056 187.058 150.249C187.829 146.39 189.142 143.588 189.564 142.722C193.514 134.616 199.039 132.704 199 126.782C198.996 126.231 198.989 125.122 198.558 123.977C194.682 113.694 160.322 110.488 151.083 123.83V123.83Z" fill="#FF6F29"/>
<path d="M172.518 210C169.751 210 166.924 209.351 164.648 208.179C159.511 205.534 158.627 201.062 156.866 192.153C155.693 186.22 154.087 178.095 150.537 167.103C150.501 166.99 146.884 155.668 146.071 142.729C146.004 141.665 145.952 140.353 146.071 138.685C146.077 138.603 146.707 130.435 151.174 124.003C156.638 116.135 170.426 114.01 181.666 115.394C191.066 116.551 197.913 119.934 199.533 124.223C199.988 125.427 199.996 126.592 200 127.152C200.023 130.646 198.202 132.772 195.896 135.465C194.151 137.503 192.173 139.813 190.47 143.297C189.839 144.59 188.675 147.279 187.975 150.772C187.209 154.594 187.405 157.34 187.652 160.817C187.714 161.69 187.779 162.593 187.833 163.576C188.126 168.911 187.891 172.755 187.536 178.574C187.113 185.496 186.188 191.91 184.708 198.184C183.13 204.874 182.147 206.215 181.198 207.091C179.344 208.802 176.552 209.829 173.338 209.981C173.065 209.994 172.792 210 172.518 210H172.518ZM151.719 124.38C147.359 130.66 146.739 138.652 146.733 138.732C146.617 140.361 146.668 141.646 146.733 142.687C147.541 155.54 151.133 166.787 151.169 166.899C154.731 177.929 156.341 186.076 157.517 192.024C159.291 200.997 160.1 205.092 164.952 207.59C169.499 209.931 176.831 210.22 180.748 206.605C181.584 205.833 182.529 204.536 184.063 198.032C185.534 191.796 186.453 185.418 186.874 178.535C187.227 172.738 187.461 168.909 187.17 163.612C187.117 162.635 187.052 161.735 186.99 160.864C186.739 157.338 186.541 154.552 187.325 150.642C188.039 147.077 189.229 144.328 189.874 143.007C191.614 139.447 193.621 137.103 195.392 135.034C197.608 132.447 199.358 130.403 199.336 127.157C199.333 126.635 199.326 125.55 198.913 124.457C198.146 122.428 196.056 120.563 192.869 119.063C189.816 117.626 185.914 116.585 181.585 116.051C170.543 114.691 157.026 116.74 151.72 124.381L151.719 124.38Z" fill="#F5F5F5"/>
<path d="M161.717 208.239C161.316 209.029 160.931 209.952 160.627 211.007C159.512 214.877 160.123 218.331 160.627 220.234C160.627 220.234 164.115 226.001 171.961 224.847C171.961 224.847 181.609 224.222 186.157 223.266C190.706 222.31 199.86 215.159 191.795 210.315C183.731 205.47 183.455 203.922 179.59 205.734C175.724 207.547 170.479 209.985 163.918 207.382L161.717 208.239V208.239Z" fill="#F5F5F5"/>
<path d="M170.345 226C167.231 226 164.953 224.902 163.505 223.877C161.604 222.531 160.707 221.054 160.67 220.992L160.651 220.96L160.642 220.925C159.786 217.658 159.786 214.343 160.643 211.337C160.925 210.347 161.303 209.378 161.765 208.456L161.81 208.367L164.234 207.413L164.332 207.453C170.898 210.086 176.161 207.592 180.004 205.771C183.119 204.295 184.145 204.974 187.961 207.497C189.17 208.296 190.674 209.29 192.628 210.477C195.833 212.422 196.193 214.63 195.931 216.14C195.265 219.977 190.012 223.544 186.83 224.22C182.323 225.177 172.794 225.819 172.414 225.844C171.688 225.952 170.998 226 170.345 226H170.345ZM161.142 220.756C161.277 220.969 162.156 222.287 163.831 223.468C165.502 224.645 168.336 225.924 172.346 225.328L172.368 225.326C172.465 225.32 182.181 224.675 186.719 223.711C189.798 223.057 194.804 219.553 195.411 216.052C195.753 214.086 194.723 212.359 192.352 210.92C190.389 209.728 188.88 208.731 187.668 207.929C183.867 205.416 183.075 204.893 180.232 206.241C176.32 208.094 170.968 210.629 164.232 207.974L162.193 208.776C161.765 209.642 161.415 210.551 161.151 211.478C160.322 214.384 160.319 217.591 161.142 220.756H161.142Z" fill="#2C67F2"/>
<path d="M262 50.9093C253.903 60.0039 253.988 67.8118 239.871 79.0648C230.106 86.8482 217.287 93.2801 213.761 93.3377C213.545 93.3421 212.601 93.3261 212.139 93.9271C211.29 95.0294 213.231 97.0436 214.205 99.9599C214.439 100.662 216.09 105.648 217.745 112.321C218.603 115.782 218.792 116.997 218.334 118.501C217.797 120.267 216.563 121.783 214.499 123.209C208.469 127.378 199.735 127.759 193.995 127.918C185.866 128.143 187.161 127.824 174.671 127.918C174.671 127.918 165.575 127.987 150.923 126.004C150.108 125.895 148.316 125.636 146.35 124.533C145.68 124.157 142.105 122.155 141.039 118.501C139.94 114.73 142.006 110.896 143.695 107.759C145.045 105.253 145.725 103.588 147.088 100.254C147.358 99.5908 147.88 98.2927 147.53 98.0462C147.207 97.8201 146.342 98.6657 145.908 98.9294C142.049 101.272 140.075 104.317 138.975 105.845C138.026 107.164 136.53 109.241 134.598 111.128C134.485 111.159 134.371 111.188 134.254 111.217C131.28 111.942 127.821 111.731 125.183 110.775C122.71 109.878 121.37 108.508 118.103 108.126C116.412 107.929 116.178 108.193 113.455 108.126C113.3 108.122 113.149 108.119 113 108.115C115.847 102.236 118.766 98.7824 118.766 98.7824C123.313 93.4022 123.892 93.3159 126.141 90.3952C129.593 85.9127 130.094 84.3451 134.254 78.6221C137.294 74.4422 139.438 70.9581 143.252 68.1745C147.364 65.1761 151.361 64.2497 154.905 63.4659C189.354 55.8525 196.536 56.364 199.453 60.2282C200.216 61.2397 200.956 62.8348 202.994 64.0551C206.412 66.1026 210.458 65.2827 212.728 64.79C217.099 63.8433 217.675 62.463 224.234 59.4934C230.927 56.4634 230.742 57.7125 234.413 55.5196C239.768 52.3209 239.432 50.0963 245.18 47.1324C245.937 46.742 245.203 47.1511 252.557 44.1902C253.778 43.6975 254.745 43.3055 255.552 43L262 50.9088L262 50.9093Z" fill="#2C67F2"/>
<path d="M188.525 129C187.348 129 186.367 128.983 185.237 128.962C182.997 128.922 180.21 128.873 174.212 128.918C174.122 128.918 164.921 128.965 150.41 126.995C149.691 126.898 147.783 126.641 145.718 125.48C144.086 124.561 141.21 122.53 140.25 119.232C139.113 115.319 141.231 111.375 142.933 108.207C144.271 105.715 144.95 104.05 146.302 100.734L146.312 100.709C146.778 99.5621 146.862 99.108 146.851 98.9288C146.653 99.0042 146.273 99.2974 146.077 99.4485C145.906 99.58 145.745 99.7043 145.61 99.7867C142.105 101.92 140.188 104.632 139.043 106.253C138.946 106.389 138.856 106.517 138.771 106.636C137.851 107.918 136.311 110.064 134.354 111.979L134.294 112.037L134.213 112.06C134.097 112.093 133.979 112.123 133.858 112.153C130.9 112.876 127.35 112.702 124.593 111.699C123.713 111.379 122.973 111 122.256 110.633C120.92 109.949 119.657 109.302 117.585 109.059C116.705 108.956 116.227 108.983 115.567 109.019C114.976 109.052 114.241 109.093 112.966 109.061L112 109.035L112.222 108.576C115.055 102.709 118.005 99.1792 118.034 99.1442C120.326 96.4243 121.594 95.0699 122.612 93.9816C123.588 92.939 124.293 92.1858 125.402 90.7415C127.199 88.4017 128.185 86.8698 129.326 85.0959C130.355 83.4973 131.521 81.6853 133.512 78.9374C133.986 78.2844 134.439 77.6458 134.878 77.0282C137.263 73.6712 139.322 70.7718 142.586 68.383C146.839 65.2726 151.012 64.3469 154.366 63.6032C189.013 55.9237 196.218 56.4328 199.264 60.4788C199.43 60.7001 199.593 60.9448 199.766 61.2041C200.389 62.1402 201.165 63.3052 202.711 64.2336C206.09 66.2631 210.223 65.3636 212.209 64.9313C214.741 64.3812 215.999 63.6692 217.903 62.5915C219.261 61.8229 220.951 60.8663 223.653 59.6396C227.033 58.1045 228.712 57.6457 229.937 57.3106C231.185 56.9695 232.009 56.7439 233.801 55.6703C236.278 54.1867 237.525 52.9091 238.732 51.6737C240.15 50.2209 241.49 48.8486 244.59 47.2457C244.941 47.0644 245.001 47.0416 245.577 46.8217C246.327 46.5357 247.887 45.9407 251.997 44.2811L252.337 44.1435C253.415 43.7076 254.266 43.3633 255 43.0845L255.223 43L262 51.3372L261.814 51.5471C258.769 54.9769 256.917 58.1746 254.957 61.56C251.763 67.0756 248.46 72.7792 239.637 79.8328C235.132 83.4342 229.645 87.021 224.186 89.9325C219.204 92.5902 215.141 94.1946 213.318 94.2245L213.283 94.225C212.628 94.2339 212.18 94.3892 211.952 94.6866C211.557 95.2013 212.067 96.1797 212.713 97.4184C213.17 98.294 213.688 99.2864 214.069 100.434C214.379 101.365 216.005 106.338 217.618 112.86C218.494 116.405 218.677 117.672 218.203 119.235C217.639 121.094 216.38 122.651 214.239 124.135C207.914 128.52 198.57 128.778 193.55 128.917C191.338 128.979 189.814 129 188.525 129L188.525 129ZM178.573 128.24C181.741 128.24 183.636 128.273 185.248 128.302C187.608 128.344 189.313 128.375 193.531 128.258C198.483 128.121 207.699 127.866 213.863 123.592C215.875 122.198 217.053 120.753 217.571 119.044C218.003 117.621 217.833 116.481 216.977 113.019C215.37 106.521 213.751 101.569 213.443 100.643C213.078 99.5456 212.573 98.578 212.128 97.7244C211.373 96.277 210.776 95.1337 211.428 94.285C211.786 93.8193 212.407 93.5771 213.274 93.5653L213.306 93.5648C216.558 93.5116 229.152 87.3695 239.225 79.3175C247.951 72.3413 251.222 66.6924 254.386 61.2295C256.323 57.8834 258.156 54.7191 261.134 51.3195L255.012 43.7874C254.334 44.0483 253.551 44.3652 252.585 44.756L252.244 44.8938C248.129 46.5559 246.564 47.1525 245.812 47.4391C245.245 47.6556 245.211 47.6685 244.893 47.8327C241.888 49.3866 240.584 50.7219 239.204 52.1356C237.968 53.4011 236.69 54.7096 234.14 56.2371C232.271 57.3573 231.365 57.6051 230.111 57.948C228.84 58.2955 227.258 58.728 223.926 60.2413C221.251 61.4558 219.575 62.4044 218.228 63.1667C216.272 64.2741 214.979 65.0058 212.35 65.577C210.281 66.0275 205.975 66.9647 202.372 64.8003C200.699 63.7955 199.877 62.5619 199.217 61.5707C199.05 61.3197 198.892 61.0825 198.737 60.8763C195.926 57.1422 188.591 56.6939 154.509 64.2484C151.216 64.9787 147.117 65.8878 142.975 68.9165C139.798 71.2419 137.767 74.1009 135.416 77.4111C134.976 78.03 134.522 78.6699 134.046 79.3254C132.066 82.0584 130.905 83.8622 129.881 85.4537C128.731 87.24 127.739 88.7826 125.925 91.144C124.797 92.614 124.083 93.3771 123.094 94.4333C122.081 95.5159 120.82 96.8633 118.539 99.5701C118.511 99.6036 115.764 102.893 113.041 108.403C114.253 108.431 114.96 108.392 115.53 108.36C116.224 108.322 116.725 108.294 117.662 108.404C119.852 108.66 121.227 109.364 122.557 110.045C123.255 110.403 123.977 110.772 124.819 111.078C127.46 112.039 130.863 112.205 133.701 111.512C133.786 111.491 133.87 111.47 133.953 111.447C135.839 109.589 137.278 107.583 138.235 106.251C138.319 106.133 138.409 106.006 138.504 105.871C139.679 104.209 141.645 101.427 145.266 99.2228C145.37 99.1593 145.518 99.0457 145.674 98.9254C146.236 98.4924 146.817 98.045 147.25 98.3483C147.727 98.6858 147.492 99.5605 146.924 100.958L146.914 100.983C145.553 104.321 144.869 105.997 143.515 108.519C141.87 111.582 139.822 115.394 140.884 119.047C141.778 122.12 144.498 124.035 146.039 124.903C147.996 126.003 149.814 126.248 150.498 126.341C164.959 128.303 174.117 128.258 174.208 128.257C175.897 128.245 177.333 128.239 178.573 128.239L178.573 128.24Z" fill="#F5F5F5"/>
<path d="M200.636 25.8401C203.021 29.0033 203.677 31.6935 203.854 33.5161C204.202 37.1163 202.787 38.4611 202.83 43.1109C202.869 47.263 204.015 48.076 204 50.6392C203.965 56.694 197.544 61.3075 194.933 63.1865C181.402 72.9224 159.886 65.0383 157.347 64.0722C157.347 64.0722 136.434 51.8203 146.964 36.3207C157.493 20.8212 152.521 22.5926 159.687 17.1309C166.853 11.6692 178.699 18.6071 186.304 17.1309C193.909 15.6548 200.636 25.8402 200.636 25.8402L200.636 25.8401Z" fill="#F5F5F5"/>
<path d="M178.431 69C176.529 69 174.541 68.8775 172.468 68.6318C165.267 67.7788 159.295 65.6519 157.636 65.0204L157.587 64.9969C157.559 64.9807 154.78 63.34 151.783 60.5607C149.007 57.986 145.465 53.8752 144.356 48.9137C143.423 44.7371 144.325 40.594 147.038 36.5998C151.981 29.3205 153.487 25.9037 154.484 23.6428C155.593 21.1286 156.008 20.1878 159.907 17.2148C164.367 13.8145 170.463 15.0412 176.358 16.2273C180.203 17.001 183.835 17.7318 186.812 17.1537C190.043 16.5259 193.624 17.8754 197.168 21.0561C199.765 23.3873 201.426 25.8547 201.556 26.0496C203.484 28.6112 204.593 31.2637 204.851 33.9335C205.034 35.8268 204.741 37.1426 204.43 38.5357C204.136 39.8563 203.802 41.3534 203.823 43.6167C203.844 45.8837 204.199 47.1384 204.512 48.2454C204.766 49.1461 205.007 49.997 205 51.1962C204.964 57.4509 198.509 62.098 195.752 64.0823C191.206 67.3549 185.398 69 178.431 69H178.431ZM157.894 64.4088C160.37 65.3491 169.02 68.3548 178.348 68.3553C184.205 68.3556 190.327 67.1713 195.361 63.5479C198.045 61.616 204.308 57.1072 204.342 51.1922C204.348 50.0879 204.131 49.3184 203.879 48.4275C203.555 47.2801 203.187 45.9794 203.165 43.6227C203.144 41.2823 203.486 39.7455 203.788 38.3896C204.1 36.9919 204.369 35.7848 204.196 33.9979C203.95 31.4499 202.883 28.9083 201.026 26.4437L201.014 26.427C200.948 26.3264 194.281 16.3804 186.936 17.8061C183.833 18.4089 180.14 17.6656 176.23 16.8789C170.477 15.7212 164.527 14.5241 160.303 17.745C156.54 20.6147 156.173 21.4459 155.085 23.9131C154.079 26.1961 152.557 29.6462 147.58 36.9756C144.976 40.8111 144.107 44.7787 144.998 48.7676C147.007 57.7592 157.337 64.0748 157.894 64.4089V64.4088Z" fill="#2C67F2"/>
<path d="M188.935 23.4485C192.938 23.3171 194.05 27.8188 197.905 28.4648C201.566 29.0785 204.889 25.742 205.992 24.6343C206.714 23.9094 210.412 20.1959 209.962 15.2967C209.54 10.6986 205.707 7.71235 202.316 5.06998C200.418 3.59153 199.491 2.81558 197.905 2.2539C193.887 0.831277 191.537 2.68895 185.406 3.43958C184.184 3.58928 179.486 4.10203 174.084 3.14322C167.237 1.92811 166.946 -0.28611 162.614 0.030662C156.571 0.472605 152.469 5.12341 151.88 5.81106C150.151 7.82864 150.832 8.29657 148.792 11.1467C145.672 15.5064 143.984 14.8214 141.44 18.4093C140.975 19.0658 140.707 19.5463 137.323 28.465C136.154 31.5445 135.544 33.0842 135.411 33.5272C134.842 35.4244 133.285 40.6179 134.382 45.9772C135.986 53.8134 142.509 58.3027 145.704 60.5022C146.392 60.9757 149.643 62.3494 156.144 65.0968C157.503 65.6708 159.369 66.4377 160.115 65.6896C160.379 65.4239 160.583 64.8863 159.967 62.1325C159.526 60.1554 159.126 59.1152 158.791 57.9825C158.141 55.7869 157.341 53.0836 157.909 50.1271C158.353 47.811 159.171 47.7696 159.085 46.1253C158.973 43.9635 157.54 43.6365 156.291 40.6414C155.762 39.3721 154.512 36.3733 155.85 34.1199C155.99 33.8846 156.947 32.3294 158.644 32.1932C159.496 32.1248 160.625 32.4069 161.291 33.2307C162.256 34.4248 161.357 35.6535 162.467 37.529C162.642 37.8252 163.216 38.7935 163.791 38.7147C164.353 38.6375 164.618 37.5983 164.82 36.9361C165.793 33.7477 167.719 31.4508 169.084 29.8218C170.176 28.5188 170.89 27.6678 172.172 27.0058C174.319 25.8971 175.106 26.8442 178.789 26.2647C180.075 26.0623 179.721 25.9873 186.141 24.1897C187.892 23.6993 188.771 23.4539 188.935 23.4486L188.935 23.4485Z" fill="#FF6F29"/>
<path d="M188 59.8876C187.356 60.0119 186.691 60.0302 186.034 59.9568C185.704 59.9239 185.378 59.8582 185.055 59.7797C184.733 59.6966 184.418 59.5858 184.107 59.4635C183.492 59.2043 182.907 58.8676 182.381 58.4518C181.853 58.0391 181.381 57.5518 181 57C181.497 57.4412 182.007 57.8476 182.549 58.2008C182.821 58.3747 183.095 58.5437 183.38 58.6907C183.663 58.8424 183.952 58.9811 184.248 59.1004C184.836 59.3477 185.45 59.5282 186.077 59.6557C186.706 59.7827 187.347 59.8501 188 59.8875L188 59.8876Z" fill="#2C67F2"/>
<path d="M97.2552 129.112C94.0714 132.024 94.9837 133.087 91.7297 137.211C84.3965 146.506 76.0635 146.736 73.6061 154.083C73.2735 155.077 73.4014 155.574 72.9431 157.232C72.0119 160.602 70.6087 163.032 68.3017 166.68C65.7973 170.641 64.6382 172.226 63.8813 173.429C60.8444 178.256 62.1944 180.302 59.903 190.751C58.019 199.342 56.7905 200.194 57.0297 204.923C57.163 207.556 57.4655 212.267 60.7871 215.721C62.5326 217.537 64.5761 218.448 66.5336 219.32C69.5545 220.667 71.2068 220.712 74.2693 221.57C78.817 222.844 81.5929 224.545 83.3311 225.394C91.7269 229.499 104.311 227.638 132.176 227.194C140.364 227.063 142.756 227.168 146.985 226.069C158.004 223.204 164.888 216.477 167.097 214.146C169.798 211.299 173.454 207.355 175.496 200.874C176.175 198.721 177.729 193.587 176.601 187.377C175.938 183.723 173.286 179.167 167.981 170.055C166.566 167.623 165.511 165.919 163.561 162.406C162.145 159.856 160.707 157.266 159.141 154.083C154.843 145.351 155.836 144.874 153.615 142.385C151.32 139.813 150.604 140.708 144.111 136.086C140.056 133.2 140.38 132.882 136.597 130.238C132.006 127.028 128.376 125.292 125.988 124.164C119.151 120.933 116.642 120.955 115.6 121.014C113.991 121.106 112.59 121.601 109.853 122.589C105.141 124.29 100.827 125.846 97.2552 129.113V129.112Z" fill="#F5F5F5"/>
<path d="M100.756 229C93.0875 229 87.8286 228.425 83.591 226.353C83.2625 226.192 82.9076 226.007 82.4964 225.792C80.6992 224.854 78.2376 223.569 74.5594 222.538C73.5465 222.254 72.699 222.062 71.8793 221.876C70.2316 221.502 68.8086 221.18 66.7567 220.265C64.7553 219.372 62.6859 218.449 60.8903 216.581C57.4054 212.956 57.1519 207.944 57.03 205.535C56.8782 202.535 57.313 201.031 58.1022 198.301C58.5931 196.602 59.2043 194.488 59.9186 191.23C60.8199 187.118 61.153 184.345 61.4206 182.116C61.8227 178.767 62.0654 176.746 63.9516 173.747C64.2303 173.304 64.5658 172.806 64.9905 172.174C65.7496 171.046 66.789 169.501 68.3848 166.977C70.5536 163.545 72.0467 161.038 72.9998 157.588C73.2322 156.747 73.3097 156.218 73.378 155.751C73.4433 155.306 73.4995 154.921 73.6699 154.412C75.0105 150.403 78.0826 148.425 81.6398 146.134C84.8409 144.072 88.4688 141.735 91.8989 137.386C93.3594 135.535 93.9648 134.319 94.4989 133.247C95.1369 131.966 95.6879 130.859 97.4765 129.223C101.108 125.902 105.534 124.304 110.221 122.612C112.904 121.643 114.382 121.11 116.077 121.013C117.542 120.929 120.234 121.169 126.653 124.203C128.884 125.258 132.619 127.023 137.34 130.324C139.258 131.665 140.124 132.409 141.042 133.196C141.938 133.965 142.865 134.759 144.878 136.193C148.009 138.423 149.771 139.354 151.057 140.033C152.415 140.751 153.235 141.184 154.464 142.561C155.676 143.92 155.968 144.706 156.607 146.427C157.169 147.942 158.018 150.231 160.055 154.37C161.622 157.555 163.074 160.172 164.479 162.703C165.874 165.217 166.828 166.834 167.75 168.397C168.126 169.035 168.503 169.674 168.91 170.372C174.241 179.535 176.918 184.134 177.593 187.857C178.763 194.295 177.101 199.571 176.475 201.557C174.362 208.264 170.52 212.318 167.977 215C164.798 218.354 157.929 224.38 147.651 227.053C143.868 228.036 141.556 228.068 135.377 228.153C134.564 228.164 133.684 228.176 132.724 228.192C125.799 228.302 119.85 228.499 114.602 228.672C109.232 228.849 104.678 229 100.756 229ZM97.6988 129.469L97.9212 129.715C96.2238 131.268 95.7233 132.272 95.0899 133.544C94.5414 134.646 93.9197 135.894 92.4167 137.8C88.918 142.236 85.2406 144.604 81.9961 146.694C78.4017 149.008 75.5626 150.837 74.2964 154.624C74.1449 155.077 74.0952 155.417 74.032 155.848C73.9643 156.31 73.8801 156.885 73.6366 157.766C72.6589 161.305 71.1433 163.852 68.9425 167.334C67.3417 169.866 66.2991 171.416 65.5378 172.547C65.1162 173.174 64.7832 173.668 64.51 174.103C62.7036 176.975 62.4809 178.829 62.0766 182.196C61.8072 184.439 61.4721 187.23 60.564 191.373C59.845 194.653 59.2304 196.779 58.7367 198.486C57.9425 201.234 57.5439 202.613 57.69 205.501C57.8078 207.829 58.0529 212.673 61.3654 216.119C63.0714 217.894 65.0811 218.79 67.0245 219.657C69.0172 220.546 70.4109 220.862 72.0245 221.227C72.8522 221.415 73.708 221.609 74.7368 221.897C78.4811 222.947 81.0808 224.304 82.8009 225.202C83.2078 225.415 83.5591 225.598 83.8798 225.755C90.1385 228.815 98.8201 228.528 114.58 228.007C119.831 227.834 125.782 227.637 132.713 227.527C133.674 227.511 134.555 227.499 135.368 227.488C141.489 227.404 143.78 227.373 147.486 226.409C157.605 223.777 164.368 217.844 167.499 214.541C169.999 211.903 173.779 207.916 175.845 201.356C176.457 199.413 178.083 194.252 176.943 187.976C176.288 184.369 173.632 179.804 168.339 170.708C167.934 170.011 167.558 169.373 167.182 168.736C166.257 167.17 165.302 165.549 163.903 163.03C162.494 160.49 161.037 157.865 159.463 154.665C157.411 150.496 156.555 148.188 155.988 146.66C155.361 144.971 155.101 144.271 153.972 143.006C152.823 141.718 152.087 141.329 150.75 140.622C149.447 139.934 147.663 138.991 144.496 136.736C142.459 135.285 141.521 134.48 140.613 133.702C139.709 132.926 138.854 132.193 136.963 130.871C132.287 127.601 128.584 125.851 126.372 124.806C119.363 121.492 116.918 121.632 116.114 121.677C114.58 121.765 113.267 122.219 110.444 123.238C105.821 124.907 101.455 126.483 97.9213 129.715L97.6989 129.469L97.6988 129.469Z" fill="#2C67F2"/>
<path d="M118.897 162.996C122.254 163.787 125.289 165.057 128 166.807L126.566 173.005L123.712 172.351C123.597 170.491 123.101 169.002 122.227 167.885C121.352 166.768 120.047 165.98 118.312 165.521L115.118 179.324C117.511 181.223 119.263 182.834 120.374 184.156C121.484 185.479 122.25 186.843 122.674 188.25C123.097 189.656 123.114 191.202 122.724 192.885C122.003 196.003 120.572 198.208 118.432 199.5C116.291 200.792 113.48 201.18 109.998 200.663L108.763 206L105.766 205.312L106.988 200.032C105.287 199.602 103.513 198.984 101.666 198.177C99.8192 197.371 98.2638 196.55 97 195.716L98.4609 189.403L101.343 190.065C101.348 192.141 101.836 193.769 102.808 194.949C103.779 196.129 105.36 197.01 107.552 197.593L110.992 182.729L110.351 182.219C108.113 180.437 106.494 178.952 105.494 177.766C104.494 176.58 103.797 175.347 103.406 174.068C103.014 172.79 102.993 171.395 103.342 169.883C103.679 168.43 104.249 167.19 105.052 166.166C105.856 165.142 106.819 164.325 107.941 163.716C109.063 163.108 110.305 162.702 111.667 162.501C113.029 162.3 114.426 162.293 115.86 162.481L117.128 157L120.126 157.688L118.897 162.996L118.897 162.996ZM112.387 177.489L115.295 164.92C113.594 164.751 112.119 165.073 110.869 165.884C109.619 166.695 108.815 167.875 108.456 169.425C108.097 170.974 108.227 172.359 108.845 173.579C109.463 174.798 110.644 176.102 112.387 177.489V177.489ZM113.73 184.535L110.569 198.195C112.4 198.414 113.923 198.083 115.139 197.203C116.354 196.324 117.176 194.956 117.606 193.1C117.986 191.455 117.865 189.967 117.243 188.635C116.62 187.304 115.449 185.937 113.73 184.535H113.73Z" fill="#2C67F2"/>
<path d="M116.771 125C114.146 125 111.592 124.293 109.798 123.328C108.214 122.477 107.258 121.472 107.108 120.498C107.026 119.966 107.206 119.563 107.366 119.207C107.544 118.808 107.697 118.463 107.556 117.91C107.304 116.925 106.133 116.144 103.722 114.611C102.382 113.759 101.836 113.472 101.51 113.301C101.23 113.155 101.102 113.088 100.813 112.835C98.819 111.097 97.7365 108.329 98.0551 105.784C98.0731 105.638 98.5161 102.205 100.106 102.009C100.926 101.909 101.347 102.67 101.878 103.635C102.436 104.646 103.129 105.904 104.531 106.868C106.349 108.117 108.474 108.222 112.727 108.326L113.182 108.337C114.427 108.367 115.145 108.328 115.723 108.296C116.415 108.259 116.915 108.231 117.849 108.339C120.034 108.592 121.406 109.286 122.732 109.957C123.429 110.31 124.149 110.674 124.988 110.976C127.623 111.923 131.018 112.087 133.848 111.403C133.961 111.375 134.071 111.348 134.18 111.317C134.494 111.234 134.785 111.148 135.066 111.065C136.309 110.697 137.289 110.406 138.102 111.024C139.04 111.739 139.293 113.433 138.623 114.509C138.112 115.33 137.232 115.529 136.015 115.805C135.8 115.854 135.572 115.905 135.331 115.964C134.274 116.22 133.229 116.617 132.219 117.001C131.587 117.241 130.933 117.489 130.277 117.703C127.872 118.488 126.758 119.701 125.578 120.985C124.578 122.073 123.545 123.197 121.699 124.02C120.147 124.712 118.444 125 116.771 125V125ZM100.232 102.652C100.217 102.652 100.202 102.653 100.187 102.655C99.509 102.738 98.8913 104.386 98.7083 105.864C98.4157 108.202 99.4127 110.746 101.248 112.347C101.48 112.549 101.552 112.586 101.818 112.726C102.154 112.902 102.715 113.196 104.078 114.064C106.521 115.617 107.867 116.473 108.194 117.75C108.392 118.521 108.157 119.047 107.968 119.47C107.822 119.797 107.706 120.056 107.759 120.4C107.874 121.145 108.754 122.026 110.113 122.757C112.912 124.261 117.647 125.113 121.428 123.427C123.149 122.659 124.092 121.633 125.09 120.547C126.275 119.257 127.501 117.923 130.07 117.085C130.712 116.876 131.358 116.63 131.983 116.393C133.012 116.001 134.077 115.597 135.174 115.331C135.419 115.272 135.65 115.22 135.867 115.17C137.007 114.912 137.695 114.756 138.062 114.167C138.554 113.377 138.371 112.051 137.7 111.539C137.155 111.125 136.358 111.361 135.255 111.688C134.969 111.773 134.673 111.86 134.355 111.945C134.243 111.976 134.126 112.005 134.005 112.035C131.054 112.748 127.513 112.576 124.763 111.587C123.885 111.272 123.147 110.898 122.432 110.537C121.099 109.862 119.839 109.225 117.772 108.986C116.895 108.884 116.418 108.91 115.759 108.946C115.17 108.978 114.437 109.019 113.165 108.988L112.709 108.976C108.324 108.869 106.128 108.758 104.155 107.402C102.625 106.351 101.859 104.961 101.3 103.946C100.849 103.128 100.57 102.652 100.232 102.652L100.232 102.652Z" fill="#2C67F2"/>
<path d="M279.743 27.1519C282.354 27.7247 283.667 28.4463 282.662 28.7554L280.557 32.4646C279.644 34.0724 278.679 36.2706 277.79 39.2712C277.669 39.6781 277.549 40.0993 277.431 40.5375L277.017 42.0713C276.604 44.0809 275.46 45.3584 274.474 44.9105C273.489 44.4625 271.474 43.5466 269.997 42.8752C268.521 42.2038 266.954 41.4915 266.517 41.2924C266.079 41.0932 265.88 40.518 266.075 40.014L266.512 38.4546C266.825 37.3391 267.18 35.8922 267.477 34.2162C267.608 33.4848 267.727 32.7094 267.826 31.8985L268.1 29.6718C268.067 26.8735 268.932 24.7795 270.021 25.0186C271.111 25.2577 272.676 25.6011 273.499 25.7819C274.323 25.9627 277.132 26.5793 279.743 27.1521L279.743 27.1519Z" fill="#F5F5F5"/>
<path d="M275.388 46C275.203 46 275.02 45.9603 274.844 45.8806L270.273 43.8109C268.765 43.1279 267.166 42.4036 266.719 42.2011C266.119 41.9293 265.841 41.1655 266.093 40.4921L266.536 38.9209C266.926 37.5318 267.255 36.0924 267.514 34.6432C267.652 33.8753 267.77 33.0886 267.866 32.3044L268.143 30.0624C268.122 27.8714 268.639 26.0086 269.464 25.3124C269.778 25.0468 270.135 24.9476 270.494 25.0262L280.42 27.1957C282.772 27.7098 283.977 28.2684 284 28.8561C284.007 29.0339 283.93 29.2685 283.55 29.4221L281.461 33.0887C280.411 34.9311 279.471 37.2362 278.666 39.9402C278.541 40.3589 278.418 40.7893 278.301 41.22L277.882 42.7697C277.58 44.2232 276.889 45.391 276.078 45.8188C275.849 45.9393 275.616 45.9999 275.388 45.9999L275.388 46ZM270.256 25.6612C270.127 25.6612 270 25.7149 269.871 25.8235C269.312 26.2956 268.759 27.7942 268.786 30.0774L268.786 30.1004L268.504 32.3875C268.406 33.1839 268.285 33.9831 268.145 34.7629C267.883 36.2335 267.549 37.6945 267.153 39.105L266.695 40.7213C266.562 41.0658 266.691 41.4665 266.978 41.5965C267.425 41.799 269.024 42.5234 270.532 43.2061L275.103 45.2758C275.316 45.3725 275.546 45.3573 275.785 45.2309C276.421 44.8956 276.998 43.8718 277.257 42.6224L277.261 42.6026L277.683 41.0428C277.801 40.6065 277.926 40.1705 278.052 39.7465C278.871 36.9937 279.832 34.6412 280.907 32.7546L283.121 28.8702L283.242 28.8331C283.245 28.8324 283.247 28.8316 283.249 28.8308C282.959 28.6311 282.129 28.2452 280.287 27.8426L270.36 25.673C270.326 25.6653 270.291 25.6615 270.256 25.6615L270.256 25.6612Z" fill="#E81400"/>
<path d="M282.641 33.7826C283.639 34.3885 282.484 35.6713 280.076 36.6334L277.569 38.642L277.271 38.8819C276.941 39.1581 275.905 38.8198 274.969 38.13L273.727 37.91C270.933 37.4163 268.174 39.1753 266.802 41.0047C266.151 41.8708 265.812 42.7524 265.925 43.4196C266.006 43.8908 266.306 44.1531 266.467 45.149C266.668 46.3875 266.361 46.8544 266.576 47.6344L266.709 48.114C267.03 48.505 266.473 49.7999 265.472 50.9915C264.47 52.1831 262.984 52.3419 262.171 51.3441C261.357 50.3465 259.27 47.788 257.533 45.6589C255.797 43.5297 254.219 41.5959 254.028 41.3616C253.837 41.1273 254.631 40.5599 255.792 40.1005C256.953 39.6412 261.225 38.1689 263.08 38.2133L265.98 37.8324C267.565 37.6237 271.208 37.1455 271.343 35.9649C271.391 35.5417 270.974 35.1496 270.693 34.8844C269.869 34.11 268.934 34.1283 267.876 33.8942C267.527 33.8166 267.229 33.7277 266.972 33.6304L266.48 33.4428C266.128 33.2139 266.301 32.5176 266.864 31.8953L267.33 31.3325C269.286 28.9628 270.7 26.6538 271.622 24.9427L272.537 23.2458C272.775 22.6352 273.432 23.2021 273.997 24.5054L274.699 25.5944C276.332 28.1292 278.521 30.2944 280.413 31.8939L282.641 33.7826H282.641Z" fill="#F5F5F5"/>
<path d="M263.984 52.9997C263.978 52.9997 263.973 52.9997 263.967 52.9997C263.327 52.995 262.75 52.7166 262.341 52.2158L254.102 42.1133C254.009 41.9992 253.978 41.8488 254.016 41.7006C254.173 41.1004 255.589 40.4985 256.019 40.3284C257.343 39.8047 261.509 38.3945 263.435 38.3945C263.456 38.3945 263.477 38.3947 263.497 38.3951L266.407 38.0129C267.201 37.9083 268.518 37.7348 269.636 37.4432C271.308 37.0068 271.533 36.5746 271.552 36.409C271.582 36.1439 271.215 35.7981 270.996 35.5915C270.417 35.0471 269.763 34.934 269.006 34.8032C268.778 34.7638 268.542 34.723 268.297 34.6689C267.942 34.5901 267.628 34.4984 267.338 34.3886L266.806 34.1859L266.777 34.1669C266.598 34.0501 266.482 33.8592 266.452 33.629C266.395 33.1915 266.636 32.626 267.097 32.115L267.563 31.551C269.589 29.0977 271.024 26.7091 271.871 25.1375L272.789 23.4364C272.948 23.0498 273.237 23.0023 273.356 23C273.359 23 273.363 23 273.367 23C274.011 23 274.569 24.049 274.852 24.6955L275.548 25.7753C276.924 27.9123 278.848 30.0328 281.267 32.078L283.503 33.9741C283.852 34.1948 284.027 34.5137 283.997 34.8745C283.927 35.7026 282.764 36.6478 280.881 37.4075L278.081 39.6523C277.545 40.1005 276.337 39.6075 275.415 38.9454L274.232 38.736C271.544 38.2611 268.88 39.961 267.544 41.7421C266.922 42.5696 266.621 43.3694 266.717 43.9364C266.743 44.0891 266.802 44.2248 266.877 44.3969C267.004 44.6865 267.162 45.0469 267.266 45.6887C267.375 46.3614 267.343 46.8324 267.318 47.2109C267.294 47.559 267.276 47.8339 267.368 48.1696L267.487 48.6C267.912 49.2725 267.126 50.7448 266.186 51.8628C265.578 52.5862 264.776 53 263.984 53L263.984 52.9997ZM254.696 41.809L262.849 51.8043C263.136 52.1564 263.524 52.3444 263.972 52.3476C264.571 52.3523 265.198 52.0226 265.685 51.4437C266.763 50.1613 267.049 49.1125 266.934 48.9472L266.89 48.8939L266.738 48.3426C266.616 47.9002 266.64 47.544 266.665 47.1669C266.689 46.8036 266.717 46.3918 266.62 45.7924C266.529 45.2317 266.395 44.9264 266.278 44.6571C266.192 44.4614 266.111 44.2766 266.072 44.0451C265.944 43.2914 266.281 42.3348 267.02 41.351C268.472 39.4152 271.384 37.5701 274.347 38.0935L275.679 38.3296L275.741 38.3751C276.712 39.0911 277.531 39.2412 277.666 39.1477L280.548 36.8382L280.593 36.8201C282.349 36.1186 283.306 35.283 283.345 34.82C283.349 34.769 283.359 34.6496 283.14 34.5163L283.098 34.4863L280.844 32.5749C278.376 30.4881 276.409 28.3188 274.998 26.1276L274.263 24.9788C273.864 24.0596 273.528 23.742 273.401 23.6688C273.398 23.6756 273.394 23.6834 273.391 23.6924L273.374 23.7291L272.448 25.4464C271.587 27.0436 270.128 29.4713 268.069 31.9657L267.588 32.5466C267.218 32.9557 267.076 33.3511 267.101 33.5453C267.106 33.5789 267.114 33.5974 267.121 33.608L267.571 33.7794C267.831 33.8776 268.116 33.9605 268.44 34.0325C268.669 34.0834 268.898 34.1228 269.118 34.161C269.944 34.3037 270.723 34.4384 271.444 35.1158C271.774 35.427 272.27 35.8941 272.203 36.4832C272.056 37.7543 269.376 38.2799 266.5 38.6586L263.533 39.0483L263.508 39.0478C261.751 39.0039 257.519 40.4368 256.261 40.9349C255.381 41.283 254.861 41.6361 254.697 41.8094L254.696 41.809Z" fill="#E81400"/>
<path d="M270.996 35.6691C270.865 36.8443 267.358 37.3203 265.832 37.5281C263.039 37.9072 260.882 38.2008 259.79 37.8272C259.457 37.7135 259.222 37.5379 259.101 37.2823C258.383 35.7813 261.631 31.7472 264.214 32.0125C264.866 32.0798 265.203 32.3944 265.697 32.744C265.979 32.9462 266.313 33.1583 266.787 33.3449C267.035 33.4418 267.321 33.5303 267.657 33.6075C268.676 33.8406 269.577 33.8223 270.37 34.5932C270.641 34.8572 271.043 35.2475 270.996 35.6688L270.996 35.6691Z" fill="#F5F5F5"/>
<path d="M261.575 38.9997C260.952 38.9997 260.437 38.9407 260.033 38.7992C259.597 38.6472 259.295 38.3961 259.136 38.0529C258.814 37.3637 259.07 36.2962 259.84 35.1251C260.913 33.4928 262.898 31.8236 264.721 32.015C265.381 32.0848 265.775 32.379 266.192 32.6904C266.258 32.7403 266.327 32.7916 266.399 32.8436C266.655 33.0318 266.98 33.2486 267.454 33.4399C267.709 33.5417 267.988 33.6277 268.306 33.7025C268.531 33.7552 268.755 33.796 268.971 33.8356C269.78 33.9835 270.544 34.1232 271.25 34.8254C271.574 35.1476 272.06 35.6319 271.994 36.2427V36.2431C271.851 37.5601 269.224 38.1049 266.406 38.4976L266.389 38.4999C264.407 38.7752 262.789 39 261.575 39V38.9997ZM264.432 32.6758C262.985 32.6758 261.317 34.0642 260.367 35.51C259.762 36.4307 259.504 37.3119 259.711 37.7548C259.793 37.9319 259.964 38.0633 260.234 38.1575C261.288 38.5264 263.502 38.2187 266.306 37.8294L266.364 38.1621L266.322 37.827C267.093 37.7195 268.384 37.5396 269.479 37.2374C271.118 36.7849 271.338 36.337 271.357 36.1655C271.386 35.8902 271.026 35.532 270.812 35.318C270.245 34.7538 269.604 34.6366 268.862 34.501C268.638 34.4602 268.407 34.4179 268.167 34.3618C267.818 34.2799 267.511 34.1848 267.226 34.0711C266.687 33.8536 266.321 33.6095 266.035 33.3992C265.962 33.3465 265.89 33.2933 265.821 33.2415C265.431 32.9499 265.149 32.7391 264.658 32.6872C264.583 32.6794 264.508 32.6756 264.432 32.6756V32.6758Z" fill="#E81400"/>
<path d="M278 40.9402C277.954 41.7307 277.608 46.3362 274.007 48.6673C273.335 49.1012 271.001 50.6129 268.828 49.7258C268.698 49.6733 267.974 49.3665 267.384 48.7751C267.074 48.4655 266.802 48.0787 266.67 47.6088C266.455 46.8446 266.761 46.3873 266.561 45.1741C266.4 44.1985 266.102 43.9415 266.021 43.4799C265.909 42.8263 266.247 41.9626 266.895 41.1142C268.262 39.322 271.009 37.5989 273.792 38.0826C275.029 38.2981 276.006 38.9033 276.724 39.5266C276.918 39.6938 277.094 39.8651 277.25 40.0296C277.594 40.3889 277.844 40.7192 278 40.9402V40.9402Z" fill="#F5F5F5"/>
<path d="M270.71 51C270.147 51 269.613 50.8972 269.11 50.6916C268.896 50.6049 268.146 50.2716 267.517 49.6406C267.111 49.2351 266.836 48.7838 266.7 48.2996C266.577 47.8589 266.601 47.5042 266.627 47.1286C266.651 46.7666 266.679 46.3563 266.581 45.7592C266.489 45.2006 266.354 44.8965 266.235 44.6282C266.149 44.4333 266.067 44.2492 266.027 44.0186C265.898 43.2678 266.238 42.3148 266.986 41.3347C268.454 39.4064 271.4 37.5686 274.396 38.0896C275.541 38.2893 276.609 38.8151 277.571 39.6524C277.76 39.8151 277.95 39.9968 278.135 40.1916C278.421 40.4911 278.69 40.8189 278.935 41.1651L279 41.2571L278.993 41.369C278.915 42.6977 278.378 47.2164 274.742 49.5733C273.272 50.5234 271.923 50.9997 270.71 50.9997L270.71 51ZM273.339 38.6488C270.955 38.6488 268.71 40.1551 267.515 41.7241C266.886 42.5486 266.582 43.3451 266.679 43.9099C266.705 44.0621 266.765 44.1975 266.841 44.3688C266.969 44.6573 267.129 45.0164 267.234 45.6557C267.344 46.3259 267.312 46.7952 267.287 47.1721C267.263 47.5189 267.244 47.7928 267.338 48.1271C267.444 48.5033 267.663 48.8596 267.989 49.1857C268.544 49.7428 269.231 50.0379 269.363 50.0914C270.735 50.6524 272.421 50.2964 274.374 49.0336C277.662 46.9023 278.229 42.821 278.325 41.4438C278.117 41.1574 277.891 40.8859 277.651 40.6354C277.481 40.4558 277.307 40.2893 277.133 40.1397C276.262 39.3819 275.303 38.9077 274.28 38.7293C273.965 38.6746 273.651 38.6487 273.339 38.6487L273.339 38.6488Z" fill="#E81400"/>
<path d="M99.0468 118.141C100.774 116.421 102.225 116.036 103.229 116.003C105.786 115.916 106.742 118.056 110.272 118.355C112.081 118.508 112.29 117.985 113.794 118.355C115.818 118.852 118.268 120.494 117.976 121.991C117.804 122.871 116.487 122.839 114.075 124.151C111.991 125.285 111.796 125.937 110.052 127.123C108.168 128.405 104.548 130.868 101.248 129.689C98.9268 128.86 97.3903 126.455 97.0658 124.129C96.6008 120.796 98.7417 118.463 99.0468 118.141V118.141Z" fill="#F5F5F5"/>
<path d="M103.535 131C102.869 131 102.197 130.897 101.533 130.658C98.8873 129.705 97.3847 126.979 97.0693 124.699C96.5906 121.238 98.7328 118.76 99.167 118.299L99.1734 118.292C100.634 116.825 102.14 116.054 103.649 116.003C105.01 115.956 105.956 116.492 106.958 117.06C108.001 117.652 109.08 118.263 110.845 118.414C111.644 118.482 112.124 118.412 112.547 118.351C113.078 118.274 113.58 118.201 114.475 118.423C116.537 118.934 119.324 120.689 118.969 122.525C118.831 123.24 118.189 123.493 117.217 123.876C116.59 124.124 115.809 124.432 114.842 124.962C113.629 125.627 113.081 126.11 112.447 126.669C111.996 127.067 111.53 127.478 110.783 127.99C109.158 129.105 106.396 131 103.535 131L103.535 131ZM99.6542 118.745C99.2484 119.177 97.2926 121.448 97.7301 124.611C98.0187 126.697 99.3776 129.186 101.763 130.045C104.952 131.194 108.496 128.762 110.4 127.455C111.114 126.966 111.565 126.568 112.001 126.184C112.637 125.623 113.238 125.093 114.516 124.392C115.52 123.841 116.357 123.511 116.968 123.27C117.875 122.912 118.246 122.753 118.314 122.403C118.555 121.158 116.321 119.554 114.312 119.056C113.546 118.867 113.148 118.924 112.644 118.998C112.185 119.064 111.665 119.14 110.787 119.065C108.874 118.902 107.679 118.224 106.624 117.626C105.668 117.084 104.844 116.618 103.672 116.656C102.342 116.701 100.99 117.404 99.6542 118.745V118.745Z" fill="#E81400"/>
<path d="M126.754 122.478C127.323 119.505 126.789 118.578 126.323 118.244C124.444 116.897 118.502 121.489 119.033 123.117C119.244 123.763 120.452 123.875 121.471 123.969C124.032 124.206 125.988 123.01 126.754 122.478V122.478Z" fill="#F5F5F5"/>
<path d="M122.607 125C122.368 125 122.123 124.989 121.874 124.966C120.686 124.855 119.34 124.729 119.053 123.841C118.636 122.55 120.79 120.688 121.46 120.149C123.398 118.587 125.91 117.414 127.152 118.312C128.036 118.952 128.227 120.526 127.734 123.124L127.708 123.261L127.598 123.338C126.482 124.121 124.752 125 122.607 125H122.607ZM126.068 118.672C125.037 118.672 123.406 119.424 121.843 120.682C120.224 121.986 119.506 123.171 119.652 123.624C119.806 124.1 121.084 124.219 121.929 124.298C124.159 124.506 125.976 123.647 127.138 122.855C127.527 120.722 127.406 119.308 126.795 118.865C126.613 118.734 126.366 118.672 126.069 118.672L126.068 118.672Z" fill="#E81400"/>
<path d="M274 191C272.897 191 272 190.103 272 189C272 187.897 272.897 187 274 187C275.103 187 276 187.897 276 189C276 190.103 275.103 191 274 191ZM274 187.48C273.162 187.48 272.48 188.162 272.48 189C272.48 189.838 273.162 190.52 274 190.52C274.838 190.52 275.52 189.838 275.52 189C275.52 188.162 274.838 187.48 274 187.48Z" fill="#2C67F2"/>
<path d="M342 19C340.897 19 340 18.1028 340 17C340 15.8972 340.897 15 342 15C343.103 15 344 15.8972 344 17C344 18.1028 343.103 19 342 19ZM342 15.4799C341.162 15.4799 340.48 16.1618 340.48 17C340.48 17.8382 341.162 18.5201 342 18.5201C342.838 18.5201 343.52 17.8382 343.52 17C343.52 16.1618 342.838 15.4799 342 15.4799V15.4799Z" fill="#2C67F2"/>
<path d="M89 38C87.8972 38 87 37.1028 87 36C87 34.8972 87.8972 34 89 34C90.1028 34 91 34.8972 91 36C91 37.1028 90.1028 38 89 38ZM89 34.4799C88.1618 34.4799 87.4799 35.1618 87.4799 36C87.4799 36.8382 88.1618 37.5201 89 37.5201C89.8382 37.5201 90.5201 36.8382 90.5201 36C90.5201 35.1618 89.8382 34.4799 89 34.4799Z" fill="#2C67F2"/>
<path d="M62.4978 136.459C62.774 134.514 63.226 134.514 63.5022 136.459C63.7784 138.404 65.5959 140.222 67.5411 140.498C69.4863 140.774 69.4863 141.226 67.5411 141.502C65.5959 141.778 63.7784 143.596 63.5022 145.541C63.226 147.486 62.774 147.486 62.4978 145.541C62.2216 143.596 60.4041 141.778 58.4589 141.502C56.5137 141.226 56.5137 140.774 58.4589 140.498C60.4041 140.222 62.2216 138.404 62.4978 136.459Z" fill="#2C67F2"/>
<path d="M366.498 25.4589C366.774 23.5137 367.226 23.5137 367.502 25.4589C367.778 27.4041 369.596 29.2216 371.541 29.4978C373.486 29.774 373.486 30.226 371.541 30.5022C369.596 30.7784 367.778 32.5959 367.502 34.5411C367.226 36.4863 366.774 36.4863 366.498 34.5411C366.222 32.5959 364.404 30.7784 362.459 30.5022C360.514 30.226 360.514 29.774 362.459 29.4978C364.404 29.2216 366.222 27.4041 366.498 25.4589Z" fill="#2C67F2"/>
<path d="M410 228H0V230H410V228Z" fill="#FF6F29"/>
</svg>
