<svg width="435" height="592" viewBox="0 0 435 592" fill="none" xmlns="http://www.w3.org/2000/svg">
<path d="M316.405 440.851C318.309 444.541 319.271 448.644 319.204 452.795C319.578 461.162 322.781 482.22 322.781 484.615C322.781 499.389 167.634 504.366 143.311 482.842C123.995 465.859 147.883 442.842 147.883 442.842L316.405 440.851Z" fill="#D3FFCF"/>
<path d="M355.907 565.641C353.847 561.126 352.243 556.416 351.117 551.582C349.487 545.861 347.386 540.284 344.834 534.91C342.102 527.985 338.826 521.287 335.036 514.879C331.708 509.872 333.637 506.077 332.424 495.097C331.211 484.117 329.313 483.682 324.337 480.354C319.36 477.026 312.175 482.718 305.985 484.148C301.195 485.268 291.335 486.637 284.772 487.446C282.937 463.526 285.519 480.074 281.475 449.81C289.842 448.659 298.862 447.166 298.893 447.166C302.533 446.357 308.629 444.46 311.335 444.055C315.347 443.309 317.027 444.055 318.582 442.313C319.111 441.754 319.764 441.287 319.298 440.416C318.831 439.545 318.831 438.208 317.307 438.301C314.2 438.89 310.996 438.708 307.976 437.772C305.728 436.707 303.278 436.134 300.791 436.093C297.68 436.901 286.203 446.264 274.041 446.824C257.121 447.601 261.6 443.184 254.974 447.135C252.486 448.628 251.522 449.094 244.15 448.721C240.037 448.483 236.044 447.244 232.517 445.113C229.407 443.589 215.037 448.006 214.975 448.006C202.968 449.561 203.559 447.757 196.717 444.366C194.633 443.34 193.762 444.118 190.931 445.299C190.216 445.579 194.975 447.539 200.262 449.685C205.115 451.614 210.433 453.791 212.704 452.796H215.037L211.926 471.676L213.419 488.845V489.125C209.16 489.54 204.866 489.425 200.636 488.783C190.869 487.134 177.743 485.206 163.684 481.878C149.625 478.55 132.02 484.273 130.34 486.637C128.661 489.001 117.899 518.581 116.281 522.873C114.664 527.165 115.566 532.204 115.566 537.15C115.566 542.095 112.145 547.352 111.554 551.333C110.963 555.315 111.087 563.495 109.159 568.036C107.23 572.577 103.684 584.49 105.364 584.708C147.043 589.716 138.459 575.874 169.438 585.175C200.418 594.475 236.156 579.7 245.208 584.21C254.259 588.72 310.744 584.459 315.97 585.89C321.195 587.321 366.265 588.503 366.265 586.854C366.265 585.206 357.556 569.685 355.907 565.641ZM241.537 492.267C236.747 492.733 227.478 489.872 223.404 488.907C222.021 488.72 220.619 488.72 219.236 488.907C219.236 482.033 219.236 470.245 219.236 470.245L222.16 453.231C230.713 453.231 231.491 452.889 233.326 454.289C235.161 455.688 235.037 454.289 245.768 453.946C246.964 457.201 247.646 460.622 247.789 464.086C247.354 467.508 247.509 491.831 247.509 491.831H247.821C246.048 491.862 243.777 492.018 241.537 492.267V492.267ZM276.903 488.565C274.216 489.848 271.371 490.768 268.443 491.302C264.928 491.489 259.64 491.52 256.001 491.52L255.068 453.387L260.231 453.075C266.452 452.64 264.617 451.147 268.691 451.116C270.215 451.116 272.797 450.867 275.783 450.494C276.802 463.157 277.176 475.864 276.903 488.565V488.565Z" fill="#2C67F2"/>
<path d="M145.519 438.489C149.625 439.826 150.682 438.831 152.984 440.884C150.684 442.898 148.183 444.67 145.519 446.171C142.689 445.518 141.413 444.398 142.036 441.723C142.658 439.639 143.56 437.773 145.519 438.489Z" fill="#D3FFCF"/>
<path d="M429.935 318.205C431.677 326.23 430.65 351.269 430.246 353.602C427.633 367.785 414.041 371.798 404.15 370.087C386.98 366.976 375.347 353.415 337.4 322.031C335.596 320.569 338.831 319.201 340.013 313.477C340.861 310.613 342.326 307.969 344.306 305.733C346.203 303.026 357.214 283.96 359.236 280.849C359.951 279.73 359.951 279.698 372.921 290.367C374.539 291.705 383.745 336.37 390.122 332.078C392.766 330.305 387.011 326.043 383.403 312.918C376.84 288.314 369.562 247.817 359.018 224.582C357.96 222.249 354.663 212.669 352.393 210.056C347.229 204.022 327.789 202.032 322.782 191.612C321.32 188.501 322.097 189.621 317.089 174.038C316.281 171.456 317.089 171.145 317.525 170.648C317.96 170.15 319.64 170.648 320.231 171.301C321.746 173.16 322.935 175.264 323.746 177.522C328.38 187.693 326.701 189.154 329.967 189.963C337.245 192.016 335.69 187.63 343.279 188.937C345.583 189.605 347.932 190.104 350.309 190.43C351.491 190.43 352.61 188.595 350.62 187.817C348.757 186.768 346.707 186.091 344.585 185.826C342.47 185.826 344.585 180.85 342.719 175.064C338.707 161.379 341.382 161.845 337.432 158.393C334.85 156.153 330.962 152.483 327.851 152.825C324.741 153.167 325.643 154.753 321.848 162.343C319.267 167.475 316.281 167.91 317.276 164.24C318.953 159.87 320.163 155.335 320.884 150.71C322.004 144.489 327.105 143.494 330.215 145.391C334.632 148.128 333.792 146.573 339.795 150.088C346.732 154.131 342.159 141.192 343.621 119.17C343.758 114.94 344.236 110.727 345.052 106.573C345.052 106.044 345.332 104.209 346.638 103.96C347.945 103.712 348.598 104.987 348.785 107.071C349.469 114.536 346.421 135.687 352.144 154.193C349.5 154.193 346.358 153.447 347.136 155.935C347.292 156.402 351.055 156.962 351.148 156.962C362.75 158.579 370.309 164.738 371.304 162.467C371.988 160.85 370.122 160.103 368.38 159.357C366.638 158.61 367.945 158.797 370.993 151.021C373.263 145.173 378.769 119.45 382.066 119.917C383.092 119.917 383.932 120.446 383.901 121.939C383.901 127.786 376.467 143.463 374.788 157.802C372.89 173.634 376.281 164.427 373.232 195.562C372.517 202.996 377.929 204.115 387.758 224.924C387.758 224.924 400.044 252.918 403.839 260.01C412.89 277.086 426.389 301.627 429.935 318.205ZM370.837 168.688C372.268 166.511 351.024 159.357 345.954 160.476C345.645 160.596 345.393 160.829 345.249 161.127C345.105 161.426 345.08 161.768 345.179 162.084C345.277 162.401 345.493 162.668 345.781 162.831C346.07 162.995 346.409 163.042 346.732 162.965C356.063 163.245 366.576 169.186 369.158 169.839C370.215 169.994 370.526 169.248 370.9 168.688H370.837ZM369.344 203.462C371.926 200.352 358.365 201.005 359.111 190.461C359.733 181.627 365.83 171.27 362.812 170.648C361.786 170.43 361.133 170.461 360.324 172.918C355.379 187.755 350.993 199.761 367.136 204.178C367.509 204.24 368.225 204.8 369.407 203.462H369.344Z" fill="#C49E91"/>
<path d="M363.496 156.808C363.496 157.648 363.932 157.71 357.089 155.253C356.405 155.004 356.591 154.942 357.649 145.922C357.649 145.455 358.52 119.265 360.759 110.556C361.257 108.752 361.257 107.632 362.75 107.135C367.54 105.673 361.537 128.597 363.496 156.808Z" fill="#C49E91"/>
<path d="M361.661 269.377C363.03 270.528 362.439 269.377 354.259 281.632C348.287 290.683 345.456 297.184 341.133 303.405C332.548 315.66 333.263 326.08 329.873 321.383C325.456 315.162 317.587 310.466 314.321 305.831C312.579 303.436 314.539 303.001 312.735 294.602C310.122 282.161 312.33 279.797 309.002 268.071C308.567 266.64 306.078 266.236 305.892 268.071C305.892 269.284 306.763 273.265 307.634 279.361C307.673 284.837 308.246 290.296 309.344 295.66C312.237 309.47 306.234 324.711 306.576 340.792C307.229 368.195 304.834 371.896 305.767 383.933C306.545 394.104 307.291 387.573 311.646 405.146C311.864 405.986 268.567 381.881 224.088 324.867C218.365 317.557 144.182 224.867 144.368 224.805C149.5 223.063 150.838 222.099 153.233 224.307C164.43 235.131 172.424 245.645 201.102 253.576C260.2 269.657 295.69 220.108 300.635 220.792C313.077 222.628 314.539 221.601 319.889 226.733C330.868 237.278 329.935 241.01 345.114 255.505C348.473 258.833 356.996 265.489 361.661 269.377ZM297.96 337.153C298.582 336.873 299.64 336.095 299.018 335.255C295.596 330.777 289.438 344.276 261.289 339.423C242.222 336.126 243.746 332.985 238.427 332.798C236.996 332.798 236.685 333.296 236.623 333.887C236.622 334.191 236.718 334.488 236.897 334.734C237.076 334.98 237.328 335.163 237.618 335.255C244.866 337.651 245.892 341.476 262.502 343.405C285.954 346.018 293.668 338.957 297.96 337.153V337.153Z" fill="#8A265A"/>
<path d="M324.119 470.525C336.343 473.48 354.29 463.091 364.243 458.301C361.941 448.565 356.716 429.032 348.193 423.807C341.444 419.67 338.862 417.119 335.192 416.559C332.215 415.763 329.158 415.304 326.078 415.191C319.577 415.595 320.044 415.533 320.262 416.808C320.556 417.488 320.667 418.233 320.585 418.97C320.504 419.706 320.231 420.408 319.795 421.007C319.142 421.785 322.657 426.855 320.044 434.475C319.577 435.782 320.573 434.475 322.563 439.39C324.305 443.464 320.231 444.771 319.951 445.828C319.671 446.886 320.355 447.352 320.511 448.161C321.692 453.449 321.226 469.81 324.119 470.525Z" fill="#E3B27D"/>
<path d="M365.829 468.942C365.55 468.942 359.795 471.275 358.24 472.239C350.868 476.749 350.277 475.349 340.666 478.46C337.989 479.432 335.144 479.855 332.299 479.704C330.091 479.704 328.505 479.953 327.82 479.268C327.673 479.111 327.561 478.924 327.491 478.721C327.422 478.517 327.396 478.301 327.416 478.086C327.416 475.256 330.371 478.335 341.755 474.603C346.669 473.016 350.371 473.079 355.658 469.595C358.553 468.143 361.523 466.845 364.554 465.707C365.736 465.178 365.923 464.525 366.296 461.757C366.483 460.357 365.394 461.041 356.467 465.893C348.1 470.435 343.59 470.061 338.987 472.674C336.249 474.198 328.38 474.167 325.021 473.887C323.932 473.887 322.844 473.141 323.248 474.354C323.994 476.624 323.248 477.464 324.71 478.211C327.143 479.179 329.25 480.818 330.787 482.939C332.323 485.059 333.226 487.572 333.388 490.186C333.855 496.407 334.974 499.299 334.943 503.965C334.943 514.851 338.738 512.425 344.865 529.47C348.38 539.237 348.598 538.801 349.22 538.801C351.159 539.017 353.121 538.726 354.915 537.958C356.708 537.189 358.272 535.969 359.453 534.416C370.402 517.215 368.411 518.148 368.1 481.166C368.069 479.673 369.873 467.231 365.829 468.942Z" fill="#E3B27D"/>
<path d="M302.47 403.964C293.781 398.458 285.468 392.379 277.587 385.768C241.413 355.069 232.548 339.89 209.469 312.114C176.592 272.519 150.745 235.536 141.04 226.702C138.676 224.587 138.676 224.587 137.245 225.209C135.815 225.831 135.192 226.205 135.752 226.858C136.312 227.511 138.863 229.968 139.889 231.057C214.135 319.983 227.758 356.064 288.473 400.263C317.369 421.289 317.929 422.876 317.711 417.432C317.493 411.989 317.12 415.224 302.47 403.964Z" fill="#E3B27D"/>
<path d="M316.436 423.712C317.556 426.667 318.489 432.794 315.503 433.883C311.024 435.531 308.069 432.732 302.501 431.923C296.934 431.115 286.545 444.365 268.971 442.716C268.411 442.716 266.421 442.716 266.421 442.716C259.547 441.441 258.271 440.197 253.979 442.716C252.568 444.016 250.702 444.709 248.785 444.645C243.927 445.271 238.999 444.252 234.788 441.752C228.567 438.362 218.8 444.863 207.198 444.676C204.074 444.225 201.124 442.959 198.645 441.006C193.326 437.74 189.687 444.427 181.724 441.41C177.432 439.761 171.024 440.57 165.239 439.482C162.892 439.079 160.494 439.079 158.147 439.482C156.188 440.321 157.494 438.113 153.295 436.371C151.926 435.811 147.074 435.656 144.71 433.727C141.849 431.394 146.639 429.59 147.292 425.174C147.351 423.099 147.794 421.053 148.598 419.139C152.642 412.39 152.549 410.959 152.735 408.191C152.366 404.754 152.673 401.277 153.637 397.958C155.503 394.443 150.931 381.379 150.122 378.984C143.591 359.855 145.799 370.742 142.782 351.239C140.418 335.905 138.241 335.905 138.054 327.849C137.867 319.793 140.138 319.575 138.054 314.474C137.363 313.342 136.538 312.298 135.597 311.364C134.635 310.27 134.067 308.886 133.983 307.432C133.898 305.978 134.302 304.537 135.13 303.339C138.653 297.484 140.613 290.822 140.822 283.992C141.6 278.673 142.035 273.261 139.92 273.355C136.281 273.355 139.64 283.961 135.441 295.407C133.357 301.131 128.754 304.365 125.177 307.849C115.441 317.18 119.672 318.02 113.917 308.347C105.644 294.443 106.203 294.692 102.44 290.804C95.908 284.023 97.5254 286.418 94.415 282.064C91.3266 277.652 87.2044 274.064 82.4088 271.613C81.6623 271.395 93.6374 259.171 98.5207 254.288C118.863 234.723 118.334 242.904 123.404 234.537C125.799 230.649 127.043 231.426 132.424 229.031C138.645 226.481 222.968 351.706 262.222 383.805C286.607 403.525 316.343 423.525 316.436 423.712ZM207.292 334.443C207.669 334.427 208.025 334.266 208.285 333.994C208.546 333.721 208.692 333.358 208.691 332.981C208.691 329.653 202.751 332.484 198.396 332.981C173.295 335.127 175.814 334.474 160.511 329.871C157.604 328.714 154.864 327.177 152.362 325.298C149.251 323.65 146.141 333.977 182.844 337.896C182.844 337.896 197.058 336.278 197.121 336.278C200.552 335.917 203.951 335.304 207.292 334.443V334.443Z" fill="#8A265A"/>
<path d="M309.002 85.457C306.67 89.5006 315.939 93.7618 314.321 100.698C313.17 105.706 309.127 106.235 306.607 107.883C304.088 109.532 303.684 110.993 306.203 114.477C307.097 115.49 307.623 116.775 307.697 118.124C307.77 119.473 307.386 120.807 306.607 121.911C303.186 125.675 298.085 123.466 297.96 127.323C297.805 132.206 300.231 133.979 296.592 135.97C292.953 137.961 288.754 134.57 287.261 136.219C285.768 137.867 287.261 138.863 287.665 140.729C288.723 144.399 286.141 143.342 280.635 146.359C277.961 147.852 276.779 151.678 279.578 156.188C284.088 163.497 284.337 163.933 278.303 167.758C267.603 174.601 281.04 179.982 276.779 185.488C272.517 190.993 272.704 193.513 272.922 194.819C273.139 196.125 271.926 196.25 271.024 194.321C270.225 193.098 269.844 191.648 269.94 190.19C270.035 188.731 270.601 187.343 271.553 186.234C272.206 185.483 272.686 184.598 272.96 183.642C273.234 182.685 273.295 181.68 273.139 180.698C272.953 179.174 271.024 177.587 268.909 176.063C268.042 175.17 267.508 174.007 267.395 172.767C267.281 171.528 267.596 170.287 268.287 169.251C271.024 165.052 272.517 165.674 273.17 163.031C273.699 160.916 271.055 158.832 269.531 155.379C269.127 154.757 282.844 142.129 283.839 131.149C284.151 129.566 284.026 127.928 283.478 126.41C282.93 124.892 281.98 123.552 280.729 122.533C280.169 122.191 279.858 122.004 280.013 121.009C287.914 68.5986 290.495 54.1041 291.304 50.2472C291.709 48.2254 291.304 47.4167 290.06 46.9191C288.816 46.4214 287.727 47.1679 287.572 45.3017C286.576 34.9129 273.419 29.3764 262.999 29.3764C260.214 29.0178 257.383 29.4591 254.839 30.6487C252.294 31.8383 250.141 33.7272 248.629 36.0949C247.976 37.4012 247.883 38.1788 247.043 37.3079C245.527 35.7731 243.653 34.6397 241.589 34.0098C239.526 33.3799 237.338 33.2734 235.224 33.6998C229.687 34.4463 229.5 36.8103 229.283 34.8507C227.572 18.7077 198.179 17.1836 189.718 30.4339C188.598 32.2069 189.718 33.5443 186.95 33.7932C182.067 34.042 184.213 35.4728 182.595 92.5799C181.6 127.727 183.217 109.718 179.267 130.247C176.779 143.062 181.693 147.696 178.272 154.01C177.232 155.13 176.109 156.17 174.913 157.121C171.989 160.418 177.401 162.533 177.09 166.048C176.418 168.271 174.958 170.173 172.984 171.398C172.889 171.47 172.773 171.511 172.653 171.512C172.534 171.514 172.416 171.478 172.319 171.408C172.222 171.339 172.149 171.24 172.112 171.126C172.075 171.012 172.075 170.889 172.113 170.776C173.793 165.052 172.113 164.275 168.692 160.48C165.799 157.37 168.225 155.659 172.331 152.362C175.068 150.185 173.513 148.598 171.864 147.323C164.431 141.569 166.483 141.569 169.874 135.068C171.398 132.144 170.651 130.993 169.283 129.625C167.914 128.256 164.773 126.141 163.933 123.715C163.435 122.27 163.286 120.729 163.496 119.215C163.707 117.702 164.272 116.26 165.146 115.006C168.256 110.9 161.071 113.855 158.023 109.812C155.473 106.421 158.832 103.311 159.827 102.471C161.818 100.791 161.134 99.1428 159.516 99.205C150.403 99.5472 148.63 92.1755 154.664 86.7634C156.561 85.1149 157.463 83.8707 154.664 82.6888C149.096 80.4493 151.554 78.9563 154.664 76.8101C157.152 75.2549 157.774 73.6997 154.011 72.4555C147.012 70.2471 147.79 64.0263 152.393 60.5427C156.997 57.059 158.614 61.1959 160.978 60.045C162.72 59.2052 161.165 56.1881 160.014 55.3483C153.793 50.7138 157.712 47.2612 159.672 47.1679C163.809 46.9191 163.56 47.479 165.675 46.9502C171.398 45.5505 166.639 41.1026 166.266 37.3701C166.079 35.6594 166.95 32.2691 169.376 32.9533C171.056 33.3888 174.975 35.1928 174.384 31.7092C174.13 30.7717 174.064 29.7934 174.19 28.8303C174.315 27.8673 174.63 26.9385 175.115 26.0974C175.601 25.2564 176.248 24.5195 177.019 23.9292C177.79 23.339 178.671 22.9069 179.609 22.6579C181.476 22.2535 181.476 23.28 184.368 25.2084C187.261 27.1369 190.185 25.986 190.247 23.9954C190.247 19.5786 188.536 14.6642 197.556 10.5895C199.136 10.1004 200.82 10.0626 202.419 10.4803C204.019 10.898 205.469 11.7547 206.608 12.9534C207.883 14.3531 208.63 15.4729 209.967 13.3578C210.979 10.6523 212.685 8.26042 214.913 6.42157C216.499 5.07202 218.366 4.09269 220.378 3.55468C222.39 3.01667 224.497 2.93348 226.545 3.31116C228.466 3.5605 230.261 4.40106 231.682 5.71634C233.103 7.03162 234.08 8.75645 234.477 10.6517C234.757 11.7404 234.477 12.6424 235.877 13.0156C236.81 13.2645 237.774 11.8648 237.93 11.5537C238.571 10.2821 239.541 9.2051 240.739 8.43405C241.936 7.66299 243.318 7.22592 244.741 7.16807C250.122 7.88346 249.594 12.6424 250.433 13.3889C253.233 16.0016 251.553 6.98145 263.964 8.941C266.047 9.37598 267.977 10.357 269.557 11.7835C271.136 13.21 272.308 15.0307 272.953 17.0592C274.57 20.6983 272.393 20.5428 273.513 23.28C274.259 25.1773 275.659 24.5241 277.09 23C281.413 18.2722 287.167 19.2053 286.048 23.1867C285.375 24.5552 284.993 26.0487 284.928 27.5723C284.942 27.8793 285.043 28.1758 285.22 28.4272C285.397 28.6786 285.641 28.8745 285.925 28.992C286.209 29.1095 286.52 29.1437 286.823 29.0905C287.126 29.0374 287.407 28.8992 287.634 28.6921C291.584 24.3997 304.368 28.2255 301.6 37.7745C300.822 40.5116 299.858 42.5645 301.786 43.4043C307.043 45.6749 308.847 45.8615 312.051 50.0295C313.525 51.7407 314.381 53.8973 314.482 56.1535C314.584 58.4096 313.925 60.6345 312.61 62.4711C312.206 63.0621 309.967 64.4307 309.127 65.5815C308.954 65.8193 308.844 66.097 308.807 66.3888C308.77 66.6806 308.808 66.9769 308.917 67.2502C309.025 67.5234 309.201 67.7647 309.429 67.9516C309.656 68.1384 309.926 68.2647 310.215 68.3187C314.414 68.8163 318.302 75.7837 313.575 81.258C311.117 84.244 310.247 83.2797 309.002 85.457Z" fill="#585858"/>
<path d="M282.19 60.8536C289.033 54.6328 287.634 38.3965 276.405 119.174C276.405 119.889 276.063 120.231 275.316 120.294C274.57 120.356 273.295 120.76 272.206 120.045C271.831 119.839 271.502 119.559 271.24 119.221C270.978 118.883 270.789 118.495 270.684 118.08C270.579 117.666 270.56 117.234 270.629 116.812C270.699 116.39 270.854 115.987 271.086 115.628C272.393 113.42 275.938 112.704 271.397 110.091C267.758 108.007 272.206 105.021 273.077 102.813C275.099 97.712 265.425 101.165 265.176 96.2501C264.803 89.5316 273.17 92.7353 271.397 84.1817C270.806 81.4134 268.442 81.4134 264.43 80.4803C262.657 80.076 261.786 78.6452 260.822 77.3699C258.925 74.6328 263.932 69.2518 261.537 67.5721C259.142 65.8925 255.596 73.4508 251.708 71.0558C250.091 70.0916 247.976 69.0962 248.598 67.2922C249.873 63.1865 247.229 62.3155 245.27 64.1818C244.714 64.639 244.047 64.942 243.337 65.0604C242.627 65.1788 241.899 65.1084 241.224 64.8563C240.55 64.6043 239.954 64.1794 239.496 63.6242C239.038 63.0691 238.733 62.4033 238.614 61.6935C237.96 57.9299 235.503 58.8319 234.726 60.947C233.575 64.7106 229.687 68.3186 226.701 67.1678C225.692 66.9077 224.764 66.3982 224.003 65.6863C223.242 64.9743 222.673 64.0827 222.346 63.0931C222.162 62.7521 221.883 62.4713 221.544 62.2842C221.204 62.0971 220.818 62.0115 220.431 62.0377C220.044 62.064 219.673 62.2008 219.362 62.4321C219.051 62.6633 218.813 62.9792 218.676 63.342C216.872 66.9812 216.405 66.4524 213.388 66.6701C210.9 66.8567 209.5 65.2082 208.132 63.1865C207.938 62.8104 207.625 62.5087 207.243 62.3277C206.86 62.1467 206.429 62.0966 206.015 62.185C205.601 62.2734 205.228 62.4955 204.953 62.817C204.678 63.1385 204.516 63.5416 204.492 63.9641C205.049 65.9191 204.969 68.0005 204.265 69.9072C203.56 71.8139 202.267 73.4471 200.573 74.5705C198.277 75.8181 195.72 76.5105 193.108 76.5923C189.531 77.0278 189.718 74.2906 187.416 76.7478C187.043 77.1833 187.416 76.9345 186.608 77.4321C186.421 76.3435 186.39 39.8895 187.479 39.9206C188.567 39.9517 186.608 42.6889 190.589 48.8786C199.92 62.8754 219.889 57.2145 225.83 46.7635C228.256 42.4711 229.376 39.3918 233.481 38.0855C235.419 37.415 237.516 37.3537 239.49 37.9097C241.464 38.4657 243.22 39.6125 244.523 41.1959C245.565 43.3366 246.418 45.5637 247.074 47.8521C250.526 62.4711 269.5 72.6421 282.19 60.8536Z" fill="#585858"/>
<path d="M292.89 221.726C284.959 230.342 280.044 232.332 270.122 238.491C263.024 243.862 254.874 247.677 246.203 249.688C240.336 251.447 234.279 252.491 228.163 252.799C223.341 252.799 223.497 252.799 223.497 252.799C203.768 252.425 184.625 246.033 168.629 234.478C153.762 220.979 154.633 224.09 162.097 222.037C187.416 215.412 188.38 215.816 193.202 197.496C195.174 190.887 196.446 184.09 196.996 177.216C199.453 178.74 208.225 187.947 219.485 186.236C232.517 184.214 238.893 178.336 241.257 177.496C241.475 180.388 236.001 195.66 239.484 208.6C243.372 222.721 279.826 218.646 292.89 221.726ZM222.066 228.911C224.554 228.911 237.121 227.076 236.592 224.649C235.939 221.539 230.62 226.671 220.822 226.267C219.733 226.267 219.298 226.267 215.099 224.058C208.225 220.637 206.732 221.943 195.41 224.898C191.273 225.987 192.828 228.009 195.752 227.2C198.676 226.391 207.416 223.716 210.184 224.898C218.645 228.537 219.578 229.128 222.066 228.911Z" fill="#C49E91"/>
<path d="M277.556 123.932C281.226 125.643 281.009 130.464 279.64 134.228C277.44 139.691 274.28 144.716 270.309 149.065C269.385 150.206 268.063 150.956 266.61 151.164C265.156 151.372 263.677 151.022 262.471 150.184C261.817 149.811 260.915 149.811 260.044 150.931C255.939 156.156 254.57 165.985 235.41 176.872C227.012 181.631 216.748 185.021 207.914 180.915C197.93 176.25 193.015 166.358 187.945 157.618C177.276 139.173 183.933 129.158 185.239 116.716C185.923 110.496 184.928 102.906 185.55 94.9435C185.892 90.4956 185.892 84.5236 187.572 81.1022C187.976 80.3246 188.35 79.6714 189.003 79.5781C191.18 79.3292 192.113 80.5112 196.032 79.7647C199.575 79.4459 202.885 77.8678 205.363 75.3168C209.283 70.5579 207.634 68.6294 209.189 69.3759C210.958 70.3327 212.984 70.7064 214.978 70.4439C216.972 70.1814 218.832 69.296 220.293 67.914C221.662 66.7632 220.698 69.0027 225.799 70.8067C229.469 72.082 234.104 69.1271 236.094 66.3899C237.214 64.7725 237.525 69.687 243.559 68.7849C246.328 68.3806 244.461 73.7616 252.517 75.2235C253.947 75.2384 255.365 74.9633 256.685 74.4148C258.551 73.6372 254.539 77.9918 261.257 83.0617C263.023 84.0194 264.955 84.6316 266.95 84.8658C268.131 85.1146 268.816 86.3899 267.354 87.3852C258.52 93.3261 261.133 101.973 266.825 102.937C267.665 102.937 268.536 103.155 268.007 103.777C267.039 105.034 266.513 106.576 266.513 108.163C266.513 109.749 267.039 111.292 268.007 112.548C269.22 113.824 267.136 114.041 267.385 118.769C267.603 122.502 270.495 122.191 269.034 123.87C268.038 125.083 269.034 127.198 270.402 126.483C271.491 125.768 273.824 122.222 277.556 123.932ZM277.401 131.615C278.427 131.18 278.707 128.723 277.027 127.167C274.601 124.897 270.091 128.847 268.474 133.668C266.856 138.489 270.682 137.992 268.722 140.542C267.572 142.035 265.861 143.404 267.261 144.679C268.66 145.954 270.371 143.746 271.584 142.377C272.005 141.91 272.318 141.355 272.5 140.753C272.683 140.151 272.731 139.516 272.642 138.894C272.393 137.152 268.878 135.97 273.481 130.62C274.446 129.5 275.285 129.376 275.845 130.371C276.405 131.366 276.872 131.864 277.401 131.615V131.615ZM255.783 109.656C256.903 111.086 259.267 110.247 258.614 108.318C257.525 105.462 255.524 103.046 252.922 101.444C250.377 99.872 247.318 99.3585 244.399 100.013C235.41 100.48 236.25 106.234 240.107 104.524C249.158 100.822 252.455 105.426 255.783 109.656V109.656ZM241.506 151.086C241.32 153.077 243.901 155.316 244.959 149.904C243.995 140.573 236.063 141.568 238.489 144.679C239.329 145.768 236.281 145.892 234.912 145.923C225.28 146.11 215.681 144.745 206.483 141.88C202.16 140.666 201.818 141.009 204.586 147.043C210.247 159.484 213.637 170.215 224.368 163.995C230.9 160.231 238.116 151.304 241.6 149.189C241.755 150.962 241.631 150.06 241.506 151.086ZM242.626 118.831C243.155 116.188 242.626 114.881 241.631 114.477C241.343 114.414 241.045 114.413 240.757 114.473C240.469 114.534 240.197 114.655 239.959 114.828C239.721 115.002 239.522 115.224 239.376 115.479C239.23 115.735 239.14 116.019 239.111 116.312C238.116 121.382 242.191 121.226 242.626 118.831V118.831ZM228.505 134.85C232.113 134.072 232.673 129.189 230.34 129.345C229.345 129.345 229.314 129.967 228.971 130.464C228.629 130.962 228.132 132.02 226.919 131.553C224.181 130.495 224.306 126.701 222.129 129.687C221.618 130.48 220.893 131.113 220.038 131.512C219.184 131.911 218.234 132.061 217.297 131.944C216.361 131.827 215.477 131.448 214.747 130.851C214.017 130.253 213.471 129.461 213.171 128.567C212.331 124.772 214.508 123.155 217.245 120.604C218.173 119.83 218.89 118.833 219.33 117.708C219.771 116.583 219.92 115.364 219.765 114.166C219.765 112.984 218.521 112.331 217.65 113.513C216.955 115.622 215.644 117.475 213.886 118.831C203.248 127.292 213.886 140.884 222.906 134.383C223.559 133.917 223.808 133.388 224.368 133.792C224.935 134.267 225.601 134.608 226.316 134.791C227.032 134.974 227.78 134.994 228.505 134.85V134.85ZM216.063 93.9481C218.054 90.8377 210.713 86.7942 202.284 89.8424C195.317 92.3307 193.482 99.4536 197.339 98.3338C198.272 98.0539 197.93 95.5345 202.751 93.2017C210.496 89.4381 214.384 96.5298 216.063 93.9481V93.9481ZM210.309 110.993C210.496 109.065 209.158 107.541 207.821 107.883C206.483 108.225 206.234 108.878 206.172 110.744C206.11 112.611 207.168 113.637 207.852 113.855C209.314 114.072 210.216 112.424 210.309 110.993V110.993Z" fill="#C49E91"/>
<path d="M272.922 39.6993C273.326 44.7692 268.754 44.4893 269.624 50.8034C271.273 62.343 272.548 62.2808 269.998 62.1564C264.586 61.8143 265.705 63.3072 263.777 52.8252C263.381 51.6571 263.257 50.4141 263.413 49.1907C263.569 47.9673 264.002 46.7956 264.679 45.7645C270.153 37.2731 262.782 31.9232 268.225 33.1363C271.584 34.1316 272.486 33.8828 272.922 39.6993Z" fill="white"/>
<path d="M218.863 148.007C232.984 150.682 237.525 148.193 236.032 149.531C220.947 163.341 217.37 168.784 209.656 150.091C207.416 144.585 204.119 145.238 218.863 148.007Z" fill="white"/>
<path d="M210.247 24.8021C214.819 25.3309 211.398 24.8021 210.433 31.0229C208.816 41.3495 215.441 34.1333 207.136 52.4848C206.67 53.5112 206.514 53.4179 201.88 52.6714C198.521 52.1426 208.536 41.4428 204.835 35.0043C203 31.8939 204.835 29.0634 206.172 25.8597C206.514 25.0821 206.297 25.362 210.247 24.8021Z" fill="white"/>
<path d="M196.157 458.114C204.244 460.447 205.768 460.323 205.488 461.474C204.648 464.273 200.293 463.869 193.979 462.656C185.519 461.038 176.312 458.301 165.986 460.198C164.306 460.509 164.43 460.198 159.485 459.794C159.187 459.741 158.881 459.79 158.615 459.933C158.349 460.077 158.139 460.306 158.02 460.584C157.901 460.861 157.88 461.171 157.959 461.463C158.039 461.754 158.215 462.01 158.458 462.189C162.148 463.392 165.922 464.317 169.749 464.957C173.482 465.642 175.348 464.957 177.743 466.201C184.275 469.996 184.99 467.943 188.443 470.152C197.276 475.781 201.382 475.128 199.08 477.212C196.779 479.296 194.228 478.705 184.306 473.791C177.681 470.494 169.469 472.173 158.707 469.498C155.877 468.783 154.322 471.396 156.312 472.142C170.807 477.461 169.251 474.631 174.975 478.83C178.925 481.94 179.858 481.162 185.115 485.05C186.452 486.046 184.679 487.041 183.559 487.072C178.8 487.072 168.443 481.287 165.737 481.287C162.919 481.227 160.119 480.82 157.401 480.074C153.388 479.11 139.112 490.805 130.558 492.515C123.217 494.071 115.69 488.534 115.006 485.859C115.006 485.361 114.726 485.393 117.805 476.683C119.485 471.925 121.6 479.234 129.687 472.08C131.404 469.905 132.414 467.257 132.58 464.491C132.58 463.433 133.917 462.158 137.432 458.892C140.947 455.626 143.964 452.485 146.514 450.307C159.796 438.923 158.956 442.096 172.673 443.184C182.44 443.931 178.894 443.651 199.889 452.111C201.382 452.702 199.889 455.75 197.214 455.222C185.936 450.97 173.963 448.861 161.911 449.001C160.325 449.001 159.143 450.152 159.329 450.867C160.107 454.04 163.808 448.845 196.157 458.114Z" fill="#C49E91"/>
<path d="M118.645 456.529C127.044 458.209 130.776 466.949 123.218 468.566C111.554 467.82 111.149 455.036 118.645 456.529Z" fill="white"/>
<path d="M113.389 314.321C111.651 316.877 109.627 319.225 107.355 321.319C102.627 325.58 103.498 325.985 102.316 324.896C96.0949 319.049 92.0202 309.811 77.899 298.675C69.2521 291.833 67.5413 296.871 78.5522 283.901C84.773 276.623 83.4355 276.312 85.084 277.462C90.6517 281.319 91.7714 285.923 99.3608 293.015C103.902 297.182 103.778 298.831 106.732 303.683C108.941 307.136 112.518 312.797 113.389 314.321Z" fill="#C49E91"/>
<path d="M103.435 445.984C103.435 445.984 111.367 452.205 110.527 453.2C108.694 455.334 107.61 458.01 107.442 460.819C107.273 463.627 108.029 466.414 109.594 468.752C111.833 472.111 108.723 472.142 107.51 480.572C107.51 481.722 108.381 481.785 93.8553 472.049C81.6625 463.9 36.5305 429.996 27.0437 418.83C8.94117 397.555 -5.08677 384.615 10.3097 364.211C23.7467 346.326 49.0654 316.466 50.3718 315.658C63.1867 320.168 77.6812 340.759 82.9067 345.424C83.7776 346.202 84.6485 345.86 78.3033 351.832C78.3033 351.832 63.6843 366.575 57.1836 375.16C53.0156 380.665 48.8477 382.252 49.6875 387.601C50.6206 393.511 99.1119 441.598 103.435 445.984Z" fill="#C49E91"/>
<path d="M63.933 300.139C78.4275 307.262 97.7743 331.555 96.6234 332.674C88.8163 340.326 89.7494 340.202 88.6608 338.895C83.5597 333.265 67.8522 314.821 59.4541 309.844C56.6858 308.195 55.9082 308.569 56.5303 307.916C64.6484 299.206 62.2223 301.632 63.933 300.139Z" fill="#C49E91"/>
<path d="M429.189 303.68C426.078 294.909 386.669 215.127 386.638 215.065C379.267 200.974 375.752 203.432 377.058 192.545C379.858 168.751 376.156 171.239 378.427 157.367C380.3 146.702 382.887 136.176 386.172 125.858C387.789 119.886 386.763 116.869 382.408 116.527C379.298 116.247 377.369 119.202 375.379 124.738C372.424 132.857 369.749 144.894 367.074 151.177C366.358 152.856 367.882 114.287 367.82 112.048C368.027 109.72 367.575 107.381 366.514 105.298C365.98 104.672 365.272 104.219 364.48 103.998C363.687 103.776 362.847 103.796 362.066 104.054C357.929 105.174 357.618 109.715 356.529 117.616C354.85 130.244 354.477 151.363 353.917 148.191C351.366 134.039 351.584 130.026 351.366 113.976C351.366 111.83 351.615 108.782 351.366 106.107C351.055 102.312 349.065 100.571 346.452 100.944C344.337 101.224 343.186 102.095 342.222 105.174C338.24 117.398 341.226 147.04 339.858 145.889C338.334 145.008 336.717 144.299 335.037 143.774C330.495 141.472 328.163 140.042 324.088 141.783C317.867 144.427 318.769 146.325 316.53 154.225C314.29 162.125 312.922 164.303 313.948 167.662C314.321 168.782 312.735 170.772 313.606 173.199C322.253 198.735 315.006 197.429 346.141 209.528C351.18 211.519 351.18 213.883 354.788 223.245C360.2 237.335 362.781 245.298 364.119 250.43C365.456 255.562 372.766 278.424 372.579 285.329C370.551 283.908 368.599 282.382 366.732 280.756C365.767 280.01 366.732 279.263 367.074 275.531C367.39 274.255 367.394 272.922 367.085 271.644C366.776 270.366 366.164 269.181 365.301 268.19C362.564 265.671 358.147 261.596 349.998 254.909C327.105 236.309 329.282 217.273 301.289 217.646C300.044 217.646 297.463 216.091 295.068 218.268C294.259 219.046 280.231 215.967 271.74 216.495C270.122 216.495 247.136 215.313 243.933 209.901C240.325 203.898 241.693 192.763 242.595 188.502C245.052 177.055 244.524 174.287 247.727 172.172C253.265 167.451 257.739 161.61 260.853 155.034C261.164 154.318 261.32 153.199 261.849 153.479C263.017 154.224 264.354 154.662 265.737 154.754C266.919 154.754 266.825 157.864 270.06 161.503C270.558 162.032 270.34 161.97 267.883 164.178C266.854 165.064 266.022 166.156 265.442 167.383C264.861 168.61 264.544 169.946 264.512 171.303C264.48 172.66 264.733 174.009 265.254 175.263C265.776 176.516 266.555 177.646 267.541 178.58C270.465 180.85 270.838 181.192 270.153 182.685C268.739 184.182 267.783 186.052 267.397 188.075C267.012 190.097 267.212 192.188 267.976 194.1C268.757 195.636 269.811 197.017 271.087 198.175C272.58 199.886 276.281 200.197 275.597 197.335C273.264 187.226 286.141 190.15 277.65 175.376C273.824 168.688 292.362 171.021 284.057 156.713C282.097 153.354 279.547 150.679 283.124 149.155C286.701 147.631 287.727 147.755 289.78 145.827C292.735 143.028 289.78 139.606 291.709 139.855C298.614 141.255 304.43 135.967 301.258 129.715C299.267 125.734 310.216 128.658 310.589 119.109C310.931 111.55 305.799 111.612 309.158 110.026C310.658 109.654 312.069 108.986 313.308 108.062C314.547 107.138 315.589 105.976 316.374 104.645C320.729 95.936 313.824 89.7463 311.988 87.0714C318.614 83.2767 320.573 78.0201 318.614 71.7059C317.152 66.9159 313.793 67.0092 315.254 65.3296C317.461 62.5294 318.508 58.9885 318.178 55.4385C313.73 38.7667 302.937 43.4634 304.399 40.353C305.586 37.7733 305.786 34.8476 304.961 32.1304C304.135 29.4132 302.342 27.0931 299.92 25.6097C296.942 23.8441 293.471 23.0911 290.029 23.4635C289.376 22.717 290.496 17.0561 284.275 16.5895C278.054 16.123 277.805 19.3267 277.339 17.5226C275.869 13.1471 272.936 9.4121 269.034 6.94725C266.364 5.62672 263.386 5.05688 260.418 5.29874C252.58 5.48536 253.14 8.40914 251.398 6.66732C244.15 -0.828767 237.556 8.00479 236.872 6.29407C234.57 0.539813 217.774 -5.24555 208.878 8.34694C208.35 9.15564 208.039 9.6222 207.541 9.09343C205.999 7.87768 204.17 7.08125 202.229 6.7815C200.289 6.48174 198.304 6.68885 196.468 7.38271C181.227 13.6035 189.563 23.8368 186.421 21.9394C183.28 20.0421 181.102 17.9581 177.681 19.6999C168.91 24.1478 172.891 30.6175 170.434 29.7154C165.955 28.0358 161.694 33.9456 162.969 38.5801C164.959 45.8273 164.959 42.3437 159.33 43.2146C157.555 43.4464 155.931 44.3354 154.779 45.7059C153.627 47.0764 153.031 48.8289 153.109 50.6174C153.358 55.2208 155.566 55.7807 154.011 55.9673C152.507 56.358 151.099 57.056 149.878 58.0172C148.657 58.9784 147.648 60.182 146.914 61.5524C146.181 62.9227 145.739 64.43 145.617 65.9794C145.495 67.5288 145.694 69.0867 146.204 70.5551C147.914 75.4384 151.927 74.8786 150.434 76.0294C149.641 76.5133 148.991 77.1999 148.551 78.0184C148.112 78.837 147.898 79.758 147.933 80.6865C147.968 81.6149 148.25 82.5173 148.75 83.3006C149.249 84.084 149.949 84.7199 150.776 85.1429C151.243 85.454 151.243 85.6406 150.776 85.9827C149.534 87.1135 148.621 88.5585 148.132 90.1651C147.643 91.7717 147.597 93.4804 147.999 95.1111C148.4 96.7418 149.234 98.2339 150.412 99.4302C151.591 100.626 153.071 101.482 154.695 101.908C155.908 102.188 154.446 102.25 153.949 106.511C153.823 107.514 153.899 108.531 154.172 109.504C154.445 110.477 154.909 111.385 155.538 112.176C156.167 112.967 156.947 113.624 157.833 114.11C158.719 114.595 159.693 114.899 160.698 115.003C163.093 115.158 155.317 123.556 165.893 130.804C169.749 133.448 164.928 135.252 164.244 139.762C163.373 145.267 165.768 146.294 169.532 149.28C171.429 150.773 169.532 150.773 166.421 153.51C165.303 154.352 164.56 155.599 164.351 156.983C164.141 158.366 164.483 159.777 165.302 160.912C166.312 162.29 167.435 163.58 168.661 164.769C170.9 167.382 169.749 169.279 168.661 172.732C168.101 174.754 169.781 176.029 171.211 175.283C178.614 171.488 183.031 166.791 178.023 160.166C176.561 158.206 179.827 159.14 181.631 153.354C181.631 153.199 181.88 152.888 182.067 153.354C188.63 167.538 193.451 171.083 193.42 176.838C193.42 183.307 189.469 204.831 184.555 210.026C180.2 214.629 172.58 216.06 155.286 220.072C152.176 220.788 153.078 218.206 148.35 219.73C140.605 222.187 140.512 222.841 139.485 222.187C138.459 221.534 137.681 221.721 132.891 223.587C130.994 224.334 132.891 224.582 129.781 225.951C125.053 228.035 122.502 228.657 119.485 234.038C116.468 239.419 114.571 230.928 83.1557 265.142C78.8322 269.808 76.655 270.896 76.9349 274.131C77.2459 277.988 79.1744 278.641 77.3703 280.352C70.5586 286.355 33.1714 329.59 27.6038 336.65C-5.02437 377.086 -12.5827 379.605 26.0797 423.929C32.7671 431.611 96.4371 481.658 106.235 484.644C107.946 485.172 106.484 487.101 110.403 488.843C113.016 489.994 112.114 488.438 115.411 491.549C121.942 497.77 124.151 495.561 123.56 497.116C121.072 503.679 112.767 524.426 113.544 530.616C114.571 538.703 111.585 541.409 110.434 547.132C108.879 553.944 109.936 557.272 108.692 563.928C107.604 569.589 106.764 566.572 104.244 582.808C103.716 586.292 107.355 586.852 107.852 584.55C108.255 580.339 109.046 576.174 110.216 572.108C112.279 567.183 113.337 561.896 113.327 556.556C114.571 539.449 118.459 542.995 117.339 531.486C116.779 525.608 118.334 523.835 126.888 497.676C127.355 496.246 128.257 497.116 130.714 496.588C142.689 494.006 153.669 483.12 156.344 483.648C175.442 487.63 159.952 482.964 178.894 490.305C185.986 493.073 188.225 488.252 190.216 488.563C190.216 488.563 217.152 492.171 219.018 490.771C220.231 489.869 219.796 491.331 227.479 491.984C231.211 492.326 233.108 493.415 236.81 493.726C240.511 494.037 246.577 492.637 248.163 492.98C252.386 493.417 256.65 493.239 260.822 492.451C265.334 492.859 269.879 492.703 274.353 491.984C278.458 491.113 276.623 489.838 279.018 489.869C280.853 489.869 293.108 488.47 293.202 488.47C302.947 487.033 312.495 484.486 321.662 480.88C322.657 480.88 323.528 482.218 324.772 482.653C326.538 483.549 327.936 485.035 328.722 486.852C330.713 489.558 329.78 491.922 330.775 496.712C331.448 500.824 331.76 504.987 331.708 509.154C332.455 515.375 333.45 513.259 339.609 526.448C341.071 529.558 338.365 523.928 348.94 549.869C356.187 567.754 345.394 547.163 363.777 586.603C364.71 588.594 365.301 591.859 367.727 591.082C372.05 589.744 358.396 570.74 355.441 557.303C352.486 543.866 348.007 542.995 351.895 542.777C354 542.737 356.07 542.227 357.953 541.286C359.837 540.344 361.486 538.994 362.781 537.334C369.002 527.225 372.299 524.892 372.486 505.11C372.486 494.908 371.802 482 372.486 477.676C373.854 469.247 369.375 467.35 370.06 464.706C370.775 461.129 370.589 461.596 368.847 457.739C365.208 449.496 361.537 427.07 350.651 420.631C340.822 414.815 340.698 413.571 337.183 413.198C332.331 412.669 329.656 411.207 323.093 412.233C320.791 412.576 319.982 412.793 319.298 412.233C315.721 409.123 315.721 408.781 315.597 407.506C314.85 399.107 309.904 389.807 309.593 386.448C309.329 378.262 309.547 370.067 310.247 361.907C311.584 343.027 309.158 344.52 310.9 330.212C311.677 323.991 312.517 320.445 313.575 311.549C313.575 310.927 312.828 310.025 321.413 317.77C327.634 323.276 333.855 333.322 338.489 328.532C338.987 328.035 339.36 328.159 339.827 328.532C343.963 332.265 346.327 333.789 350.651 337.49C365.83 350.43 389.873 376.401 409.749 374.629C434.912 372.42 434.632 356.184 434.632 331.083C434.749 321.669 432.895 312.335 429.189 303.68V303.68ZM357.649 145.889C357.649 145.423 358.52 119.233 360.76 110.524C361.257 108.72 361.257 107.6 362.75 107.102C367.385 105.516 361.382 128.471 363.404 156.869C363.404 157.709 363.839 157.771 356.996 155.314C356.467 155.003 356.654 154.94 357.711 145.889H357.649ZM179.267 129.964C176.779 142.779 181.693 147.413 178.272 153.727C177.232 154.847 176.109 155.887 174.913 156.838C171.989 160.135 177.401 162.25 177.09 165.765C176.418 167.988 174.958 169.89 172.984 171.115C172.889 171.187 172.773 171.227 172.653 171.229C172.534 171.231 172.417 171.195 172.319 171.125C172.222 171.056 172.149 170.957 172.112 170.843C172.075 170.729 172.076 170.606 172.113 170.492C173.793 164.769 172.113 163.992 168.692 160.197C165.799 157.087 168.225 155.376 172.331 152.079C175.068 149.902 173.513 148.315 171.865 147.04C164.431 141.286 166.484 141.286 169.874 134.785C171.398 131.861 170.651 130.71 169.283 129.342C167.914 127.973 164.773 125.858 163.933 123.432C163.481 122.027 163.355 120.538 163.566 119.077C163.776 117.617 164.316 116.223 165.146 115.003C168.256 110.897 161.071 113.852 158.023 109.808C155.473 106.418 158.832 103.308 159.827 102.468C161.818 100.788 161.134 99.1397 159.516 99.2019C150.403 99.5441 148.63 92.1724 154.664 86.7603C156.561 85.1118 157.463 83.8676 154.664 82.6857C149.096 80.4462 151.554 78.9532 154.664 76.807C157.152 75.2518 157.774 73.6966 154.011 72.4524C147.012 70.2441 147.79 64.0232 152.393 60.5396C156.997 57.0559 158.614 61.1928 160.978 60.0419C162.72 59.2021 161.165 56.185 160.014 55.3452C153.793 50.7107 157.712 47.2581 159.672 47.1648C163.809 46.916 163.56 47.4759 165.675 46.9471C171.398 45.5474 166.639 41.0995 166.266 37.367C166.079 35.6563 166.95 32.266 169.376 32.9503C171.056 33.3857 174.975 35.1898 174.384 31.7061C174.13 30.7686 174.064 29.7903 174.19 28.8272C174.315 27.8642 174.63 26.9354 175.115 26.0944C175.601 25.2533 176.248 24.5164 177.019 23.9262C177.79 23.3359 178.671 22.9038 179.609 22.6548C181.476 22.2505 181.476 23.2769 184.368 25.2053C187.261 27.1338 190.185 25.9829 190.247 23.9923C190.247 19.5755 188.536 14.6611 197.557 10.5864C199.136 10.0973 200.82 10.0595 202.419 10.4772C204.019 10.8949 205.47 11.7516 206.608 12.9503C207.883 14.35 208.63 15.4698 209.967 13.3547C210.979 10.6493 212.685 8.25733 214.913 6.41848C216.499 5.06893 218.366 4.0896 220.378 3.55159C222.391 3.01358 224.497 2.93039 226.546 3.30808C228.466 3.55741 230.261 4.39797 231.682 5.71325C233.103 7.02853 234.08 8.75336 234.477 10.6486C234.757 11.7373 234.477 12.6393 235.877 13.0125C236.81 13.2614 237.774 11.8617 237.93 11.5507C238.571 10.2791 239.541 9.20201 240.739 8.43096C241.936 7.6599 243.318 7.22283 244.741 7.16498C250.122 7.88037 249.594 12.6393 250.433 13.3858C253.233 15.9985 251.553 6.97836 263.964 8.93791C266.047 9.37289 267.978 10.3539 269.557 11.7804C271.137 13.2069 272.309 15.0276 272.953 17.0561C274.57 20.6953 272.393 20.5397 273.513 23.2769C274.259 25.1742 275.659 24.5211 277.09 22.997C281.413 18.2691 287.167 19.2023 286.048 23.1836C285.375 24.5522 284.993 26.0456 284.928 27.5693C284.942 27.8762 285.043 28.1727 285.22 28.4241C285.397 28.6755 285.641 28.8714 285.925 28.9889C286.209 29.1064 286.521 29.1406 286.823 29.0875C287.126 29.0343 287.407 28.8961 287.634 28.689C291.584 24.3966 304.368 28.2224 301.6 37.7714C300.822 40.5086 299.858 42.5614 301.786 43.4012C307.043 45.6718 308.847 45.8585 312.051 50.0264C313.525 51.7376 314.381 53.8942 314.483 56.1504C314.584 58.4065 313.925 60.6314 312.611 62.468C312.206 63.059 309.967 64.4276 309.127 65.5784C308.954 65.8162 308.844 66.0939 308.807 66.3857C308.77 66.6775 308.808 66.9738 308.917 67.2471C309.025 67.5204 309.201 67.7617 309.429 67.9485C309.656 68.1353 309.926 68.2616 310.216 68.3156C314.415 68.8133 318.303 75.7806 313.575 81.2549C310.993 84.3653 310.091 83.2767 308.878 85.4539C306.545 89.4975 315.814 93.7587 314.197 100.695C313.046 105.703 309.002 106.231 306.483 107.88C303.964 109.528 303.559 110.99 306.079 114.474C306.973 115.487 307.499 116.772 307.572 118.121C307.646 119.47 307.262 120.804 306.483 121.908C303.062 125.672 297.961 123.463 297.836 127.32C297.681 132.203 300.107 133.976 296.468 135.967C292.828 137.958 288.629 134.567 287.136 136.216C285.643 137.864 287.136 138.86 287.541 140.726C288.598 144.396 286.017 143.339 280.511 146.356C277.836 147.849 276.654 151.675 279.454 156.185C283.964 163.494 284.213 163.93 278.178 167.755C267.479 174.598 280.915 179.979 276.654 185.485C272.393 190.99 272.58 193.51 272.797 194.816C273.015 196.122 271.802 196.247 270.9 194.318C270.101 193.095 269.72 191.645 269.815 190.186C269.911 188.728 270.477 187.34 271.429 186.231C272.081 185.48 272.562 184.595 272.836 183.639C273.11 182.682 273.171 181.677 273.015 180.695C272.828 179.171 270.9 177.584 268.785 176.06C267.918 175.167 267.383 174.004 267.27 172.764C267.157 171.525 267.472 170.284 268.163 169.248C270.9 165.049 272.393 165.671 273.046 163.028C273.575 160.912 270.931 158.828 269.407 155.376C269.003 154.754 282.72 142.126 283.715 131.146C284.027 129.563 283.902 127.924 283.354 126.407C282.806 124.889 281.856 123.549 280.604 122.53C280.045 122.188 279.734 122.001 279.889 121.006C287.789 68.5955 290.371 54.101 291.18 50.2441C291.584 48.2224 291.18 47.4137 289.936 46.916C288.691 46.4183 287.603 47.1648 287.447 45.2986C286.452 34.9098 273.295 29.3733 262.875 29.3733C260.089 29.0147 257.259 29.456 254.714 30.6456C252.17 31.8352 250.016 33.7241 248.505 36.0918C247.852 37.3981 247.759 38.1757 246.919 37.3048C245.403 35.77 243.528 34.6366 241.465 34.0067C239.402 33.3768 237.214 33.2703 235.099 33.6968C229.563 34.4433 229.376 36.8072 229.158 34.8476C227.448 18.7046 198.054 17.1805 189.594 30.4308C188.474 32.2038 189.594 33.5412 186.826 33.7901C181.942 34.0389 184.088 35.4697 182.471 92.5768C181.6 127.444 183.093 109.435 179.267 129.964ZM271.429 110.088C267.79 108.004 272.237 105.018 273.108 102.81C275.13 97.709 265.457 101.162 265.208 96.2471C264.835 89.5286 273.202 92.7323 271.429 84.1787C270.838 81.4104 268.474 81.4104 264.461 80.4773C262.688 80.0729 261.818 78.6422 260.853 77.3669C258.956 74.6297 263.964 69.2487 261.569 67.5691C259.174 65.8895 255.628 73.4478 251.74 71.0528C250.122 70.0885 248.007 69.0932 248.629 67.2892C249.905 63.1834 247.261 62.3125 245.301 64.1788C244.745 64.636 244.079 64.9389 243.369 65.0573C242.659 65.1757 241.93 65.1054 241.256 64.8533C240.582 64.6012 239.985 64.1763 239.527 63.6212C239.069 63.0661 238.765 62.4002 238.645 61.6904C237.992 57.9268 235.535 58.8289 234.757 60.9439C233.606 64.7075 229.718 68.3156 226.732 67.1648C225.723 66.9046 224.796 66.3952 224.035 65.6833C223.274 64.9713 222.704 64.0796 222.378 63.0901C222.193 62.7491 221.915 62.4683 221.575 62.2812C221.235 62.094 220.849 62.0085 220.462 62.0347C220.076 62.0609 219.705 62.1978 219.393 62.4291C219.082 62.6603 218.844 62.9761 218.707 63.3389C216.903 66.9781 216.437 66.4494 213.42 66.6671C210.931 66.8537 209.532 65.2052 208.163 63.1834C207.969 62.8074 207.657 62.5056 207.274 62.3247C206.892 62.1437 206.46 62.0936 206.046 62.182C205.633 62.2704 205.259 62.4925 204.984 62.814C204.709 63.1355 204.547 63.5385 204.524 63.961C205.077 65.9193 204.993 68.003 204.283 69.91C203.572 71.817 202.273 73.4483 200.574 74.5675C198.277 75.8151 195.721 76.5075 193.109 76.5893C189.532 77.0247 189.718 74.2876 187.417 76.7448C187.043 77.1803 187.417 76.9314 186.608 77.4291C186.421 76.3405 186.39 39.8865 187.479 39.9176C188.567 39.9487 186.608 42.6858 190.589 48.8755C199.92 62.8724 219.889 57.2114 225.83 46.7605C228.256 42.4681 229.376 39.3888 233.482 38.0824C235.401 37.4057 237.48 37.3258 239.445 37.8533C241.411 38.3807 243.17 39.4907 244.493 41.0373C245.542 43.1996 246.406 45.4472 247.074 47.7558C250.402 62.5302 269.376 72.6391 282.066 60.9128C284.835 58.3623 286.265 54.1944 286.234 55.4696C286.234 57.3359 283.124 71.0217 276.281 119.233C276.281 119.948 275.939 120.291 275.192 120.353C274.446 120.415 273.171 120.819 272.082 120.104C271.707 119.899 271.378 119.618 271.116 119.28C270.854 118.942 270.665 118.554 270.56 118.139C270.455 117.725 270.436 117.293 270.505 116.871C270.575 116.449 270.73 116.046 270.962 115.687C272.455 113.417 275.939 112.701 271.429 110.088V110.088ZM204.866 35.0964C203.031 31.986 204.866 29.1556 206.203 25.9518C206.546 25.0809 206.203 25.3609 210.278 24.8943C214.85 25.4231 211.429 24.8943 210.465 31.1151C208.847 41.4417 215.472 34.2255 207.168 52.5769C206.701 53.6034 206.546 53.5101 201.911 52.7636C198.645 52.2348 208.536 41.535 204.866 35.0964ZM268.412 33.2302C271.522 33.9767 272.517 33.8834 272.953 39.6998C273.357 44.7698 268.785 44.4899 269.656 50.804C271.304 62.3436 272.58 62.2814 270.029 62.157C264.617 61.8148 265.737 63.3078 263.808 52.8258C263.412 51.6577 263.288 50.4147 263.444 49.1913C263.6 47.9679 264.033 46.7962 264.71 45.7651C270.185 37.2426 262.937 32.0171 268.381 33.2302H268.412ZM188.07 157.647C177.401 139.202 184.057 129.186 185.364 116.745C186.048 110.524 185.053 102.934 185.675 94.9718C186.017 90.5239 186.017 84.5519 187.697 81.1305C188.101 80.3529 188.474 79.6997 189.127 79.6064C191.305 79.3576 192.238 80.5395 196.157 79.793C199.699 79.4742 203.01 77.8961 205.488 75.3451C209.407 70.5862 207.759 68.6577 209.314 69.4042C211.083 70.361 213.109 70.7347 215.103 70.4722C217.097 70.2097 218.957 69.3243 220.418 67.9424C221.787 66.7915 220.822 69.031 225.923 70.835C229.594 72.1103 234.228 69.1554 236.219 66.4182C237.339 64.8008 237.65 69.7153 243.684 68.8133C246.452 68.4089 244.586 73.7899 252.642 75.2518C254.072 75.2668 255.489 74.9916 256.81 74.4431C258.676 73.6655 254.664 78.0201 261.382 83.09C263.148 84.0477 265.079 84.66 267.074 84.8941C268.256 85.1429 268.94 86.4182 267.479 87.4135C258.645 93.3544 261.258 102.001 266.95 102.966C267.79 102.966 268.66 103.183 268.132 103.805C267.163 105.062 266.638 106.604 266.638 108.191C266.638 109.778 267.163 111.32 268.132 112.577C269.345 113.852 267.261 114.07 267.51 118.798C267.727 122.53 270.62 122.219 269.158 123.899C268.163 125.112 269.158 127.227 270.527 126.511C271.491 126.045 273.824 122.499 277.556 124.21C281.289 125.92 281.009 130.741 279.64 134.505C277.44 139.968 274.28 144.993 270.309 149.342C269.385 150.483 268.064 151.233 266.61 151.441C265.156 151.649 263.677 151.299 262.471 150.461C261.818 150.088 260.916 150.088 260.045 151.208C255.939 156.433 254.57 166.262 235.41 177.149C227.012 181.908 216.748 185.298 207.914 181.192C198.023 176.247 193.109 166.356 188.039 157.615L188.07 157.647ZM162.098 221.939C187.417 215.345 188.381 215.718 193.202 197.398C195.168 190.819 196.44 184.054 196.997 177.211C199.454 178.735 208.225 187.942 219.485 186.231C232.518 184.209 238.894 178.331 241.258 177.491C241.475 180.384 236.001 195.656 239.485 208.595C243.311 222.81 279.765 218.735 292.828 221.814C284.897 230.43 279.982 232.421 270.06 238.579C262.962 243.951 254.812 247.766 246.141 249.777C240.275 251.535 234.217 252.58 228.101 252.887C223.28 252.887 223.435 252.887 223.435 252.887C203.706 252.514 184.563 246.122 168.568 234.567C153.762 220.757 154.633 223.867 162.098 221.939ZM98.6766 254.225C119.019 234.66 118.49 242.841 123.56 234.474C125.955 230.586 127.199 231.363 132.58 228.968C138.801 226.418 223.124 351.643 262.377 383.742C286.545 403.524 316.281 423.524 316.374 423.711C317.494 426.821 318.427 432.793 315.441 433.882C310.962 435.53 308.007 432.731 302.44 431.922C296.872 431.114 286.452 444.364 268.909 442.715C268.349 442.715 266.359 442.715 266.359 442.715C259.485 441.44 258.209 440.196 253.917 442.715C252.506 444.015 250.64 444.708 248.723 444.644C243.865 445.27 238.938 444.252 234.726 441.751C228.505 438.361 218.738 444.862 207.137 444.675C204.034 444.213 201.107 442.948 198.645 441.005C193.326 437.739 189.687 444.426 181.725 441.409C177.432 439.761 171.025 440.569 165.239 439.481C162.893 439.078 160.494 439.078 158.148 439.481C156.188 440.32 157.494 438.112 153.295 436.37C151.927 435.81 147.075 435.655 144.711 433.726C141.849 431.394 146.639 429.589 147.292 425.173C147.351 423.098 147.794 421.052 148.599 419.139C152.642 412.389 152.549 410.958 152.736 408.19C152.367 404.753 152.673 401.276 153.638 397.957C155.504 394.442 150.932 381.378 150.123 378.983C143.591 359.854 145.799 370.741 142.782 351.238C140.418 335.904 138.241 335.904 138.054 327.848C137.868 319.792 140.138 319.574 138.054 314.473C137.364 313.341 136.539 312.297 135.597 311.363C134.636 310.269 134.068 308.885 133.983 307.431C133.899 305.977 134.303 304.536 135.131 303.338C138.653 297.483 140.613 290.821 140.823 283.991C141.6 278.672 142.036 273.26 139.921 273.354C136.281 273.354 139.641 283.96 135.442 295.406C133.358 301.13 128.754 304.364 125.177 307.848C115.442 317.179 119.672 318.019 113.918 308.346C105.644 294.442 106.204 294.691 102.44 290.803C95.9084 284.022 97.5258 286.417 94.4154 282.063C91.327 277.651 87.2048 274.063 82.4092 271.612C81.8182 271.332 93.7933 258.952 98.6766 254.225ZM152.984 440.849C150.685 442.864 148.183 444.636 145.519 446.137C142.689 445.484 141.414 444.364 142.036 441.689C142.502 439.667 143.56 437.801 145.519 438.579C149.625 439.761 150.683 438.765 152.984 440.818V440.849ZM78.5523 283.898C84.7731 276.62 83.4357 276.309 85.0842 277.459C90.6518 281.316 91.7715 285.92 99.3609 293.011C103.902 297.179 103.778 298.828 106.733 303.68C108.941 307.288 112.518 313.011 113.389 314.473C111.652 317.029 109.627 319.377 107.355 321.472C102.627 325.733 103.498 326.137 102.316 325.049C96.095 319.201 92.0204 309.963 77.8991 298.828C69.2522 291.829 67.5415 296.868 78.5523 283.898ZM56.5306 308.004C64.6488 299.201 62.2227 301.596 63.9334 300.134C78.4279 307.257 97.7746 331.549 96.6238 332.669C88.8167 340.352 89.7498 340.196 88.6611 338.89C83.5601 333.26 67.8525 314.815 59.4544 309.839C56.6861 308.284 55.9085 308.657 56.5306 308.004ZM110.527 453.197C108.694 455.332 107.61 458.008 107.442 460.816C107.273 463.625 108.029 466.411 109.594 468.75C111.834 472.109 108.723 472.14 107.51 480.569C107.51 481.72 108.381 481.782 93.8555 472.047C81.6627 463.897 36.5307 429.994 27.0439 418.827C8.94137 397.552 -5.08657 384.613 10.3099 364.209C23.7469 346.324 49.0656 316.464 50.372 315.655C63.1869 320.165 77.6814 340.756 82.9069 345.422C83.7778 346.199 84.6487 345.857 78.3035 351.829C78.3035 351.829 63.6846 366.573 57.1838 375.157C53.0159 380.663 48.8479 382.249 49.6877 387.599C51.07 390.707 53.0701 393.5 55.5664 395.81C62.7514 404.177 76.1884 419.076 103.498 445.981C103.498 446.044 111.367 452.233 110.527 453.197ZM73.6379 411.02C56.935 389.527 49.19 389.403 55.442 382.28C76.0329 358.828 72.7669 363.338 97.9613 336.557C106.328 327.63 109.905 323.618 111.803 321.876C113.7 320.134 113.918 320.85 116.064 321.13C118.832 321.472 120.667 316.215 130.683 307.879C130.994 307.63 131.212 307.506 131.18 307.879C130.9 313.82 135.504 314.1 135.504 318.672C134.06 325.008 134.285 331.61 136.157 337.832C139.952 349.559 139.921 361.814 142.378 368.221C155.068 403.431 149.003 388.968 149.439 405.546C149.439 409.994 149.439 410.149 145.55 416.899C143.529 420.383 144.773 423.835 142.907 426.23C140.543 429.092 139.174 431.518 140.854 434.722C142.067 437.023 137.743 437.832 138.863 444.053C139.672 448.718 143.84 447.319 141.725 450.087C141.009 451.02 139.423 452.389 136.561 455.281C135.194 456.727 133.74 458.088 132.207 459.356C131.243 460.103 130.963 459.356 130.092 458.081C128.446 455.42 125.978 453.367 123.062 452.233C116.53 449.309 115.535 452.233 114.073 450.709C112.611 449.185 74.6332 412.265 73.6379 411.02ZM118.645 456.526C127.044 458.205 130.776 466.945 123.218 468.563C111.554 467.816 111.149 455.033 118.645 456.526ZM183.497 487.163C178.739 487.35 168.381 481.378 165.675 481.378C162.857 481.318 160.057 480.911 157.339 480.165C153.327 479.2 139.05 490.896 130.496 492.606C123.156 494.162 115.628 488.625 114.944 485.95C114.944 485.452 114.664 485.484 117.743 476.774C119.423 472.015 121.538 479.325 129.625 472.171C131.342 469.996 132.352 467.347 132.518 464.582C132.518 463.524 133.855 462.249 137.37 458.983C140.885 455.717 143.902 452.575 146.453 450.398C159.734 439.014 158.894 442.187 172.611 443.275C182.44 444.022 179.174 443.835 199.827 452.202C201.32 452.793 199.827 455.841 197.152 455.313C185.874 451.061 173.901 448.951 161.849 449.092C160.263 449.092 159.081 450.243 159.267 450.958C160.076 454.068 163.777 448.936 196.126 458.205C204.213 460.538 205.737 460.414 205.457 461.564C204.617 464.364 200.263 463.96 193.948 462.746C185.488 461.129 176.281 458.392 165.955 460.289C164.275 460.6 164.4 460.289 159.454 459.885C159.157 459.832 158.85 459.881 158.584 460.024C158.318 460.168 158.108 460.397 157.989 460.675C157.87 460.952 157.849 461.262 157.928 461.554C158.008 461.845 158.184 462.101 158.428 462.28C162.117 463.483 165.891 464.408 169.718 465.048C173.451 465.732 175.317 465.048 177.712 466.292C184.244 470.087 184.959 468.034 188.412 470.243C197.245 475.872 201.351 475.219 199.05 477.303C196.748 479.387 194.197 478.796 184.275 473.882C177.65 470.585 169.438 472.264 158.676 469.589C155.846 468.874 154.291 471.487 156.281 472.233C170.776 477.552 169.221 474.722 174.944 478.921C178.894 482.031 179.827 481.253 185.084 485.141C186.39 486.137 184.617 487.132 183.497 487.163ZM213.015 459.169C212.362 464.893 209.594 478.205 211.118 485.795C211.305 486.697 210.838 486.386 209.594 486.386C205.771 486.183 201.961 485.788 198.179 485.204C193.637 484.519 191.18 485.919 188.412 483.524C182.191 478.205 177.588 477.303 176.157 475.312C182.378 475.001 186.919 479.947 193.606 481.129C198.023 481.938 202.409 481.129 203.964 476.961C205.519 472.793 195.162 470.74 189.438 466.728C187.323 465.843 185.109 465.216 182.844 464.861C182.036 464.613 179.205 463.182 180.045 463.12C181.495 463.182 182.934 463.401 184.337 463.773C187.79 464.675 194.726 465.857 200.667 466.883C203.591 467.319 208.132 466.199 208.754 462.031C209.376 457.863 205.457 457.21 201.445 456.215C202.72 455.592 202.72 453.664 203.529 453.788C204.337 453.913 207.23 455.064 210.278 455.499C211.116 455.626 211.932 455.867 212.704 456.215C213.513 456.557 213.233 457.148 213.015 459.263V459.169ZM216.126 487.163C215.597 487.163 214.539 486.945 214.446 486.417C213.544 480.445 212.642 481.72 215.939 457.583C215.939 456.619 216.312 456.37 220.231 456.681C216.406 473.882 218.458 483.524 217.65 486.417C217.494 487.194 216.81 487.225 216.157 487.194L216.126 487.163ZM245.954 488.687C239.734 489.496 237.463 490.211 233.326 488.998C226.203 486.852 220.885 488.656 220.885 485.639C220.615 476.632 221.313 467.623 222.969 458.765C223.07 458.194 223.368 457.676 223.811 457.301C224.254 456.926 224.814 456.718 225.395 456.712H229.594C232.362 456.712 232.486 459.014 236.343 458.423C239.049 458.019 241.755 457.832 244.462 457.645C246.141 457.645 245.83 457.365 246.452 462.715C245.301 462.778 246.483 488.656 245.986 488.718L245.954 488.687ZM253.948 489.06C250.154 489.06 250.029 489.061 249.78 488.563C248.629 485.981 249.78 460.88 248.972 458.236C248.598 457.054 249.314 457.334 252.984 457.334C253.357 461.253 254.633 489.092 253.979 489.092L253.948 489.06ZM275.41 486.821C275.003 487.377 274.423 487.781 273.762 487.972C271.368 488.413 268.946 488.684 266.514 488.781C259.485 488.438 257.65 489.403 257.556 486.572C256.343 446.572 253.14 460.165 265.27 455.997C267.065 454.925 269.168 454.487 271.242 454.753C274.664 454.753 274.726 454.286 275.037 456.743C275.687 466.766 275.822 476.816 275.441 486.852L275.41 486.821ZM279.485 485.888C277.836 485.888 278.645 485.701 278.707 481.596C278.707 478.734 278.956 470.243 279.018 468.874C279.485 453.322 274.757 453.944 280.387 453.882C280.493 453.903 280.592 453.951 280.674 454.022C280.756 454.093 280.817 454.184 280.853 454.286C281.744 457.314 282.153 460.463 282.066 463.617C281.684 470.615 281.798 477.631 282.408 484.613C282.626 485.826 281.693 486.043 279.516 485.919L279.485 485.888ZM286.141 484.799C284.741 483.648 285.768 462.498 285.115 458.734C283.746 450.678 279.671 453.975 297.743 450.865C316.405 447.754 317.245 444.177 317.587 451.58C317.587 452.42 318.8 470.709 320.013 476.463C320.604 478.921 288.163 486.448 286.172 484.83L286.141 484.799ZM366.265 461.844C365.923 464.613 365.705 465.266 364.523 465.795C361.492 466.933 358.522 468.231 355.627 469.683C350.34 473.166 346.638 473.104 341.724 474.69C330.34 478.423 327.354 475.344 327.385 478.174C327.359 478.606 327.505 479.03 327.789 479.356C328.474 480.04 330.06 479.791 332.268 479.791C335.113 479.943 337.958 479.52 340.635 478.547C350.246 475.437 350.837 476.712 358.209 472.327C359.764 471.362 365.519 469.216 365.799 469.029C369.842 467.288 368.038 479.76 368.069 481.284C368.38 518.267 370.371 517.334 359.422 534.535C358.241 536.088 356.677 537.308 354.884 538.076C353.09 538.845 351.128 539.136 349.189 538.92C348.567 538.92 348.349 539.449 344.834 529.589C338.614 512.544 334.819 514.97 334.912 504.084C334.912 499.418 333.824 496.37 333.357 490.305C333.195 487.691 332.292 485.178 330.756 483.058C329.219 480.937 327.112 479.298 324.679 478.33C323.248 477.583 323.964 476.743 323.217 474.473C322.813 473.26 323.901 473.913 324.99 474.006C328.349 474.286 336.219 474.317 338.956 472.793C343.559 470.18 348.069 470.554 356.436 466.012C365.394 461.16 366.607 460.476 366.296 461.876L366.265 461.844ZM319.609 420.974C320.045 420.375 320.317 419.672 320.399 418.936C320.481 418.2 320.369 417.455 320.075 416.775C319.858 415.499 319.391 415.562 325.892 415.157C328.972 415.27 332.029 415.73 335.005 416.526C338.8 417.086 341.226 419.636 348.007 423.773C356.53 428.999 361.755 448.656 364.057 458.267C354.103 463.057 336.063 473.446 323.932 470.491C321.04 469.776 321.506 453.415 320.324 448.128C320.169 447.319 319.578 446.479 319.764 445.795C319.951 445.11 324.119 443.431 322.377 439.356C320.387 434.597 319.267 435.748 319.858 434.442C322.626 426.852 319.142 421.782 319.951 421.005L319.609 420.974ZM319.049 440.289C319.516 441.16 318.862 441.627 318.334 442.187C316.778 443.96 315.223 443.182 311.086 443.928C308.318 444.426 302.222 446.323 298.645 447.039C298.645 447.039 274.975 450.927 268.723 450.989C264.648 450.989 266.421 452.513 260.262 452.949C254.104 453.384 244.119 453.788 242.844 453.882C235.006 454.442 234.664 455.157 233.326 454.068C231.491 452.638 230.713 453.104 221.973 453.011C218.427 453.011 212.642 452.7 212.642 452.7C210.247 453.571 204.928 451.393 200.2 449.589C194.882 447.443 190.123 445.484 190.869 445.204C193.7 444.022 194.571 443.244 196.655 444.271C203.497 447.661 202.875 449.465 214.913 447.91C214.913 447.91 229.252 443.493 232.455 445.017C235.982 447.148 239.975 448.387 244.088 448.625C251.46 448.998 252.424 448.625 254.912 447.039C261.507 443.089 257.059 447.505 273.979 446.728C286.141 446.168 297.743 436.806 300.729 435.997C303.216 436.038 305.666 436.611 307.914 437.677C310.934 438.613 314.138 438.794 317.245 438.205C318.769 438.112 318.769 439.449 319.236 440.32L319.049 440.289ZM317.432 417.397C317.649 422.84 317.09 421.254 288.194 400.227C227.665 356.028 214.197 320.103 139.796 231.052C138.801 229.87 136.313 227.662 135.659 226.853C135.006 226.044 135.877 225.702 137.152 225.205C138.428 224.707 138.583 224.582 140.947 226.698C150.776 235.531 176.623 272.514 209.376 312.109C231.647 338.952 240.885 354.691 277.494 385.764C285.375 392.375 293.688 398.454 302.377 403.96C317.121 415.219 316.996 412.016 317.618 417.428L317.432 417.397ZM329.687 321.441C325.27 315.22 317.401 310.523 314.135 305.889C312.393 303.525 314.352 303.058 312.548 294.66C309.936 282.218 312.144 279.854 308.816 268.128C308.38 266.697 305.892 266.293 305.705 268.128C305.705 269.341 306.576 273.323 307.447 279.419C307.487 284.894 308.06 290.353 309.158 295.718C312.051 309.528 306.048 324.8 306.39 340.85C307.043 368.252 304.648 371.954 305.581 383.991C306.359 394.162 307.105 387.63 311.46 405.204C311.677 406.044 268.381 381.938 223.902 324.924C218.179 317.615 143.995 224.925 144.182 224.862C149.314 223.121 150.652 222.156 153.047 224.365C164.431 235.127 172.424 245.64 201.102 253.571C260.2 269.652 295.69 220.104 300.635 220.788C313.077 222.623 314.539 221.596 319.889 226.729C330.869 237.273 329.935 241.005 345.114 255.5C348.598 258.828 357.12 265.484 361.786 269.372C363.155 270.523 362.564 269.372 354.383 281.627C348.411 290.679 345.581 297.179 341.257 303.4C332.548 315.749 333.264 326.168 329.873 321.472L329.687 321.441ZM404.15 370.056C386.98 366.946 375.347 353.384 337.4 322C335.596 320.539 338.831 319.17 340.013 313.447C340.861 310.583 342.326 307.939 344.306 305.702C346.203 302.996 357.214 283.929 359.236 280.819C359.951 279.699 359.951 279.668 372.921 290.337C374.539 291.674 383.746 336.339 390.122 332.047C392.766 330.274 387.011 326.013 383.403 312.887C376.872 288.346 369.562 247.817 359.018 224.551C357.96 222.219 354.663 212.639 352.393 210.026C347.229 203.992 327.789 202.001 322.782 191.581C321.32 188.471 322.097 189.59 317.09 174.007C316.281 171.426 317.09 171.115 317.525 170.617C317.96 170.119 319.64 170.617 320.231 171.27C321.746 173.13 322.935 175.233 323.746 177.491C328.38 187.662 326.701 189.124 329.967 189.933C337.245 191.985 335.69 187.6 343.279 188.906C345.583 189.575 347.932 190.074 350.309 190.399C351.491 190.399 352.61 188.564 350.62 187.786C348.757 186.737 346.707 186.061 344.586 185.796C342.47 185.796 344.586 180.819 342.719 175.034C338.614 161.659 341.289 161.846 337.369 158.549C334.788 156.309 330.9 152.639 327.789 152.981C324.679 153.323 325.581 154.909 321.786 162.499C319.205 167.631 316.219 168.066 317.214 164.396C318.891 160.026 320.101 155.491 320.822 150.866C321.942 144.645 327.043 143.65 330.153 145.547C334.57 148.284 333.73 146.729 339.733 150.244C346.67 154.287 342.097 141.348 343.559 119.326C343.696 115.096 344.174 110.883 344.99 106.729C344.99 106.2 345.27 104.365 346.576 104.116C347.883 103.868 348.536 105.143 348.722 107.227C349.407 114.692 346.358 135.843 352.082 154.349C349.438 154.349 346.296 153.603 347.074 156.091C347.229 156.558 350.993 157.118 351.086 157.118C362.688 158.735 370.246 164.894 371.242 162.623C371.926 161.006 370.06 160.259 368.318 159.513C366.576 158.766 367.882 158.953 370.931 151.177C373.201 145.329 378.707 119.606 382.004 120.073C383.03 120.073 383.87 120.602 383.839 122.095C383.839 127.942 376.405 143.619 374.725 157.958C372.828 173.79 376.218 164.583 373.17 195.718C372.455 203.152 377.867 204.272 387.696 225.08C387.696 225.08 399.982 253.074 403.777 260.166C413.108 277.273 426.483 301.938 430.028 318.392C431.77 326.417 430.744 351.456 430.339 353.789C427.633 367.786 414.041 371.829 404.15 370.056ZM340.355 183.961C340.355 185.92 339.516 184.707 334.974 186.667C333.699 187.226 330.402 186.947 329.842 185.702C328.38 182.405 329.345 182.436 327.634 178.517C326.563 175.904 325.273 173.386 323.777 170.99C322.937 169.622 320.884 169.653 321.911 168.502C328.131 161.628 326.856 155.376 329.531 156.589C331.966 157.932 334.18 159.642 336.094 161.659C338.147 162.841 336.343 165.298 339.547 176.247C340.179 178.767 340.452 181.364 340.355 183.961Z" fill="#000001"/>
<path d="M346.14 160.478C351.086 159.483 372.33 166.512 371.024 168.69C370.65 169.25 370.339 169.996 369.468 169.841C366.887 169.343 356.28 163.247 347.042 162.967C346.879 163.026 346.706 163.052 346.532 163.044C346.358 163.037 346.188 162.995 346.031 162.921C345.873 162.847 345.732 162.743 345.615 162.615C345.497 162.487 345.406 162.337 345.347 162.173C345.288 162.01 345.262 161.837 345.269 161.663C345.277 161.489 345.319 161.319 345.393 161.162C345.466 161.004 345.57 160.863 345.699 160.746C345.827 160.628 345.977 160.537 346.14 160.478V160.478Z" fill="#000001"/>
<path d="M359.173 190.463C358.427 201.008 371.988 200.51 369.406 203.465C368.224 204.802 367.509 204.242 367.198 204.18C351.117 199.763 355.441 187.757 360.386 172.921C361.195 170.463 361.848 170.432 362.874 170.65C365.892 171.272 359.795 181.63 359.173 190.463Z" fill="#000001"/>
<path d="M317.773 585.644C318.738 587.013 317.151 590.092 315.098 588.039C313.045 585.987 313.979 584.929 311.553 579.455C305.829 566.702 304.616 555.784 300.604 540.979C300.417 540.264 298.24 535.66 299.764 535.318C304.772 534.229 304.305 551.305 315.627 579.672C316.162 581.723 316.88 583.722 317.773 585.644Z" fill="#000001"/>
<path d="M299.018 335.251C299.64 336.091 298.582 336.869 297.96 337.148C293.668 339.046 285.954 346.013 262.346 343.369C245.892 341.534 244.865 337.615 237.463 335.22C237.173 335.127 236.92 334.945 236.741 334.699C236.562 334.453 236.466 334.156 236.467 333.851C236.467 333.26 236.841 332.732 238.271 332.763C243.59 332.949 242.066 336.091 261.133 339.388C289.438 344.271 295.565 330.772 299.018 335.251Z" fill="#000001"/>
<path d="M277.027 127.165C278.707 128.721 278.427 131.178 277.4 131.613C276.872 131.862 276.467 131.613 275.845 130.369C275.223 129.125 274.477 129.498 273.481 130.618C268.878 135.968 272.393 137.181 272.642 138.892C272.731 139.514 272.683 140.149 272.5 140.751C272.318 141.353 272.005 141.908 271.584 142.375C270.495 143.744 268.474 145.828 267.261 144.677C266.047 143.526 267.572 142.033 268.722 140.54C270.682 137.99 266.887 138.394 268.474 133.666C270.06 128.938 274.601 124.895 277.027 127.165Z" fill="#000001"/>
<path d="M258.614 108.315C259.267 110.244 256.903 111.084 255.783 109.653C252.455 105.423 249.158 100.819 240.231 104.521C236.374 106.107 235.534 100.477 244.523 100.011C247.442 99.3556 250.501 99.8692 253.046 101.441C255.602 103.064 257.558 105.478 258.614 108.315V108.315Z" fill="#000001"/>
<path d="M247.354 582.404C248.598 586.324 244.025 587.63 243.714 583.991C243.123 576.712 240.604 569.838 240.604 563.649C240.566 554.823 240.026 546.006 238.987 537.241C238.968 537.037 238.99 536.831 239.051 536.636C239.113 536.44 239.212 536.258 239.343 536.101C239.475 535.943 239.636 535.813 239.817 535.718C239.999 535.623 240.198 535.565 240.402 535.546C240.606 535.528 240.812 535.55 241.008 535.611C241.203 535.672 241.385 535.771 241.542 535.903C241.7 536.034 241.83 536.195 241.925 536.377C242.02 536.559 242.079 536.757 242.097 536.961C245.207 557.366 242.781 560.352 245.705 573.633C246.358 576.712 246.918 581.067 247.354 582.404Z" fill="#000001"/>
<path d="M244.959 149.903C243.901 155.315 241.32 153.014 241.506 151.085C241.506 150.059 241.755 151.085 241.506 149.188C238.023 151.303 230.807 160.23 224.275 163.993C213.544 170.214 210.154 159.39 204.493 147.042C201.911 141.381 202.035 140.821 205.643 141.661C215.073 144.654 224.927 146.093 234.819 145.922C236.188 145.922 239.236 145.922 238.396 144.678C235.97 141.567 243.995 140.479 244.959 149.903ZM235.97 149.53C237.463 148.192 232.859 150.681 218.8 148.006C204.057 145.238 207.354 144.584 209.469 150.09C217.307 168.783 220.978 163.34 235.97 149.53Z" fill="#000001"/>
<path d="M241.631 114.475C242.75 114.879 243.186 116.186 242.626 118.829C242.066 121.473 238.116 121.411 239.111 116.31C239.14 116.017 239.23 115.733 239.376 115.477C239.522 115.222 239.72 115 239.959 114.826C240.197 114.653 240.469 114.532 240.757 114.471C241.045 114.411 241.343 114.412 241.631 114.475V114.475Z" fill="#000001"/>
<path d="M236.592 224.644C237.121 227.07 224.555 228.936 222.066 228.905C219.578 228.874 218.645 228.532 210.185 224.892C207.416 223.71 198.676 226.292 195.752 227.194C192.829 228.096 191.273 225.981 195.41 224.892C206.732 221.782 208.225 220.631 215.099 224.053C219.298 226.137 219.734 226.199 220.822 226.261C230.62 226.665 235.97 221.658 236.592 224.644Z" fill="#000001"/>
<path d="M230.34 129.344C232.673 129.344 232.113 134.072 228.505 134.85C227.771 134.977 227.018 134.937 226.301 134.732C225.585 134.527 224.924 134.163 224.368 133.668C223.808 133.263 223.559 133.668 222.906 134.259C213.855 140.884 203.249 127.291 213.886 118.707C215.644 117.35 216.955 115.497 217.65 113.388C218.521 112.206 219.671 112.859 219.765 114.041C219.95 115.254 219.821 116.493 219.391 117.642C218.96 118.791 218.243 119.811 217.308 120.604C214.57 123.154 212.393 124.772 213.233 128.567C213.533 129.461 214.079 130.253 214.809 130.85C215.54 131.448 216.424 131.827 217.36 131.944C218.296 132.061 219.246 131.911 220.101 131.511C220.956 131.112 221.68 130.479 222.191 129.686C224.399 126.576 224.244 130.495 226.981 131.553C228.194 132.019 228.629 131.024 229.034 130.464C229.438 129.904 229.345 129.406 230.34 129.344Z" fill="#000001"/>
<path d="M202.284 89.8424C210.713 86.732 218.054 90.931 216.063 93.9481C214.073 96.9652 210.496 89.438 202.751 93.2016C197.93 95.5344 198.272 98.0538 197.339 98.3338C193.482 99.4535 195.317 92.3307 202.284 89.8424Z" fill="#000001"/>
<path d="M207.976 107.943C209.314 107.539 210.651 109.063 210.465 111.054C210.465 112.485 209.469 114.164 208.007 113.884C207.323 113.884 206.297 112.733 206.328 110.774C206.359 108.814 206.95 108.192 207.976 107.943Z" fill="#000001"/>
<path d="M208.691 332.98C208.692 333.357 208.546 333.72 208.285 333.992C208.025 334.265 207.669 334.426 207.292 334.442C203.948 335.261 200.548 335.833 197.121 336.152C197.121 336.152 182.844 337.708 182.844 337.77C146.203 333.851 149.407 323.524 152.362 325.173C154.871 327.007 157.611 328.503 160.511 329.621C175.814 334.224 173.295 334.877 198.396 332.731C202.75 332.482 208.536 329.621 208.691 332.98Z" fill="#000001"/>
<path d="M176.063 531.796C178.147 531.516 177.929 533.88 178.427 537.333C177.339 548.624 172.206 559.323 172.642 567.068C173.419 578.763 170.776 577.364 171.398 583.647C171.398 584.455 171.398 586.571 170.091 586.757C167.603 586.975 167.572 584.518 167.261 581.252C168.711 577.175 169.345 572.852 169.127 568.53C167.758 557.768 176.561 541.314 174.975 535.031C174.632 533.756 174.601 532.045 176.063 531.796Z" fill="#000001"/>
</svg>
