<svg width="30" height="30" viewBox="0 0 30 30" fill="none" xmlns="http://www.w3.org/2000/svg">
<path d="M6.71518 30H0.495536V9.97054H6.71518V30ZM3.60201 7.23833C1.61317 7.23833 0 5.59097 0 3.60209C1.42353e-08 2.64676 0.379496 1.73055 1.055 1.05503C1.73051 0.379505 2.6467 0 3.60201 0C4.55732 0 5.47351 0.379505 6.14901 1.05503C6.82452 1.73055 7.20402 2.64676 7.20402 3.60209C7.20402 5.59097 5.59018 7.23833 3.60201 7.23833ZM29.9933 30H23.7871V20.2498C23.7871 17.9261 23.7402 14.9461 20.5533 14.9461C17.3196 14.9461 16.8241 17.4707 16.8241 20.0824V30H10.6112V9.97054H16.5763V12.7027H16.6634C17.4937 11.129 19.5221 9.46829 22.5482 9.46829C28.8429 9.46829 30 13.6135 30 18.9975V30H29.9933Z" fill="white"/>
</svg>
