<svg width="38" height="28" viewBox="0 0 38 28" fill="none" xmlns="http://www.w3.org/2000/svg">
<path fill-rule="evenodd" clip-rule="evenodd" d="M34.2173 0C35.3461 0 36.3485 0.512437 36.9793 1.30505L18.6603 15.8537L0.504552 1.56924C1.1116 0.628153 2.20647 0 3.45629 0H34.2173ZM0 24.2187V4.15084L13.0272 14.4003L0.0268546 24.6287C0.00913436 24.4944 0 24.3575 0 24.2187ZM1.19142 26.691C1.798 27.1897 2.58992 27.4915 3.45629 27.4915H34.2173C34.9619 27.4915 35.6516 27.2685 36.2158 26.8892L22.3728 15.8953L19.8835 17.8724C19.1794 18.4315 18.1538 18.4337 17.447 17.8777L14.9201 15.8896L1.19142 26.691ZM24.2553 14.4003L37.5791 24.9818C37.6408 24.737 37.6735 24.4815 37.6735 24.2187V3.74376L24.2553 14.4003Z" fill="white"/>
</svg>
