<svg width="51" height="51" viewBox="0 0 51 51" fill="none" xmlns="http://www.w3.org/2000/svg">
<path d="M46.5257 0.749023H4.20033C2.26092 0.749023 0.68515 2.34683 0.68515 4.30828V46.5565C0.68515 48.518 2.26092 50.1158 4.20033 50.1158H46.5257C48.4651 50.1158 50.0519 48.518 50.0519 46.5565V4.30828C50.0519 2.34683 48.4651 0.749023 46.5257 0.749023ZM15.6054 43.0634H8.28851V19.504H15.6164V43.0634H15.6054ZM11.9469 16.2863C9.59981 16.2863 7.70448 14.38 7.70448 12.0439C7.70448 9.70776 9.59981 7.80142 11.9469 7.80142C14.283 7.80142 16.1894 9.70776 16.1894 12.0439C16.1894 14.391 14.2941 16.2863 11.9469 16.2863ZM43.0326 43.0634H35.7157V31.6032C35.7157 28.8704 35.6606 25.3553 31.914 25.3553C28.1013 25.3553 27.5173 28.3305 27.5173 31.4049V43.0634H20.2004V19.504H27.2198V22.7216H27.3189C28.2997 20.8704 30.6909 18.92 34.2501 18.92C41.6551 18.92 43.0326 23.8015 43.0326 30.1487V43.0634Z" fill="#6D6D6D"/>
</svg>
