<svg width="50" height="51" viewBox="0 0 50 51" fill="none" xmlns="http://www.w3.org/2000/svg">
<path d="M25.1172 12.7794C18.1089 12.7794 12.456 18.4323 12.456 25.4407C12.456 32.449 18.1089 38.1019 25.1172 38.1019C32.1255 38.1019 37.7785 32.449 37.7785 25.4407C37.7785 18.4323 32.1255 12.7794 25.1172 12.7794ZM25.1172 33.6721C20.5882 33.6721 16.8857 29.9806 16.8857 25.4407C16.8857 20.9007 20.5772 17.2092 25.1172 17.2092C29.6572 17.2092 33.3487 20.9007 33.3487 25.4407C33.3487 29.9806 29.6462 33.6721 25.1172 33.6721ZM41.2496 12.2615C41.2496 13.9034 39.9272 15.2147 38.2964 15.2147C36.6545 15.2147 35.3432 13.8924 35.3432 12.2615C35.3432 10.6306 36.6655 9.30831 38.2964 9.30831C39.9272 9.30831 41.2496 10.6306 41.2496 12.2615ZM49.6353 15.2588C49.448 11.3028 48.5444 7.79866 45.6463 4.91159C42.7592 2.02451 39.2551 1.12093 35.2991 0.922578C31.2219 0.691172 19.0015 0.691172 14.9243 0.922578C10.9794 1.10991 7.47521 2.0135 4.57712 4.90057C1.67902 7.78764 0.786454 11.2918 0.588106 15.2477C0.356699 19.3249 0.356699 31.5454 0.588106 35.6225C0.775435 39.5785 1.67902 43.0827 4.57712 45.9697C7.47521 48.8568 10.9683 49.7604 14.9243 49.9587C19.0015 50.1901 31.2219 50.1901 35.2991 49.9587C39.2551 49.7714 42.7592 48.8678 45.6463 45.9697C48.5334 43.0827 49.4369 39.5785 49.6353 35.6225C49.8667 31.5454 49.8667 19.3359 49.6353 15.2588ZM44.368 39.9972C43.5085 42.157 41.8446 43.821 39.6738 44.6915C36.4231 45.9808 28.7095 45.6832 25.1172 45.6832C21.5249 45.6832 13.8003 45.9697 10.5606 44.6915C8.40083 43.832 6.73691 42.1681 5.86638 39.9972C4.57712 36.7465 4.87464 29.033 4.87464 25.4407C4.87464 21.8483 4.58813 14.1238 5.86638 10.8841C6.72589 8.72429 8.38981 7.06036 10.5606 6.18983C13.8113 4.90057 21.5249 5.19809 25.1172 5.19809C28.7095 5.19809 36.4341 4.91159 39.6738 6.18983C41.8336 7.04934 43.4975 8.71327 44.368 10.8841C45.6573 14.1348 45.3598 21.8483 45.3598 25.4407C45.3598 29.033 45.6573 36.7575 44.368 39.9972Z" fill="#6D6D6D"/>
</svg>
