<svg width="234" height="41" viewBox="0 0 234 41" fill="none" xmlns="http://www.w3.org/2000/svg">
<g clip-path="url(#clip0_725_556)">
<path d="M121.942 12.9756L139.961 37.5962L139.931 37.6235L121.962 23.461L103.972 37.6274L103.936 37.6079L121.942 12.9756Z" fill="#F5F5F5"/>
<path d="M136.688 38.9722C137.729 39.3463 138.771 39.7146 139.813 40.0848L139.835 40.0478L121.94 28.6445L103.992 40.0946L104.02 40.1277C104.963 39.7873 105.905 39.4476 106.847 39.1086C111.761 37.3451 117.03 35.5465 121.94 33.7752L136.688 38.9722Z" fill="#F5F5F5"/>
<path d="M4.96733 8.65961C3.51248 8.65961 2.32052 8.23742 1.39144 7.39302C0.944723 7.00304 0.589232 6.52381 0.34911 5.98786C0.108989 5.45191 -0.0101391 4.8718 -0.000181918 4.28694C-0.0169855 3.70312 0.099737 3.123 0.341497 2.58873C0.583258 2.05447 0.943979 1.57951 1.39743 1.19839C2.32251 0.399465 3.51248 0 4.96733 0C6.44746 0 7.64408 0.399465 8.55719 1.19839C9.00649 1.58189 9.36322 2.05772 9.60176 2.59173C9.84029 3.12573 9.95472 3.70466 9.93683 4.28694C9.95544 4.8776 9.84161 5.46509 9.6033 6.00834C9.365 6.55158 9.00797 7.03746 8.55719 7.43199C7.64408 8.25041 6.44746 8.65961 4.96733 8.65961Z" fill="#F5F5F5"/>
<path d="M9.14435 31.0119C9.14435 32.1681 9.42654 33.043 9.99091 33.6367C10.5553 34.2304 11.3107 34.5278 12.257 34.5291C12.7335 34.5295 13.2089 34.4851 13.6766 34.3966L15.0962 34.1297V40.0456C14.0129 40.3203 12.9151 40.5375 11.8078 40.6965C10.6087 40.8688 9.39804 40.9535 8.18599 40.9498C7.11634 40.9646 6.0541 40.7746 5.05934 40.3906C4.14839 40.033 3.33009 39.4826 2.66343 38.7791C1.97767 38.0449 1.45191 37.1824 1.11807 36.2439C0.740157 35.1636 0.555771 34.0279 0.573005 32.8865V12.9756H9.14435V31.0119Z" fill="#F5F5F5"/>
<path d="M45.7219 40.2585H37.1366V25.0983C37.1366 20.8711 35.5899 18.7575 32.4965 18.7575C31.7915 18.743 31.0926 18.8868 30.4535 19.1777C29.8145 19.4686 29.2525 19.8988 28.8108 20.4353C27.8391 21.5564 27.3533 22.9776 27.3533 24.6988V40.2585H18.728V12.9779H27.3533V17.2922H27.4631C29.5196 13.9704 32.5145 12.3096 36.4477 12.3096C42.6358 12.3096 45.7299 16.0574 45.7299 23.553L45.7219 40.2585Z" fill="#F5F5F5"/>
<path d="M64.36 40.921C59.7013 40.921 56.0408 39.6466 53.3787 37.0978C50.7166 34.549 49.3856 31.0896 49.3856 26.7195C49.3856 22.2091 50.7685 18.6789 53.5345 16.1288C56.3004 13.5788 60.0407 12.3044 64.7553 12.3057C69.3954 12.3057 73.0351 13.5801 75.6746 16.1288C78.3141 18.6776 79.6332 22.0481 79.6319 26.2402C79.6319 30.7687 78.2715 34.3477 75.5508 36.977C72.8301 39.6063 69.0999 40.921 64.36 40.921ZM64.5796 18.7536C62.5417 18.7536 60.9578 19.4376 59.8277 20.8055C58.6976 22.1734 58.1339 24.109 58.1366 26.6123C58.1366 31.8515 60.3022 34.4717 64.6335 34.473C68.7598 34.473 70.8229 31.782 70.8229 26.3999C70.8282 21.305 68.7471 18.7575 64.5796 18.7575V18.7536Z" fill="#F5F5F5"/>
<path d="M109.109 12.9756L98.7093 40.2561H88.8801L78.971 12.9756H88.1992L93.0569 29.7862C93.5419 31.3674 93.8624 32.9924 94.0133 34.6363H94.1231C94.3186 33.0472 94.656 31.4778 95.1314 29.946L100.101 12.9756H109.109Z" fill="#F5F5F5"/>
<path d="M151.683 31.0124C151.683 32.1686 151.965 33.0435 152.529 33.6372C153.094 34.2308 153.848 34.5283 154.794 34.5296C155.27 34.53 155.745 34.4856 156.213 34.3971L157.633 34.1302V40.0461C156.547 40.3212 155.446 40.5385 154.336 40.697C153.139 40.8691 151.929 40.9538 150.719 40.9503C149.65 40.9648 148.588 40.7748 147.594 40.391C146.683 40.0337 145.864 39.4833 145.198 38.7795C144.513 38.0456 143.988 37.183 143.657 36.2444C143.277 35.1644 143.092 34.0285 143.11 32.8869V12.9702H151.683V31.0124Z" fill="#F5F5F5"/>
<path d="M185.992 29.015H167.757C168.046 32.9758 170.603 34.9563 175.428 34.9563C178.503 34.9563 181.205 34.2457 183.534 32.8245V38.9003C180.951 40.2474 177.593 40.921 173.461 40.921C168.949 40.921 165.446 39.6998 162.951 37.2576C160.457 34.8153 159.211 31.4092 159.212 27.0391C159.212 22.5105 160.558 18.9225 163.251 16.275C165.944 13.6275 169.256 12.3044 173.188 12.3057C177.265 12.3057 180.418 13.4865 182.648 15.8482C184.877 18.2099 185.992 21.4161 185.992 25.4666V29.015ZM177.994 23.8453C177.994 19.9377 176.374 17.9839 173.134 17.9839C171.751 17.9839 170.553 18.5438 169.54 19.6636C168.527 20.7834 167.913 22.1773 167.697 23.8453H177.994Z" fill="#F5F5F5"/>
<path d="M234 40.2585H225.401V24.6988C225.401 20.7367 223.909 18.7562 220.924 18.7575C219.505 18.7575 218.349 19.3525 217.456 20.5424C216.563 21.7324 216.117 23.2153 216.119 24.9911V40.2585H207.491V24.539C207.491 20.6847 206.027 18.7575 203.099 18.7575C202.411 18.7384 201.73 18.8835 201.113 19.1804C200.497 19.4772 199.964 19.9167 199.561 20.4606C198.678 21.596 198.237 23.1412 198.237 25.0963V40.2565H189.612V12.976H198.237V17.2376H198.347C199.295 15.7303 200.624 14.4856 202.206 13.6228C203.789 12.76 205.571 12.3078 207.383 12.3096C211.33 12.3096 214.033 14.0055 215.492 17.3974C217.621 14.0068 220.749 12.3109 224.876 12.3096C230.956 12.3096 233.995 15.9684 233.994 23.2861L234 40.2585Z" fill="#F5F5F5"/>
</g>
<defs>
<clipPath id="clip0_725_556">
<rect width="234" height="40.95" fill="white"/>
</clipPath>
</defs>
</svg>
